<?xml version="1.0" encoding="utf-8" standalone="no"?>
<!DOCTYPE svg PUBLIC "-//W3C//DTD SVG 1.1//EN"
  "http://www.w3.org/Graphics/SVG/1.1/DTD/svg11.dtd">
<svg xmlns:xlink="http://www.w3.org/1999/xlink" width="1008pt" height="432pt" viewBox="0 0 1008 432" xmlns="http://www.w3.org/2000/svg" version="1.1">
 <metadata>
  <rdf:RDF xmlns:dc="http://purl.org/dc/elements/1.1/" xmlns:cc="http://creativecommons.org/ns#" xmlns:rdf="http://www.w3.org/1999/02/22-rdf-syntax-ns#">
   <cc:Work>
    <dc:type rdf:resource="http://purl.org/dc/dcmitype/StillImage"/>
    <dc:date>2025-03-18T16:14:14.806695</dc:date>
    <dc:format>image/svg+xml</dc:format>
    <dc:creator>
     <cc:Agent>
      <dc:title>Matplotlib v3.9.1, https://matplotlib.org/</dc:title>
     </cc:Agent>
    </dc:creator>
   </cc:Work>
  </rdf:RDF>
 </metadata>
 <defs>
  <style type="text/css">*{stroke-linejoin: round; stroke-linecap: butt}</style>
 </defs>
 <g id="figure_1">
  <g id="patch_1">
   <path d="M 0 432 
L 1008 432 
L 1008 0 
L 0 0 
z
" style="fill: #ffffff"/>
  </g>
  <g id="axes_1">
   <g id="patch_2">
    <path d="M 126 384.48 
L 907.2 384.48 
L 907.2 51.84 
L 126 51.84 
z
" style="fill: #ffffff"/>
   </g>
   <g id="patch_3">
    <path d="M 161.509091 384.48 
L 175.904668 384.48 
L 175.904668 349.499956 
L 161.509091 349.499956 
z
" clip-path="url(#p099101bc62)" style="fill: #fbb4ae; stroke: #808080; stroke-linejoin: miter"/>
   </g>
   <g id="patch_4">
    <path d="M 185.50172 384.48 
L 199.897297 384.48 
L 199.897297 357.659601 
L 185.50172 357.659601 
z
" clip-path="url(#p099101bc62)" style="fill: #fbb4ae; stroke: #808080; stroke-linejoin: miter"/>
   </g>
   <g id="patch_5">
    <path d="M 209.494349 384.48 
L 223.889926 384.48 
L 223.889926 285.145188 
L 209.494349 285.145188 
z
" clip-path="url(#p099101bc62)" style="fill: #fbb4ae; stroke: #808080; stroke-linejoin: miter"/>
   </g>
   <g id="patch_6">
    <path d="M 233.486978 384.48 
L 247.882555 384.48 
L 247.882555 332.471131 
L 233.486978 332.471131 
z
" clip-path="url(#p099101bc62)" style="fill: #fbb4ae; stroke: #808080; stroke-linejoin: miter"/>
   </g>
   <g id="patch_7">
    <path d="M 257.479607 384.48 
L 271.875184 384.48 
L 271.875184 329.136319 
L 257.479607 329.136319 
z
" clip-path="url(#p099101bc62)" style="fill: #fbb4ae; stroke: #808080; stroke-linejoin: miter"/>
   </g>
   <g id="patch_8">
    <path d="M 281.472236 384.48 
L 295.867813 384.48 
L 295.867813 214.688426 
L 281.472236 214.688426 
z
" clip-path="url(#p099101bc62)" style="fill: #fbb4ae; stroke: #808080; stroke-linejoin: miter"/>
   </g>
   <g id="patch_9">
    <path d="M 161.509091 349.499956 
L 175.904668 349.499956 
L 175.904668 322.040976 
L 161.509091 322.040976 
z
" clip-path="url(#p099101bc62)" style="fill: #ccebc5; stroke: #808080; stroke-linejoin: miter"/>
   </g>
   <g id="patch_10">
    <path d="M 185.50172 357.659601 
L 199.897297 357.659601 
L 199.897297 330.200621 
L 185.50172 330.200621 
z
" clip-path="url(#p099101bc62)" style="fill: #ccebc5; stroke: #808080; stroke-linejoin: miter"/>
   </g>
   <g id="patch_11">
    <path d="M 209.494349 285.145188 
L 223.889926 285.145188 
L 223.889926 278.049845 
L 209.494349 278.049845 
z
" clip-path="url(#p099101bc62)" style="fill: #ccebc5; stroke: #808080; stroke-linejoin: miter"/>
   </g>
   <g id="patch_12">
    <path d="M 233.486978 332.471131 
L 247.882555 332.471131 
L 247.882555 332.116364 
L 233.486978 332.116364 
z
" clip-path="url(#p099101bc62)" style="fill: #ccebc5; stroke: #808080; stroke-linejoin: miter"/>
   </g>
   <g id="patch_13">
    <path d="M 257.479607 329.136319 
L 271.875184 329.136319 
L 271.875184 328.781552 
L 257.479607 328.781552 
z
" clip-path="url(#p099101bc62)" style="fill: #ccebc5; stroke: #808080; stroke-linejoin: miter"/>
   </g>
   <g id="patch_14">
    <path d="M 281.472236 214.688426 
L 295.867813 214.688426 
L 295.867813 214.333659 
L 281.472236 214.333659 
z
" clip-path="url(#p099101bc62)" style="fill: #ccebc5; stroke: #808080; stroke-linejoin: miter"/>
   </g>
   <g id="patch_15">
    <path d="M 161.509091 322.040976 
L 175.904668 322.040976 
L 175.904668 311.39796 
L 161.509091 311.39796 
z
" clip-path="url(#p099101bc62)" style="fill: #decbe4; stroke: #808080; stroke-linejoin: miter"/>
   </g>
   <g id="patch_16">
    <path d="M 185.50172 330.200621 
L 199.897297 330.200621 
L 199.897297 300.896851 
L 185.50172 300.896851 
z
" clip-path="url(#p099101bc62)" style="fill: #decbe4; stroke: #808080; stroke-linejoin: miter"/>
   </g>
   <g id="patch_17">
    <path d="M 209.494349 278.049845 
L 223.889926 278.049845 
L 223.889926 242.573126 
L 209.494349 242.573126 
z
" clip-path="url(#p099101bc62)" style="fill: #decbe4; stroke: #808080; stroke-linejoin: miter"/>
   </g>
   <g id="patch_18">
    <path d="M 233.486978 332.116364 
L 247.882555 332.116364 
L 247.882555 302.812594 
L 233.486978 302.812594 
z
" clip-path="url(#p099101bc62)" style="fill: #decbe4; stroke: #808080; stroke-linejoin: miter"/>
   </g>
   <g id="patch_19">
    <path d="M 257.479607 328.781552 
L 271.875184 328.781552 
L 271.875184 318.138537 
L 257.479607 318.138537 
z
" clip-path="url(#p099101bc62)" style="fill: #decbe4; stroke: #808080; stroke-linejoin: miter"/>
   </g>
   <g id="patch_20">
    <path d="M 281.472236 214.333659 
L 295.867813 214.333659 
L 295.867813 214.333659 
L 281.472236 214.333659 
z
" clip-path="url(#p099101bc62)" style="fill: #decbe4; stroke: #808080; stroke-linejoin: miter"/>
   </g>
   <g id="patch_21">
    <path d="M 353.450123 384.48 
L 367.8457 384.48 
L 367.8457 353.118581 
L 353.450123 353.118581 
z
" clip-path="url(#p099101bc62)" style="fill: #fbb4ae; stroke: #808080; stroke-linejoin: miter"/>
   </g>
   <g id="patch_22">
    <path d="M 377.442752 384.48 
L 391.838329 384.48 
L 391.838329 369.934545 
L 377.442752 369.934545 
z
" clip-path="url(#p099101bc62)" style="fill: #fbb4ae; stroke: #808080; stroke-linejoin: miter"/>
   </g>
   <g id="patch_23">
    <path d="M 401.435381 384.48 
L 415.830958 384.48 
L 415.830958 349.003282 
L 401.435381 349.003282 
z
" clip-path="url(#p099101bc62)" style="fill: #fbb4ae; stroke: #808080; stroke-linejoin: miter"/>
   </g>
   <g id="patch_24">
    <path d="M 425.42801 384.48 
L 439.823587 384.48 
L 439.823587 320.621907 
L 425.42801 320.621907 
z
" clip-path="url(#p099101bc62)" style="fill: #fbb4ae; stroke: #808080; stroke-linejoin: miter"/>
   </g>
   <g id="patch_25">
    <path d="M 449.420639 384.48 
L 463.816216 384.48 
L 463.816216 329.136319 
L 449.420639 329.136319 
z
" clip-path="url(#p099101bc62)" style="fill: #fbb4ae; stroke: #808080; stroke-linejoin: miter"/>
   </g>
   <g id="patch_26">
    <path d="M 473.413268 384.48 
L 487.808845 384.48 
L 487.808845 178.85694 
L 473.413268 178.85694 
z
" clip-path="url(#p099101bc62)" style="fill: #fbb4ae; stroke: #808080; stroke-linejoin: miter"/>
   </g>
   <g id="patch_27">
    <path d="M 353.450123 353.118581 
L 367.8457 353.118581 
L 367.8457 325.659601 
L 353.450123 325.659601 
z
" clip-path="url(#p099101bc62)" style="fill: #ccebc5; stroke: #808080; stroke-linejoin: miter"/>
   </g>
   <g id="patch_28">
    <path d="M 377.442752 369.934545 
L 391.838329 369.934545 
L 391.838329 342.475565 
L 377.442752 342.475565 
z
" clip-path="url(#p099101bc62)" style="fill: #ccebc5; stroke: #808080; stroke-linejoin: miter"/>
   </g>
   <g id="patch_29">
    <path d="M 401.435381 349.003282 
L 415.830958 349.003282 
L 415.830958 341.907938 
L 401.435381 341.907938 
z
" clip-path="url(#p099101bc62)" style="fill: #ccebc5; stroke: #808080; stroke-linejoin: miter"/>
   </g>
   <g id="patch_30">
    <path d="M 425.42801 320.621907 
L 439.823587 320.621907 
L 439.823587 320.26714 
L 425.42801 320.26714 
z
" clip-path="url(#p099101bc62)" style="fill: #ccebc5; stroke: #808080; stroke-linejoin: miter"/>
   </g>
   <g id="patch_31">
    <path d="M 449.420639 329.136319 
L 463.816216 329.136319 
L 463.816216 328.781552 
L 449.420639 328.781552 
z
" clip-path="url(#p099101bc62)" style="fill: #ccebc5; stroke: #808080; stroke-linejoin: miter"/>
   </g>
   <g id="patch_32">
    <path d="M 473.413268 178.85694 
L 487.808845 178.85694 
L 487.808845 178.502173 
L 473.413268 178.502173 
z
" clip-path="url(#p099101bc62)" style="fill: #ccebc5; stroke: #808080; stroke-linejoin: miter"/>
   </g>
   <g id="patch_33">
    <path d="M 353.450123 325.659601 
L 367.8457 325.659601 
L 367.8457 315.016585 
L 353.450123 315.016585 
z
" clip-path="url(#p099101bc62)" style="fill: #decbe4; stroke: #808080; stroke-linejoin: miter"/>
   </g>
   <g id="patch_34">
    <path d="M 377.442752 342.475565 
L 391.838329 342.475565 
L 391.838329 313.171796 
L 377.442752 313.171796 
z
" clip-path="url(#p099101bc62)" style="fill: #decbe4; stroke: #808080; stroke-linejoin: miter"/>
   </g>
   <g id="patch_35">
    <path d="M 401.435381 341.907938 
L 415.830958 341.907938 
L 415.830958 306.43122 
L 401.435381 306.43122 
z
" clip-path="url(#p099101bc62)" style="fill: #decbe4; stroke: #808080; stroke-linejoin: miter"/>
   </g>
   <g id="patch_36">
    <path d="M 425.42801 320.26714 
L 439.823587 320.26714 
L 439.823587 290.96337 
L 425.42801 290.96337 
z
" clip-path="url(#p099101bc62)" style="fill: #decbe4; stroke: #808080; stroke-linejoin: miter"/>
   </g>
   <g id="patch_37">
    <path d="M 449.420639 328.781552 
L 463.816216 328.781552 
L 463.816216 318.138537 
L 449.420639 318.138537 
z
" clip-path="url(#p099101bc62)" style="fill: #decbe4; stroke: #808080; stroke-linejoin: miter"/>
   </g>
   <g id="patch_38">
    <path d="M 473.413268 178.502173 
L 487.808845 178.502173 
L 487.808845 178.502173 
L 473.413268 178.502173 
z
" clip-path="url(#p099101bc62)" style="fill: #decbe4; stroke: #808080; stroke-linejoin: miter"/>
   </g>
   <g id="patch_39">
    <path d="M 545.391155 384.48 
L 559.786732 384.48 
L 559.786732 354.679557 
L 545.391155 354.679557 
z
" clip-path="url(#p099101bc62)" style="fill: #fbb4ae; stroke: #808080; stroke-linejoin: miter"/>
   </g>
   <g id="patch_40">
    <path d="M 569.383784 384.48 
L 583.779361 384.48 
L 583.779361 370.715033 
L 569.383784 370.715033 
z
" clip-path="url(#p099101bc62)" style="fill: #fbb4ae; stroke: #808080; stroke-linejoin: miter"/>
   </g>
   <g id="patch_41">
    <path d="M 593.376413 384.48 
L 607.77199 384.48 
L 607.77199 349.003282 
L 593.376413 349.003282 
z
" clip-path="url(#p099101bc62)" style="fill: #fbb4ae; stroke: #808080; stroke-linejoin: miter"/>
   </g>
   <g id="patch_42">
    <path d="M 617.369042 384.48 
L 631.764619 384.48 
L 631.764619 320.621907 
L 617.369042 320.621907 
z
" clip-path="url(#p099101bc62)" style="fill: #fbb4ae; stroke: #808080; stroke-linejoin: miter"/>
   </g>
   <g id="patch_43">
    <path d="M 641.361671 384.48 
L 655.757248 384.48 
L 655.757248 329.136319 
L 641.361671 329.136319 
z
" clip-path="url(#p099101bc62)" style="fill: #fbb4ae; stroke: #808080; stroke-linejoin: miter"/>
   </g>
   <g id="patch_44">
    <path d="M 665.3543 384.48 
L 679.749877 384.48 
L 679.749877 239.522129 
L 665.3543 239.522129 
z
" clip-path="url(#p099101bc62)" style="fill: #fbb4ae; stroke: #808080; stroke-linejoin: miter"/>
   </g>
   <g id="patch_45">
    <path d="M 545.391155 354.679557 
L 559.786732 354.679557 
L 559.786732 327.220576 
L 545.391155 327.220576 
z
" clip-path="url(#p099101bc62)" style="fill: #ccebc5; stroke: #808080; stroke-linejoin: miter"/>
   </g>
   <g id="patch_46">
    <path d="M 569.383784 370.715033 
L 583.779361 370.715033 
L 583.779361 343.256053 
L 569.383784 343.256053 
z
" clip-path="url(#p099101bc62)" style="fill: #ccebc5; stroke: #808080; stroke-linejoin: miter"/>
   </g>
   <g id="patch_47">
    <path d="M 593.376413 349.003282 
L 607.77199 349.003282 
L 607.77199 341.907938 
L 593.376413 341.907938 
z
" clip-path="url(#p099101bc62)" style="fill: #ccebc5; stroke: #808080; stroke-linejoin: miter"/>
   </g>
   <g id="patch_48">
    <path d="M 617.369042 320.621907 
L 631.764619 320.621907 
L 631.764619 320.26714 
L 617.369042 320.26714 
z
" clip-path="url(#p099101bc62)" style="fill: #ccebc5; stroke: #808080; stroke-linejoin: miter"/>
   </g>
   <g id="patch_49">
    <path d="M 641.361671 329.136319 
L 655.757248 329.136319 
L 655.757248 328.781552 
L 641.361671 328.781552 
z
" clip-path="url(#p099101bc62)" style="fill: #ccebc5; stroke: #808080; stroke-linejoin: miter"/>
   </g>
   <g id="patch_50">
    <path d="M 665.3543 239.522129 
L 679.749877 239.522129 
L 679.749877 239.167361 
L 665.3543 239.167361 
z
" clip-path="url(#p099101bc62)" style="fill: #ccebc5; stroke: #808080; stroke-linejoin: miter"/>
   </g>
   <g id="patch_51">
    <path d="M 545.391155 327.220576 
L 559.786732 327.220576 
L 559.786732 316.577561 
L 545.391155 316.577561 
z
" clip-path="url(#p099101bc62)" style="fill: #decbe4; stroke: #808080; stroke-linejoin: miter"/>
   </g>
   <g id="patch_52">
    <path d="M 569.383784 343.256053 
L 583.779361 343.256053 
L 583.779361 313.952284 
L 569.383784 313.952284 
z
" clip-path="url(#p099101bc62)" style="fill: #decbe4; stroke: #808080; stroke-linejoin: miter"/>
   </g>
   <g id="patch_53">
    <path d="M 593.376413 341.907938 
L 607.77199 341.907938 
L 607.77199 306.43122 
L 593.376413 306.43122 
z
" clip-path="url(#p099101bc62)" style="fill: #decbe4; stroke: #808080; stroke-linejoin: miter"/>
   </g>
   <g id="patch_54">
    <path d="M 617.369042 320.26714 
L 631.764619 320.26714 
L 631.764619 290.96337 
L 617.369042 290.96337 
z
" clip-path="url(#p099101bc62)" style="fill: #decbe4; stroke: #808080; stroke-linejoin: miter"/>
   </g>
   <g id="patch_55">
    <path d="M 641.361671 328.781552 
L 655.757248 328.781552 
L 655.757248 318.138537 
L 641.361671 318.138537 
z
" clip-path="url(#p099101bc62)" style="fill: #decbe4; stroke: #808080; stroke-linejoin: miter"/>
   </g>
   <g id="patch_56">
    <path d="M 665.3543 239.167361 
L 679.749877 239.167361 
L 679.749877 239.167361 
L 665.3543 239.167361 
z
" clip-path="url(#p099101bc62)" style="fill: #decbe4; stroke: #808080; stroke-linejoin: miter"/>
   </g>
   <g id="patch_57">
    <path d="M 737.332187 384.48 
L 751.727764 384.48 
L 751.727764 357.02102 
L 737.332187 357.02102 
z
" clip-path="url(#p099101bc62)" style="fill: #fbb4ae; stroke: #808080; stroke-linejoin: miter"/>
   </g>
   <g id="patch_58">
    <path d="M 761.324816 384.48 
L 775.720393 384.48 
L 775.720393 371.921242 
L 761.324816 371.921242 
z
" clip-path="url(#p099101bc62)" style="fill: #fbb4ae; stroke: #808080; stroke-linejoin: miter"/>
   </g>
   <g id="patch_59">
    <path d="M 785.317445 384.48 
L 799.713022 384.48 
L 799.713022 349.003282 
L 785.317445 349.003282 
z
" clip-path="url(#p099101bc62)" style="fill: #fbb4ae; stroke: #808080; stroke-linejoin: miter"/>
   </g>
   <g id="patch_60">
    <path d="M 809.310074 384.48 
L 823.705651 384.48 
L 823.705651 320.621907 
L 809.310074 320.621907 
z
" clip-path="url(#p099101bc62)" style="fill: #fbb4ae; stroke: #808080; stroke-linejoin: miter"/>
   </g>
   <g id="patch_61">
    <path d="M 833.302703 384.48 
L 847.69828 384.48 
L 847.69828 329.136319 
L 833.302703 329.136319 
z
" clip-path="url(#p099101bc62)" style="fill: #fbb4ae; stroke: #808080; stroke-linejoin: miter"/>
   </g>
   <g id="patch_62">
    <path d="M 857.295332 384.48 
L 871.690909 384.48 
L 871.690909 300.187317 
L 857.295332 300.187317 
z
" clip-path="url(#p099101bc62)" style="fill: #fbb4ae; stroke: #808080; stroke-linejoin: miter"/>
   </g>
   <g id="patch_63">
    <path d="M 737.332187 357.02102 
L 751.727764 357.02102 
L 751.727764 329.56204 
L 737.332187 329.56204 
z
" clip-path="url(#p099101bc62)" style="fill: #ccebc5; stroke: #808080; stroke-linejoin: miter"/>
   </g>
   <g id="patch_64">
    <path d="M 761.324816 371.921242 
L 775.720393 371.921242 
L 775.720393 344.462262 
L 761.324816 344.462262 
z
" clip-path="url(#p099101bc62)" style="fill: #ccebc5; stroke: #808080; stroke-linejoin: miter"/>
   </g>
   <g id="patch_65">
    <path d="M 785.317445 349.003282 
L 799.713022 349.003282 
L 799.713022 341.907938 
L 785.317445 341.907938 
z
" clip-path="url(#p099101bc62)" style="fill: #ccebc5; stroke: #808080; stroke-linejoin: miter"/>
   </g>
   <g id="patch_66">
    <path d="M 809.310074 320.621907 
L 823.705651 320.621907 
L 823.705651 320.26714 
L 809.310074 320.26714 
z
" clip-path="url(#p099101bc62)" style="fill: #ccebc5; stroke: #808080; stroke-linejoin: miter"/>
   </g>
   <g id="patch_67">
    <path d="M 833.302703 329.136319 
L 847.69828 329.136319 
L 847.69828 328.781552 
L 833.302703 328.781552 
z
" clip-path="url(#p099101bc62)" style="fill: #ccebc5; stroke: #808080; stroke-linejoin: miter"/>
   </g>
   <g id="patch_68">
    <path d="M 857.295332 300.187317 
L 871.690909 300.187317 
L 871.690909 299.83255 
L 857.295332 299.83255 
z
" clip-path="url(#p099101bc62)" style="fill: #ccebc5; stroke: #808080; stroke-linejoin: miter"/>
   </g>
   <g id="patch_69">
    <path d="M 737.332187 329.56204 
L 751.727764 329.56204 
L 751.727764 318.919024 
L 737.332187 318.919024 
z
" clip-path="url(#p099101bc62)" style="fill: #decbe4; stroke: #808080; stroke-linejoin: miter"/>
   </g>
   <g id="patch_70">
    <path d="M 761.324816 344.462262 
L 775.720393 344.462262 
L 775.720393 315.158492 
L 761.324816 315.158492 
z
" clip-path="url(#p099101bc62)" style="fill: #decbe4; stroke: #808080; stroke-linejoin: miter"/>
   </g>
   <g id="patch_71">
    <path d="M 785.317445 341.907938 
L 799.713022 341.907938 
L 799.713022 306.43122 
L 785.317445 306.43122 
z
" clip-path="url(#p099101bc62)" style="fill: #decbe4; stroke: #808080; stroke-linejoin: miter"/>
   </g>
   <g id="patch_72">
    <path d="M 809.310074 320.26714 
L 823.705651 320.26714 
L 823.705651 290.96337 
L 809.310074 290.96337 
z
" clip-path="url(#p099101bc62)" style="fill: #decbe4; stroke: #808080; stroke-linejoin: miter"/>
   </g>
   <g id="patch_73">
    <path d="M 833.302703 328.781552 
L 847.69828 328.781552 
L 847.69828 318.138537 
L 833.302703 318.138537 
z
" clip-path="url(#p099101bc62)" style="fill: #decbe4; stroke: #808080; stroke-linejoin: miter"/>
   </g>
   <g id="patch_74">
    <path d="M 857.295332 299.83255 
L 871.690909 299.83255 
L 871.690909 299.83255 
L 857.295332 299.83255 
z
" clip-path="url(#p099101bc62)" style="fill: #decbe4; stroke: #808080; stroke-linejoin: miter"/>
   </g>
   <g id="matplotlib.axis_1">
    <g id="xtick_1">
     <g id="line2d_1">
      <defs>
       <path id="m570205a0d1" d="M 0 0 
L 0 3.5 
" style="stroke: #000000; stroke-width: 0.8"/>
      </defs>
      <g>
       <use xlink:href="#m570205a0d1" x="168.70688" y="384.48" style="stroke: #000000; stroke-width: 0.8"/>
      </g>
     </g>
     <g id="text_1">
      <!-- Diesel -->
      <g transform="translate(145.477317 418.611908) rotate(-45) scale(0.1 -0.1)">
       <defs>
        <path id="DejaVuSans-44" d="M 1259 4147 
L 1259 519 
L 2022 519 
Q 2988 519 3436 956 
Q 3884 1394 3884 2338 
Q 3884 3275 3436 3711 
Q 2988 4147 2022 4147 
L 1259 4147 
z
M 628 4666 
L 1925 4666 
Q 3281 4666 3915 4102 
Q 4550 3538 4550 2338 
Q 4550 1131 3912 565 
Q 3275 0 1925 0 
L 628 0 
L 628 4666 
z
" transform="scale(0.015625)"/>
        <path id="DejaVuSans-69" d="M 603 3500 
L 1178 3500 
L 1178 0 
L 603 0 
L 603 3500 
z
M 603 4863 
L 1178 4863 
L 1178 4134 
L 603 4134 
L 603 4863 
z
" transform="scale(0.015625)"/>
        <path id="DejaVuSans-65" d="M 3597 1894 
L 3597 1613 
L 953 1613 
Q 991 1019 1311 708 
Q 1631 397 2203 397 
Q 2534 397 2845 478 
Q 3156 559 3463 722 
L 3463 178 
Q 3153 47 2828 -22 
Q 2503 -91 2169 -91 
Q 1331 -91 842 396 
Q 353 884 353 1716 
Q 353 2575 817 3079 
Q 1281 3584 2069 3584 
Q 2775 3584 3186 3129 
Q 3597 2675 3597 1894 
z
M 3022 2063 
Q 3016 2534 2758 2815 
Q 2500 3097 2075 3097 
Q 1594 3097 1305 2825 
Q 1016 2553 972 2059 
L 3022 2063 
z
" transform="scale(0.015625)"/>
        <path id="DejaVuSans-73" d="M 2834 3397 
L 2834 2853 
Q 2591 2978 2328 3040 
Q 2066 3103 1784 3103 
Q 1356 3103 1142 2972 
Q 928 2841 928 2578 
Q 928 2378 1081 2264 
Q 1234 2150 1697 2047 
L 1894 2003 
Q 2506 1872 2764 1633 
Q 3022 1394 3022 966 
Q 3022 478 2636 193 
Q 2250 -91 1575 -91 
Q 1294 -91 989 -36 
Q 684 19 347 128 
L 347 722 
Q 666 556 975 473 
Q 1284 391 1588 391 
Q 1994 391 2212 530 
Q 2431 669 2431 922 
Q 2431 1156 2273 1281 
Q 2116 1406 1581 1522 
L 1381 1569 
Q 847 1681 609 1914 
Q 372 2147 372 2553 
Q 372 3047 722 3315 
Q 1072 3584 1716 3584 
Q 2034 3584 2315 3537 
Q 2597 3491 2834 3397 
z
" transform="scale(0.015625)"/>
        <path id="DejaVuSans-6c" d="M 603 4863 
L 1178 4863 
L 1178 0 
L 603 0 
L 603 4863 
z
" transform="scale(0.015625)"/>
       </defs>
       <use xlink:href="#DejaVuSans-44"/>
       <use xlink:href="#DejaVuSans-69" x="77.001953"/>
       <use xlink:href="#DejaVuSans-65" x="104.785156"/>
       <use xlink:href="#DejaVuSans-73" x="166.308594"/>
       <use xlink:href="#DejaVuSans-65" x="218.408203"/>
       <use xlink:href="#DejaVuSans-6c" x="279.931641"/>
      </g>
     </g>
    </g>
    <g id="xtick_2">
     <g id="line2d_2">
      <g>
       <use xlink:href="#m570205a0d1" x="192.699509" y="384.48" style="stroke: #000000; stroke-width: 0.8"/>
      </g>
     </g>
     <g id="text_2">
      <!-- CNG -->
      <g transform="translate(175.522338 412.559516) rotate(-45) scale(0.1 -0.1)">
       <defs>
        <path id="DejaVuSans-43" d="M 4122 4306 
L 4122 3641 
Q 3803 3938 3442 4084 
Q 3081 4231 2675 4231 
Q 1875 4231 1450 3742 
Q 1025 3253 1025 2328 
Q 1025 1406 1450 917 
Q 1875 428 2675 428 
Q 3081 428 3442 575 
Q 3803 722 4122 1019 
L 4122 359 
Q 3791 134 3420 21 
Q 3050 -91 2638 -91 
Q 1578 -91 968 557 
Q 359 1206 359 2328 
Q 359 3453 968 4101 
Q 1578 4750 2638 4750 
Q 3056 4750 3426 4639 
Q 3797 4528 4122 4306 
z
" transform="scale(0.015625)"/>
        <path id="DejaVuSans-4e" d="M 628 4666 
L 1478 4666 
L 3547 763 
L 3547 4666 
L 4159 4666 
L 4159 0 
L 3309 0 
L 1241 3903 
L 1241 0 
L 628 0 
L 628 4666 
z
" transform="scale(0.015625)"/>
        <path id="DejaVuSans-47" d="M 3809 666 
L 3809 1919 
L 2778 1919 
L 2778 2438 
L 4434 2438 
L 4434 434 
Q 4069 175 3628 42 
Q 3188 -91 2688 -91 
Q 1594 -91 976 548 
Q 359 1188 359 2328 
Q 359 3472 976 4111 
Q 1594 4750 2688 4750 
Q 3144 4750 3555 4637 
Q 3966 4525 4313 4306 
L 4313 3634 
Q 3963 3931 3569 4081 
Q 3175 4231 2741 4231 
Q 1884 4231 1454 3753 
Q 1025 3275 1025 2328 
Q 1025 1384 1454 906 
Q 1884 428 2741 428 
Q 3075 428 3337 486 
Q 3600 544 3809 666 
z
" transform="scale(0.015625)"/>
       </defs>
       <use xlink:href="#DejaVuSans-43"/>
       <use xlink:href="#DejaVuSans-4e" x="69.824219"/>
       <use xlink:href="#DejaVuSans-47" x="144.628906"/>
      </g>
     </g>
    </g>
    <g id="xtick_3">
     <g id="line2d_3">
      <g>
       <use xlink:href="#m570205a0d1" x="216.692138" y="384.48" style="stroke: #000000; stroke-width: 0.8"/>
      </g>
     </g>
     <g id="text_3">
      <!-- Electricity -->
      <g transform="translate(180.097152 431.977331) rotate(-45) scale(0.1 -0.1)">
       <defs>
        <path id="DejaVuSans-45" d="M 628 4666 
L 3578 4666 
L 3578 4134 
L 1259 4134 
L 1259 2753 
L 3481 2753 
L 3481 2222 
L 1259 2222 
L 1259 531 
L 3634 531 
L 3634 0 
L 628 0 
L 628 4666 
z
" transform="scale(0.015625)"/>
        <path id="DejaVuSans-63" d="M 3122 3366 
L 3122 2828 
Q 2878 2963 2633 3030 
Q 2388 3097 2138 3097 
Q 1578 3097 1268 2742 
Q 959 2388 959 1747 
Q 959 1106 1268 751 
Q 1578 397 2138 397 
Q 2388 397 2633 464 
Q 2878 531 3122 666 
L 3122 134 
Q 2881 22 2623 -34 
Q 2366 -91 2075 -91 
Q 1284 -91 818 406 
Q 353 903 353 1747 
Q 353 2603 823 3093 
Q 1294 3584 2113 3584 
Q 2378 3584 2631 3529 
Q 2884 3475 3122 3366 
z
" transform="scale(0.015625)"/>
        <path id="DejaVuSans-74" d="M 1172 4494 
L 1172 3500 
L 2356 3500 
L 2356 3053 
L 1172 3053 
L 1172 1153 
Q 1172 725 1289 603 
Q 1406 481 1766 481 
L 2356 481 
L 2356 0 
L 1766 0 
Q 1100 0 847 248 
Q 594 497 594 1153 
L 594 3053 
L 172 3053 
L 172 3500 
L 594 3500 
L 594 4494 
L 1172 4494 
z
" transform="scale(0.015625)"/>
        <path id="DejaVuSans-72" d="M 2631 2963 
Q 2534 3019 2420 3045 
Q 2306 3072 2169 3072 
Q 1681 3072 1420 2755 
Q 1159 2438 1159 1844 
L 1159 0 
L 581 0 
L 581 3500 
L 1159 3500 
L 1159 2956 
Q 1341 3275 1631 3429 
Q 1922 3584 2338 3584 
Q 2397 3584 2469 3576 
Q 2541 3569 2628 3553 
L 2631 2963 
z
" transform="scale(0.015625)"/>
        <path id="DejaVuSans-79" d="M 2059 -325 
Q 1816 -950 1584 -1140 
Q 1353 -1331 966 -1331 
L 506 -1331 
L 506 -850 
L 844 -850 
Q 1081 -850 1212 -737 
Q 1344 -625 1503 -206 
L 1606 56 
L 191 3500 
L 800 3500 
L 1894 763 
L 2988 3500 
L 3597 3500 
L 2059 -325 
z
" transform="scale(0.015625)"/>
       </defs>
       <use xlink:href="#DejaVuSans-45"/>
       <use xlink:href="#DejaVuSans-6c" x="63.183594"/>
       <use xlink:href="#DejaVuSans-65" x="90.966797"/>
       <use xlink:href="#DejaVuSans-63" x="152.490234"/>
       <use xlink:href="#DejaVuSans-74" x="207.470703"/>
       <use xlink:href="#DejaVuSans-72" x="246.679688"/>
       <use xlink:href="#DejaVuSans-69" x="287.792969"/>
       <use xlink:href="#DejaVuSans-63" x="315.576172"/>
       <use xlink:href="#DejaVuSans-69" x="370.556641"/>
       <use xlink:href="#DejaVuSans-74" x="398.339844"/>
       <use xlink:href="#DejaVuSans-79" x="437.548828"/>
      </g>
     </g>
    </g>
    <g id="xtick_4">
     <g id="line2d_4">
      <g>
       <use xlink:href="#m570205a0d1" x="240.684767" y="384.48" style="stroke: #000000; stroke-width: 0.8"/>
      </g>
     </g>
     <g id="text_4">
      <!-- Biomethane -->
      <g transform="translate(196.414358 439.652754) rotate(-45) scale(0.1 -0.1)">
       <defs>
        <path id="DejaVuSans-42" d="M 1259 2228 
L 1259 519 
L 2272 519 
Q 2781 519 3026 730 
Q 3272 941 3272 1375 
Q 3272 1813 3026 2020 
Q 2781 2228 2272 2228 
L 1259 2228 
z
M 1259 4147 
L 1259 2741 
L 2194 2741 
Q 2656 2741 2882 2914 
Q 3109 3088 3109 3444 
Q 3109 3797 2882 3972 
Q 2656 4147 2194 4147 
L 1259 4147 
z
M 628 4666 
L 2241 4666 
Q 2963 4666 3353 4366 
Q 3744 4066 3744 3513 
Q 3744 3084 3544 2831 
Q 3344 2578 2956 2516 
Q 3422 2416 3680 2098 
Q 3938 1781 3938 1306 
Q 3938 681 3513 340 
Q 3088 0 2303 0 
L 628 0 
L 628 4666 
z
" transform="scale(0.015625)"/>
        <path id="DejaVuSans-6f" d="M 1959 3097 
Q 1497 3097 1228 2736 
Q 959 2375 959 1747 
Q 959 1119 1226 758 
Q 1494 397 1959 397 
Q 2419 397 2687 759 
Q 2956 1122 2956 1747 
Q 2956 2369 2687 2733 
Q 2419 3097 1959 3097 
z
M 1959 3584 
Q 2709 3584 3137 3096 
Q 3566 2609 3566 1747 
Q 3566 888 3137 398 
Q 2709 -91 1959 -91 
Q 1206 -91 779 398 
Q 353 888 353 1747 
Q 353 2609 779 3096 
Q 1206 3584 1959 3584 
z
" transform="scale(0.015625)"/>
        <path id="DejaVuSans-6d" d="M 3328 2828 
Q 3544 3216 3844 3400 
Q 4144 3584 4550 3584 
Q 5097 3584 5394 3201 
Q 5691 2819 5691 2113 
L 5691 0 
L 5113 0 
L 5113 2094 
Q 5113 2597 4934 2840 
Q 4756 3084 4391 3084 
Q 3944 3084 3684 2787 
Q 3425 2491 3425 1978 
L 3425 0 
L 2847 0 
L 2847 2094 
Q 2847 2600 2669 2842 
Q 2491 3084 2119 3084 
Q 1678 3084 1418 2786 
Q 1159 2488 1159 1978 
L 1159 0 
L 581 0 
L 581 3500 
L 1159 3500 
L 1159 2956 
Q 1356 3278 1631 3431 
Q 1906 3584 2284 3584 
Q 2666 3584 2933 3390 
Q 3200 3197 3328 2828 
z
" transform="scale(0.015625)"/>
        <path id="DejaVuSans-68" d="M 3513 2113 
L 3513 0 
L 2938 0 
L 2938 2094 
Q 2938 2591 2744 2837 
Q 2550 3084 2163 3084 
Q 1697 3084 1428 2787 
Q 1159 2491 1159 1978 
L 1159 0 
L 581 0 
L 581 4863 
L 1159 4863 
L 1159 2956 
Q 1366 3272 1645 3428 
Q 1925 3584 2291 3584 
Q 2894 3584 3203 3211 
Q 3513 2838 3513 2113 
z
" transform="scale(0.015625)"/>
        <path id="DejaVuSans-61" d="M 2194 1759 
Q 1497 1759 1228 1600 
Q 959 1441 959 1056 
Q 959 750 1161 570 
Q 1363 391 1709 391 
Q 2188 391 2477 730 
Q 2766 1069 2766 1631 
L 2766 1759 
L 2194 1759 
z
M 3341 1997 
L 3341 0 
L 2766 0 
L 2766 531 
Q 2569 213 2275 61 
Q 1981 -91 1556 -91 
Q 1019 -91 701 211 
Q 384 513 384 1019 
Q 384 1609 779 1909 
Q 1175 2209 1959 2209 
L 2766 2209 
L 2766 2266 
Q 2766 2663 2505 2880 
Q 2244 3097 1772 3097 
Q 1472 3097 1187 3025 
Q 903 2953 641 2809 
L 641 3341 
Q 956 3463 1253 3523 
Q 1550 3584 1831 3584 
Q 2591 3584 2966 3190 
Q 3341 2797 3341 1997 
z
" transform="scale(0.015625)"/>
        <path id="DejaVuSans-6e" d="M 3513 2113 
L 3513 0 
L 2938 0 
L 2938 2094 
Q 2938 2591 2744 2837 
Q 2550 3084 2163 3084 
Q 1697 3084 1428 2787 
Q 1159 2491 1159 1978 
L 1159 0 
L 581 0 
L 581 3500 
L 1159 3500 
L 1159 2956 
Q 1366 3272 1645 3428 
Q 1925 3584 2291 3584 
Q 2894 3584 3203 3211 
Q 3513 2838 3513 2113 
z
" transform="scale(0.015625)"/>
       </defs>
       <use xlink:href="#DejaVuSans-42"/>
       <use xlink:href="#DejaVuSans-69" x="68.603516"/>
       <use xlink:href="#DejaVuSans-6f" x="96.386719"/>
       <use xlink:href="#DejaVuSans-6d" x="157.568359"/>
       <use xlink:href="#DejaVuSans-65" x="254.980469"/>
       <use xlink:href="#DejaVuSans-74" x="316.503906"/>
       <use xlink:href="#DejaVuSans-68" x="355.712891"/>
       <use xlink:href="#DejaVuSans-61" x="419.091797"/>
       <use xlink:href="#DejaVuSans-6e" x="480.371094"/>
       <use xlink:href="#DejaVuSans-65" x="543.75"/>
      </g>
     </g>
    </g>
    <g id="xtick_5">
     <g id="line2d_5">
      <g>
       <use xlink:href="#m570205a0d1" x="264.677396" y="384.48" style="stroke: #000000; stroke-width: 0.8"/>
      </g>
     </g>
     <g id="text_5">
      <!-- HVO -->
      <g transform="translate(247.609606 412.450135) rotate(-45) scale(0.1 -0.1)">
       <defs>
        <path id="DejaVuSans-48" d="M 628 4666 
L 1259 4666 
L 1259 2753 
L 3553 2753 
L 3553 4666 
L 4184 4666 
L 4184 0 
L 3553 0 
L 3553 2222 
L 1259 2222 
L 1259 0 
L 628 0 
L 628 4666 
z
" transform="scale(0.015625)"/>
        <path id="DejaVuSans-56" d="M 1831 0 
L 50 4666 
L 709 4666 
L 2188 738 
L 3669 4666 
L 4325 4666 
L 2547 0 
L 1831 0 
z
" transform="scale(0.015625)"/>
        <path id="DejaVuSans-4f" d="M 2522 4238 
Q 1834 4238 1429 3725 
Q 1025 3213 1025 2328 
Q 1025 1447 1429 934 
Q 1834 422 2522 422 
Q 3209 422 3611 934 
Q 4013 1447 4013 2328 
Q 4013 3213 3611 3725 
Q 3209 4238 2522 4238 
z
M 2522 4750 
Q 3503 4750 4090 4092 
Q 4678 3434 4678 2328 
Q 4678 1225 4090 567 
Q 3503 -91 2522 -91 
Q 1538 -91 948 565 
Q 359 1222 359 2328 
Q 359 3434 948 4092 
Q 1538 4750 2522 4750 
z
" transform="scale(0.015625)"/>
       </defs>
       <use xlink:href="#DejaVuSans-48"/>
       <use xlink:href="#DejaVuSans-56" x="75.195312"/>
       <use xlink:href="#DejaVuSans-4f" x="141.853516"/>
      </g>
     </g>
    </g>
    <g id="xtick_6">
     <g id="line2d_6">
      <g>
       <use xlink:href="#m570205a0d1" x="288.670025" y="384.48" style="stroke: #000000; stroke-width: 0.8"/>
      </g>
     </g>
     <g id="text_6">
      <!-- H2 -->
      <g transform="translate(277.382833 406.669538) rotate(-45) scale(0.1 -0.1)">
       <defs>
        <path id="DejaVuSans-32" d="M 1228 531 
L 3431 531 
L 3431 0 
L 469 0 
L 469 531 
Q 828 903 1448 1529 
Q 2069 2156 2228 2338 
Q 2531 2678 2651 2914 
Q 2772 3150 2772 3378 
Q 2772 3750 2511 3984 
Q 2250 4219 1831 4219 
Q 1534 4219 1204 4116 
Q 875 4013 500 3803 
L 500 4441 
Q 881 4594 1212 4672 
Q 1544 4750 1819 4750 
Q 2544 4750 2975 4387 
Q 3406 4025 3406 3419 
Q 3406 3131 3298 2873 
Q 3191 2616 2906 2266 
Q 2828 2175 2409 1742 
Q 1991 1309 1228 531 
z
" transform="scale(0.015625)"/>
       </defs>
       <use xlink:href="#DejaVuSans-48"/>
       <use xlink:href="#DejaVuSans-32" x="75.195312"/>
      </g>
     </g>
    </g>
    <g id="xtick_7">
     <g id="line2d_7">
      <g>
       <use xlink:href="#m570205a0d1" x="360.647912" y="384.48" style="stroke: #000000; stroke-width: 0.8"/>
      </g>
     </g>
     <g id="text_7">
      <!-- Diesel -->
      <g transform="translate(337.418349 418.611908) rotate(-45) scale(0.1 -0.1)">
       <use xlink:href="#DejaVuSans-44"/>
       <use xlink:href="#DejaVuSans-69" x="77.001953"/>
       <use xlink:href="#DejaVuSans-65" x="104.785156"/>
       <use xlink:href="#DejaVuSans-73" x="166.308594"/>
       <use xlink:href="#DejaVuSans-65" x="218.408203"/>
       <use xlink:href="#DejaVuSans-6c" x="279.931641"/>
      </g>
     </g>
    </g>
    <g id="xtick_8">
     <g id="line2d_8">
      <g>
       <use xlink:href="#m570205a0d1" x="384.640541" y="384.48" style="stroke: #000000; stroke-width: 0.8"/>
      </g>
     </g>
     <g id="text_8">
      <!-- CNG -->
      <g transform="translate(367.46337 412.559516) rotate(-45) scale(0.1 -0.1)">
       <use xlink:href="#DejaVuSans-43"/>
       <use xlink:href="#DejaVuSans-4e" x="69.824219"/>
       <use xlink:href="#DejaVuSans-47" x="144.628906"/>
      </g>
     </g>
    </g>
    <g id="xtick_9">
     <g id="line2d_9">
      <g>
       <use xlink:href="#m570205a0d1" x="408.63317" y="384.48" style="stroke: #000000; stroke-width: 0.8"/>
      </g>
     </g>
     <g id="text_9">
      <!-- Electricity -->
      <g transform="translate(372.038184 431.977331) rotate(-45) scale(0.1 -0.1)">
       <use xlink:href="#DejaVuSans-45"/>
       <use xlink:href="#DejaVuSans-6c" x="63.183594"/>
       <use xlink:href="#DejaVuSans-65" x="90.966797"/>
       <use xlink:href="#DejaVuSans-63" x="152.490234"/>
       <use xlink:href="#DejaVuSans-74" x="207.470703"/>
       <use xlink:href="#DejaVuSans-72" x="246.679688"/>
       <use xlink:href="#DejaVuSans-69" x="287.792969"/>
       <use xlink:href="#DejaVuSans-63" x="315.576172"/>
       <use xlink:href="#DejaVuSans-69" x="370.556641"/>
       <use xlink:href="#DejaVuSans-74" x="398.339844"/>
       <use xlink:href="#DejaVuSans-79" x="437.548828"/>
      </g>
     </g>
    </g>
    <g id="xtick_10">
     <g id="line2d_10">
      <g>
       <use xlink:href="#m570205a0d1" x="432.625799" y="384.48" style="stroke: #000000; stroke-width: 0.8"/>
      </g>
     </g>
     <g id="text_10">
      <!-- Biomethane -->
      <g transform="translate(388.35539 439.652754) rotate(-45) scale(0.1 -0.1)">
       <use xlink:href="#DejaVuSans-42"/>
       <use xlink:href="#DejaVuSans-69" x="68.603516"/>
       <use xlink:href="#DejaVuSans-6f" x="96.386719"/>
       <use xlink:href="#DejaVuSans-6d" x="157.568359"/>
       <use xlink:href="#DejaVuSans-65" x="254.980469"/>
       <use xlink:href="#DejaVuSans-74" x="316.503906"/>
       <use xlink:href="#DejaVuSans-68" x="355.712891"/>
       <use xlink:href="#DejaVuSans-61" x="419.091797"/>
       <use xlink:href="#DejaVuSans-6e" x="480.371094"/>
       <use xlink:href="#DejaVuSans-65" x="543.75"/>
      </g>
     </g>
    </g>
    <g id="xtick_11">
     <g id="line2d_11">
      <g>
       <use xlink:href="#m570205a0d1" x="456.618428" y="384.48" style="stroke: #000000; stroke-width: 0.8"/>
      </g>
     </g>
     <g id="text_11">
      <!-- HVO -->
      <g transform="translate(439.550638 412.450135) rotate(-45) scale(0.1 -0.1)">
       <use xlink:href="#DejaVuSans-48"/>
       <use xlink:href="#DejaVuSans-56" x="75.195312"/>
       <use xlink:href="#DejaVuSans-4f" x="141.853516"/>
      </g>
     </g>
    </g>
    <g id="xtick_12">
     <g id="line2d_12">
      <g>
       <use xlink:href="#m570205a0d1" x="480.611057" y="384.48" style="stroke: #000000; stroke-width: 0.8"/>
      </g>
     </g>
     <g id="text_12">
      <!-- H2 -->
      <g transform="translate(469.323865 406.669538) rotate(-45) scale(0.1 -0.1)">
       <use xlink:href="#DejaVuSans-48"/>
       <use xlink:href="#DejaVuSans-32" x="75.195312"/>
      </g>
     </g>
    </g>
    <g id="xtick_13">
     <g id="line2d_13">
      <g>
       <use xlink:href="#m570205a0d1" x="552.588943" y="384.48" style="stroke: #000000; stroke-width: 0.8"/>
      </g>
     </g>
     <g id="text_13">
      <!-- Diesel -->
      <g transform="translate(529.359381 418.611908) rotate(-45) scale(0.1 -0.1)">
       <use xlink:href="#DejaVuSans-44"/>
       <use xlink:href="#DejaVuSans-69" x="77.001953"/>
       <use xlink:href="#DejaVuSans-65" x="104.785156"/>
       <use xlink:href="#DejaVuSans-73" x="166.308594"/>
       <use xlink:href="#DejaVuSans-65" x="218.408203"/>
       <use xlink:href="#DejaVuSans-6c" x="279.931641"/>
      </g>
     </g>
    </g>
    <g id="xtick_14">
     <g id="line2d_14">
      <g>
       <use xlink:href="#m570205a0d1" x="576.581572" y="384.48" style="stroke: #000000; stroke-width: 0.8"/>
      </g>
     </g>
     <g id="text_14">
      <!-- CNG -->
      <g transform="translate(559.404402 412.559516) rotate(-45) scale(0.1 -0.1)">
       <use xlink:href="#DejaVuSans-43"/>
       <use xlink:href="#DejaVuSans-4e" x="69.824219"/>
       <use xlink:href="#DejaVuSans-47" x="144.628906"/>
      </g>
     </g>
    </g>
    <g id="xtick_15">
     <g id="line2d_15">
      <g>
       <use xlink:href="#m570205a0d1" x="600.574201" y="384.48" style="stroke: #000000; stroke-width: 0.8"/>
      </g>
     </g>
     <g id="text_15">
      <!-- Electricity -->
      <g transform="translate(563.979216 431.977331) rotate(-45) scale(0.1 -0.1)">
       <use xlink:href="#DejaVuSans-45"/>
       <use xlink:href="#DejaVuSans-6c" x="63.183594"/>
       <use xlink:href="#DejaVuSans-65" x="90.966797"/>
       <use xlink:href="#DejaVuSans-63" x="152.490234"/>
       <use xlink:href="#DejaVuSans-74" x="207.470703"/>
       <use xlink:href="#DejaVuSans-72" x="246.679688"/>
       <use xlink:href="#DejaVuSans-69" x="287.792969"/>
       <use xlink:href="#DejaVuSans-63" x="315.576172"/>
       <use xlink:href="#DejaVuSans-69" x="370.556641"/>
       <use xlink:href="#DejaVuSans-74" x="398.339844"/>
       <use xlink:href="#DejaVuSans-79" x="437.548828"/>
      </g>
     </g>
    </g>
    <g id="xtick_16">
     <g id="line2d_16">
      <g>
       <use xlink:href="#m570205a0d1" x="624.56683" y="384.48" style="stroke: #000000; stroke-width: 0.8"/>
      </g>
     </g>
     <g id="text_16">
      <!-- Biomethane -->
      <g transform="translate(580.296422 439.652754) rotate(-45) scale(0.1 -0.1)">
       <use xlink:href="#DejaVuSans-42"/>
       <use xlink:href="#DejaVuSans-69" x="68.603516"/>
       <use xlink:href="#DejaVuSans-6f" x="96.386719"/>
       <use xlink:href="#DejaVuSans-6d" x="157.568359"/>
       <use xlink:href="#DejaVuSans-65" x="254.980469"/>
       <use xlink:href="#DejaVuSans-74" x="316.503906"/>
       <use xlink:href="#DejaVuSans-68" x="355.712891"/>
       <use xlink:href="#DejaVuSans-61" x="419.091797"/>
       <use xlink:href="#DejaVuSans-6e" x="480.371094"/>
       <use xlink:href="#DejaVuSans-65" x="543.75"/>
      </g>
     </g>
    </g>
    <g id="xtick_17">
     <g id="line2d_17">
      <g>
       <use xlink:href="#m570205a0d1" x="648.559459" y="384.48" style="stroke: #000000; stroke-width: 0.8"/>
      </g>
     </g>
     <g id="text_17">
      <!-- HVO -->
      <g transform="translate(631.49167 412.450135) rotate(-45) scale(0.1 -0.1)">
       <use xlink:href="#DejaVuSans-48"/>
       <use xlink:href="#DejaVuSans-56" x="75.195312"/>
       <use xlink:href="#DejaVuSans-4f" x="141.853516"/>
      </g>
     </g>
    </g>
    <g id="xtick_18">
     <g id="line2d_18">
      <g>
       <use xlink:href="#m570205a0d1" x="672.552088" y="384.48" style="stroke: #000000; stroke-width: 0.8"/>
      </g>
     </g>
     <g id="text_18">
      <!-- H2 -->
      <g transform="translate(661.264896 406.669538) rotate(-45) scale(0.1 -0.1)">
       <use xlink:href="#DejaVuSans-48"/>
       <use xlink:href="#DejaVuSans-32" x="75.195312"/>
      </g>
     </g>
    </g>
    <g id="xtick_19">
     <g id="line2d_19">
      <g>
       <use xlink:href="#m570205a0d1" x="744.529975" y="384.48" style="stroke: #000000; stroke-width: 0.8"/>
      </g>
     </g>
     <g id="text_19">
      <!-- Diesel -->
      <g transform="translate(721.300413 418.611908) rotate(-45) scale(0.1 -0.1)">
       <use xlink:href="#DejaVuSans-44"/>
       <use xlink:href="#DejaVuSans-69" x="77.001953"/>
       <use xlink:href="#DejaVuSans-65" x="104.785156"/>
       <use xlink:href="#DejaVuSans-73" x="166.308594"/>
       <use xlink:href="#DejaVuSans-65" x="218.408203"/>
       <use xlink:href="#DejaVuSans-6c" x="279.931641"/>
      </g>
     </g>
    </g>
    <g id="xtick_20">
     <g id="line2d_20">
      <g>
       <use xlink:href="#m570205a0d1" x="768.522604" y="384.48" style="stroke: #000000; stroke-width: 0.8"/>
      </g>
     </g>
     <g id="text_20">
      <!-- CNG -->
      <g transform="translate(751.345434 412.559516) rotate(-45) scale(0.1 -0.1)">
       <use xlink:href="#DejaVuSans-43"/>
       <use xlink:href="#DejaVuSans-4e" x="69.824219"/>
       <use xlink:href="#DejaVuSans-47" x="144.628906"/>
      </g>
     </g>
    </g>
    <g id="xtick_21">
     <g id="line2d_21">
      <g>
       <use xlink:href="#m570205a0d1" x="792.515233" y="384.48" style="stroke: #000000; stroke-width: 0.8"/>
      </g>
     </g>
     <g id="text_21">
      <!-- Electricity -->
      <g transform="translate(755.920248 431.977331) rotate(-45) scale(0.1 -0.1)">
       <use xlink:href="#DejaVuSans-45"/>
       <use xlink:href="#DejaVuSans-6c" x="63.183594"/>
       <use xlink:href="#DejaVuSans-65" x="90.966797"/>
       <use xlink:href="#DejaVuSans-63" x="152.490234"/>
       <use xlink:href="#DejaVuSans-74" x="207.470703"/>
       <use xlink:href="#DejaVuSans-72" x="246.679688"/>
       <use xlink:href="#DejaVuSans-69" x="287.792969"/>
       <use xlink:href="#DejaVuSans-63" x="315.576172"/>
       <use xlink:href="#DejaVuSans-69" x="370.556641"/>
       <use xlink:href="#DejaVuSans-74" x="398.339844"/>
       <use xlink:href="#DejaVuSans-79" x="437.548828"/>
      </g>
     </g>
    </g>
    <g id="xtick_22">
     <g id="line2d_22">
      <g>
       <use xlink:href="#m570205a0d1" x="816.507862" y="384.48" style="stroke: #000000; stroke-width: 0.8"/>
      </g>
     </g>
     <g id="text_22">
      <!-- Biomethane -->
      <g transform="translate(772.237454 439.652754) rotate(-45) scale(0.1 -0.1)">
       <use xlink:href="#DejaVuSans-42"/>
       <use xlink:href="#DejaVuSans-69" x="68.603516"/>
       <use xlink:href="#DejaVuSans-6f" x="96.386719"/>
       <use xlink:href="#DejaVuSans-6d" x="157.568359"/>
       <use xlink:href="#DejaVuSans-65" x="254.980469"/>
       <use xlink:href="#DejaVuSans-74" x="316.503906"/>
       <use xlink:href="#DejaVuSans-68" x="355.712891"/>
       <use xlink:href="#DejaVuSans-61" x="419.091797"/>
       <use xlink:href="#DejaVuSans-6e" x="480.371094"/>
       <use xlink:href="#DejaVuSans-65" x="543.75"/>
      </g>
     </g>
    </g>
    <g id="xtick_23">
     <g id="line2d_23">
      <g>
       <use xlink:href="#m570205a0d1" x="840.500491" y="384.48" style="stroke: #000000; stroke-width: 0.8"/>
      </g>
     </g>
     <g id="text_23">
      <!-- HVO -->
      <g transform="translate(823.432701 412.450135) rotate(-45) scale(0.1 -0.1)">
       <use xlink:href="#DejaVuSans-48"/>
       <use xlink:href="#DejaVuSans-56" x="75.195312"/>
       <use xlink:href="#DejaVuSans-4f" x="141.853516"/>
      </g>
     </g>
    </g>
    <g id="xtick_24">
     <g id="line2d_24">
      <g>
       <use xlink:href="#m570205a0d1" x="864.49312" y="384.48" style="stroke: #000000; stroke-width: 0.8"/>
      </g>
     </g>
     <g id="text_24">
      <!-- H2 -->
      <g transform="translate(853.205928 406.669538) rotate(-45) scale(0.1 -0.1)">
       <use xlink:href="#DejaVuSans-48"/>
       <use xlink:href="#DejaVuSans-32" x="75.195312"/>
      </g>
     </g>
    </g>
   </g>
   <g id="matplotlib.axis_2">
    <g id="ytick_1">
     <g id="line2d_25"/>
     <g id="line2d_26">
      <defs>
       <path id="m2c7872eb3f" d="M 0 0 
L -3.5 0 
" style="stroke: #000000; stroke-width: 0.8"/>
      </defs>
      <g>
       <use xlink:href="#m2c7872eb3f" x="126" y="384.48" style="stroke: #000000; stroke-width: 0.8"/>
      </g>
     </g>
     <g id="text_25">
      <!-- 0.0 -->
      <g transform="translate(103.096875 388.279219) scale(0.1 -0.1)">
       <defs>
        <path id="DejaVuSans-30" d="M 2034 4250 
Q 1547 4250 1301 3770 
Q 1056 3291 1056 2328 
Q 1056 1369 1301 889 
Q 1547 409 2034 409 
Q 2525 409 2770 889 
Q 3016 1369 3016 2328 
Q 3016 3291 2770 3770 
Q 2525 4250 2034 4250 
z
M 2034 4750 
Q 2819 4750 3233 4129 
Q 3647 3509 3647 2328 
Q 3647 1150 3233 529 
Q 2819 -91 2034 -91 
Q 1250 -91 836 529 
Q 422 1150 422 2328 
Q 422 3509 836 4129 
Q 1250 4750 2034 4750 
z
" transform="scale(0.015625)"/>
        <path id="DejaVuSans-2e" d="M 684 794 
L 1344 794 
L 1344 0 
L 684 0 
L 684 794 
z
" transform="scale(0.015625)"/>
       </defs>
       <use xlink:href="#DejaVuSans-30"/>
       <use xlink:href="#DejaVuSans-2e" x="63.623047"/>
       <use xlink:href="#DejaVuSans-30" x="95.410156"/>
      </g>
     </g>
    </g>
    <g id="ytick_2">
     <g id="line2d_27"/>
     <g id="line2d_28">
      <g>
       <use xlink:href="#m2c7872eb3f" x="126" y="313.526563" style="stroke: #000000; stroke-width: 0.8"/>
      </g>
     </g>
     <g id="text_26">
      <!-- 0.1 -->
      <g transform="translate(103.096875 317.325782) scale(0.1 -0.1)">
       <defs>
        <path id="DejaVuSans-31" d="M 794 531 
L 1825 531 
L 1825 4091 
L 703 3866 
L 703 4441 
L 1819 4666 
L 2450 4666 
L 2450 531 
L 3481 531 
L 3481 0 
L 794 0 
L 794 531 
z
" transform="scale(0.015625)"/>
       </defs>
       <use xlink:href="#DejaVuSans-30"/>
       <use xlink:href="#DejaVuSans-2e" x="63.623047"/>
       <use xlink:href="#DejaVuSans-31" x="95.410156"/>
      </g>
     </g>
    </g>
    <g id="ytick_3">
     <g id="line2d_29"/>
     <g id="line2d_30">
      <g>
       <use xlink:href="#m2c7872eb3f" x="126" y="242.573126" style="stroke: #000000; stroke-width: 0.8"/>
      </g>
     </g>
     <g id="text_27">
      <!-- 0.2 -->
      <g transform="translate(103.096875 246.372345) scale(0.1 -0.1)">
       <use xlink:href="#DejaVuSans-30"/>
       <use xlink:href="#DejaVuSans-2e" x="63.623047"/>
       <use xlink:href="#DejaVuSans-32" x="95.410156"/>
      </g>
     </g>
    </g>
    <g id="ytick_4">
     <g id="line2d_31"/>
     <g id="line2d_32">
      <g>
       <use xlink:href="#m2c7872eb3f" x="126" y="171.61969" style="stroke: #000000; stroke-width: 0.8"/>
      </g>
     </g>
     <g id="text_28">
      <!-- 0.3 -->
      <g transform="translate(103.096875 175.418908) scale(0.1 -0.1)">
       <defs>
        <path id="DejaVuSans-33" d="M 2597 2516 
Q 3050 2419 3304 2112 
Q 3559 1806 3559 1356 
Q 3559 666 3084 287 
Q 2609 -91 1734 -91 
Q 1441 -91 1130 -33 
Q 819 25 488 141 
L 488 750 
Q 750 597 1062 519 
Q 1375 441 1716 441 
Q 2309 441 2620 675 
Q 2931 909 2931 1356 
Q 2931 1769 2642 2001 
Q 2353 2234 1838 2234 
L 1294 2234 
L 1294 2753 
L 1863 2753 
Q 2328 2753 2575 2939 
Q 2822 3125 2822 3475 
Q 2822 3834 2567 4026 
Q 2313 4219 1838 4219 
Q 1578 4219 1281 4162 
Q 984 4106 628 3988 
L 628 4550 
Q 988 4650 1302 4700 
Q 1616 4750 1894 4750 
Q 2613 4750 3031 4423 
Q 3450 4097 3450 3541 
Q 3450 3153 3228 2886 
Q 3006 2619 2597 2516 
z
" transform="scale(0.015625)"/>
       </defs>
       <use xlink:href="#DejaVuSans-30"/>
       <use xlink:href="#DejaVuSans-2e" x="63.623047"/>
       <use xlink:href="#DejaVuSans-33" x="95.410156"/>
      </g>
     </g>
    </g>
    <g id="ytick_5">
     <g id="line2d_33"/>
     <g id="line2d_34">
      <g>
       <use xlink:href="#m2c7872eb3f" x="126" y="100.666253" style="stroke: #000000; stroke-width: 0.8"/>
      </g>
     </g>
     <g id="text_29">
      <!-- 0.4 -->
      <g transform="translate(103.096875 104.465472) scale(0.1 -0.1)">
       <defs>
        <path id="DejaVuSans-34" d="M 2419 4116 
L 825 1625 
L 2419 1625 
L 2419 4116 
z
M 2253 4666 
L 3047 4666 
L 3047 1625 
L 3713 1625 
L 3713 1100 
L 3047 1100 
L 3047 0 
L 2419 0 
L 2419 1100 
L 313 1100 
L 313 1709 
L 2253 4666 
z
" transform="scale(0.015625)"/>
       </defs>
       <use xlink:href="#DejaVuSans-30"/>
       <use xlink:href="#DejaVuSans-2e" x="63.623047"/>
       <use xlink:href="#DejaVuSans-34" x="95.410156"/>
      </g>
     </g>
    </g>
    <g id="text_30">
     <!-- EUR/kWh -->
     <g transform="translate(97.017187 241.145156) rotate(-90) scale(0.1 -0.1)">
      <defs>
       <path id="DejaVuSans-55" d="M 556 4666 
L 1191 4666 
L 1191 1831 
Q 1191 1081 1462 751 
Q 1734 422 2344 422 
Q 2950 422 3222 751 
Q 3494 1081 3494 1831 
L 3494 4666 
L 4128 4666 
L 4128 1753 
Q 4128 841 3676 375 
Q 3225 -91 2344 -91 
Q 1459 -91 1007 375 
Q 556 841 556 1753 
L 556 4666 
z
" transform="scale(0.015625)"/>
       <path id="DejaVuSans-52" d="M 2841 2188 
Q 3044 2119 3236 1894 
Q 3428 1669 3622 1275 
L 4263 0 
L 3584 0 
L 2988 1197 
Q 2756 1666 2539 1819 
Q 2322 1972 1947 1972 
L 1259 1972 
L 1259 0 
L 628 0 
L 628 4666 
L 2053 4666 
Q 2853 4666 3247 4331 
Q 3641 3997 3641 3322 
Q 3641 2881 3436 2590 
Q 3231 2300 2841 2188 
z
M 1259 4147 
L 1259 2491 
L 2053 2491 
Q 2509 2491 2742 2702 
Q 2975 2913 2975 3322 
Q 2975 3731 2742 3939 
Q 2509 4147 2053 4147 
L 1259 4147 
z
" transform="scale(0.015625)"/>
       <path id="DejaVuSans-2f" d="M 1625 4666 
L 2156 4666 
L 531 -594 
L 0 -594 
L 1625 4666 
z
" transform="scale(0.015625)"/>
       <path id="DejaVuSans-6b" d="M 581 4863 
L 1159 4863 
L 1159 1991 
L 2875 3500 
L 3609 3500 
L 1753 1863 
L 3688 0 
L 2938 0 
L 1159 1709 
L 1159 0 
L 581 0 
L 581 4863 
z
" transform="scale(0.015625)"/>
       <path id="DejaVuSans-57" d="M 213 4666 
L 850 4666 
L 1831 722 
L 2809 4666 
L 3519 4666 
L 4500 722 
L 5478 4666 
L 6119 4666 
L 4947 0 
L 4153 0 
L 3169 4050 
L 2175 0 
L 1381 0 
L 213 4666 
z
" transform="scale(0.015625)"/>
      </defs>
      <use xlink:href="#DejaVuSans-45"/>
      <use xlink:href="#DejaVuSans-55" x="63.183594"/>
      <use xlink:href="#DejaVuSans-52" x="136.376953"/>
      <use xlink:href="#DejaVuSans-2f" x="205.859375"/>
      <use xlink:href="#DejaVuSans-6b" x="239.550781"/>
      <use xlink:href="#DejaVuSans-57" x="297.460938"/>
      <use xlink:href="#DejaVuSans-68" x="396.337891"/>
     </g>
    </g>
   </g>
   <g id="LineCollection_1">
    <path d="M 168.70688 313.526563 
L 168.70688 310.830333 
" clip-path="url(#p099101bc62)" style="fill: none; stroke: #000000; stroke-width: 1.5"/>
    <path d="M 192.699509 301.535432 
L 192.699509 300.683991 
" clip-path="url(#p099101bc62)" style="fill: none; stroke: #000000; stroke-width: 1.5"/>
    <path d="M 216.692138 253.216142 
L 216.692138 200.001064 
" clip-path="url(#p099101bc62)" style="fill: none; stroke: #000000; stroke-width: 1.5"/>
    <path d="M 240.684767 308.701729 
L 240.684767 299.264922 
" clip-path="url(#p099101bc62)" style="fill: none; stroke: #000000; stroke-width: 1.5"/>
    <path d="M 264.677396 321.331441 
L 264.677396 316.577561 
" clip-path="url(#p099101bc62)" style="fill: none; stroke: #000000; stroke-width: 1.5"/>
    <path d="M 288.670025 230.936763 
L 288.670025 148.488869 
" clip-path="url(#p099101bc62)" style="fill: none; stroke: #000000; stroke-width: 1.5"/>
   </g>
   <g id="line2d_35">
    <defs>
     <path id="m7e3d7a554e" d="M 5 0 
L -5 -0 
" style="stroke: #000000"/>
    </defs>
    <g clip-path="url(#p099101bc62)">
     <use xlink:href="#m7e3d7a554e" x="168.70688" y="313.526563" style="stroke: #000000"/>
     <use xlink:href="#m7e3d7a554e" x="192.699509" y="301.535432" style="stroke: #000000"/>
     <use xlink:href="#m7e3d7a554e" x="216.692138" y="253.216142" style="stroke: #000000"/>
     <use xlink:href="#m7e3d7a554e" x="240.684767" y="308.701729" style="stroke: #000000"/>
     <use xlink:href="#m7e3d7a554e" x="264.677396" y="321.331441" style="stroke: #000000"/>
     <use xlink:href="#m7e3d7a554e" x="288.670025" y="230.936763" style="stroke: #000000"/>
    </g>
   </g>
   <g id="line2d_36">
    <g clip-path="url(#p099101bc62)">
     <use xlink:href="#m7e3d7a554e" x="168.70688" y="310.830333" style="stroke: #000000"/>
     <use xlink:href="#m7e3d7a554e" x="192.699509" y="300.683991" style="stroke: #000000"/>
     <use xlink:href="#m7e3d7a554e" x="216.692138" y="200.001064" style="stroke: #000000"/>
     <use xlink:href="#m7e3d7a554e" x="240.684767" y="299.264922" style="stroke: #000000"/>
     <use xlink:href="#m7e3d7a554e" x="264.677396" y="316.577561" style="stroke: #000000"/>
     <use xlink:href="#m7e3d7a554e" x="288.670025" y="148.488869" style="stroke: #000000"/>
    </g>
   </g>
   <g id="LineCollection_2">
    <path d="M 360.647912 328.072018 
L 360.647912 311.965588 
" clip-path="url(#p099101bc62)" style="fill: none; stroke: #000000; stroke-width: 1.5"/>
    <path d="M 384.640541 317.074235 
L 384.640541 311.965588 
" clip-path="url(#p099101bc62)" style="fill: none; stroke: #000000; stroke-width: 1.5"/>
    <path d="M 408.63317 313.526563 
L 408.63317 292.240532 
" clip-path="url(#p099101bc62)" style="fill: none; stroke: #000000; stroke-width: 1.5"/>
    <path d="M 432.625799 326.440089 
L 432.625799 269.677339 
" clip-path="url(#p099101bc62)" style="fill: none; stroke: #000000; stroke-width: 1.5"/>
    <path d="M 456.618428 337.295965 
L 456.618428 308.91459 
" clip-path="url(#p099101bc62)" style="fill: none; stroke: #000000; stroke-width: 1.5"/>
    <path d="M 480.611057 260.524346 
L 480.611057 96.48 
" clip-path="url(#p099101bc62)" style="fill: none; stroke: #000000; stroke-width: 1.5"/>
   </g>
   <g id="line2d_37">
    <g clip-path="url(#p099101bc62)">
     <use xlink:href="#m7e3d7a554e" x="360.647912" y="328.072018" style="stroke: #000000"/>
     <use xlink:href="#m7e3d7a554e" x="384.640541" y="317.074235" style="stroke: #000000"/>
     <use xlink:href="#m7e3d7a554e" x="408.63317" y="313.526563" style="stroke: #000000"/>
     <use xlink:href="#m7e3d7a554e" x="432.625799" y="326.440089" style="stroke: #000000"/>
     <use xlink:href="#m7e3d7a554e" x="456.618428" y="337.295965" style="stroke: #000000"/>
     <use xlink:href="#m7e3d7a554e" x="480.611057" y="260.524346" style="stroke: #000000"/>
    </g>
   </g>
   <g id="line2d_38">
    <g clip-path="url(#p099101bc62)">
     <use xlink:href="#m7e3d7a554e" x="360.647912" y="311.965588" style="stroke: #000000"/>
     <use xlink:href="#m7e3d7a554e" x="384.640541" y="311.965588" style="stroke: #000000"/>
     <use xlink:href="#m7e3d7a554e" x="408.63317" y="292.240532" style="stroke: #000000"/>
     <use xlink:href="#m7e3d7a554e" x="432.625799" y="269.677339" style="stroke: #000000"/>
     <use xlink:href="#m7e3d7a554e" x="456.618428" y="308.91459" style="stroke: #000000"/>
     <use xlink:href="#m7e3d7a554e" x="480.611057" y="96.48" style="stroke: #000000"/>
    </g>
   </g>
   <g id="LineCollection_3">
    <path d="M 552.588943 330.200621 
L 552.588943 312.320355 
" clip-path="url(#p099101bc62)" style="fill: none; stroke: #000000; stroke-width: 1.5"/>
    <path d="M 576.581572 317.358049 
L 576.581572 310.901286 
" clip-path="url(#p099101bc62)" style="fill: none; stroke: #000000; stroke-width: 1.5"/>
    <path d="M 600.574201 313.526563 
L 600.574201 292.240532 
" clip-path="url(#p099101bc62)" style="fill: none; stroke: #000000; stroke-width: 1.5"/>
    <path d="M 624.56683 326.440089 
L 624.56683 269.677339 
" clip-path="url(#p099101bc62)" style="fill: none; stroke: #000000; stroke-width: 1.5"/>
    <path d="M 648.559459 337.295965 
L 648.559459 308.91459 
" clip-path="url(#p099101bc62)" style="fill: none; stroke: #000000; stroke-width: 1.5"/>
    <path d="M 672.552088 296.994412 
L 672.552088 181.34031 
" clip-path="url(#p099101bc62)" style="fill: none; stroke: #000000; stroke-width: 1.5"/>
   </g>
   <g id="line2d_39">
    <g clip-path="url(#p099101bc62)">
     <use xlink:href="#m7e3d7a554e" x="552.588943" y="330.200621" style="stroke: #000000"/>
     <use xlink:href="#m7e3d7a554e" x="576.581572" y="317.358049" style="stroke: #000000"/>
     <use xlink:href="#m7e3d7a554e" x="600.574201" y="313.526563" style="stroke: #000000"/>
     <use xlink:href="#m7e3d7a554e" x="624.56683" y="326.440089" style="stroke: #000000"/>
     <use xlink:href="#m7e3d7a554e" x="648.559459" y="337.295965" style="stroke: #000000"/>
     <use xlink:href="#m7e3d7a554e" x="672.552088" y="296.994412" style="stroke: #000000"/>
    </g>
   </g>
   <g id="line2d_40">
    <g clip-path="url(#p099101bc62)">
     <use xlink:href="#m7e3d7a554e" x="552.588943" y="312.320355" style="stroke: #000000"/>
     <use xlink:href="#m7e3d7a554e" x="576.581572" y="310.901286" style="stroke: #000000"/>
     <use xlink:href="#m7e3d7a554e" x="600.574201" y="292.240532" style="stroke: #000000"/>
     <use xlink:href="#m7e3d7a554e" x="624.56683" y="269.677339" style="stroke: #000000"/>
     <use xlink:href="#m7e3d7a554e" x="648.559459" y="308.91459" style="stroke: #000000"/>
     <use xlink:href="#m7e3d7a554e" x="672.552088" y="181.34031" style="stroke: #000000"/>
    </g>
   </g>
   <g id="LineCollection_4">
    <path d="M 744.529975 333.322572 
L 744.529975 312.817029 
" clip-path="url(#p099101bc62)" style="fill: none; stroke: #000000; stroke-width: 1.5"/>
    <path d="M 768.522604 317.783769 
L 768.522604 309.34031 
" clip-path="url(#p099101bc62)" style="fill: none; stroke: #000000; stroke-width: 1.5"/>
    <path d="M 792.515233 313.526563 
L 792.515233 292.240532 
" clip-path="url(#p099101bc62)" style="fill: none; stroke: #000000; stroke-width: 1.5"/>
    <path d="M 816.507862 326.440089 
L 816.507862 269.677339 
" clip-path="url(#p099101bc62)" style="fill: none; stroke: #000000; stroke-width: 1.5"/>
    <path d="M 840.500491 337.295965 
L 840.500491 308.91459 
" clip-path="url(#p099101bc62)" style="fill: none; stroke: #000000; stroke-width: 1.5"/>
    <path d="M 864.49312 333.464479 
L 864.49312 266.200621 
" clip-path="url(#p099101bc62)" style="fill: none; stroke: #000000; stroke-width: 1.5"/>
   </g>
   <g id="line2d_41">
    <g clip-path="url(#p099101bc62)">
     <use xlink:href="#m7e3d7a554e" x="744.529975" y="333.322572" style="stroke: #000000"/>
     <use xlink:href="#m7e3d7a554e" x="768.522604" y="317.783769" style="stroke: #000000"/>
     <use xlink:href="#m7e3d7a554e" x="792.515233" y="313.526563" style="stroke: #000000"/>
     <use xlink:href="#m7e3d7a554e" x="816.507862" y="326.440089" style="stroke: #000000"/>
     <use xlink:href="#m7e3d7a554e" x="840.500491" y="337.295965" style="stroke: #000000"/>
     <use xlink:href="#m7e3d7a554e" x="864.49312" y="333.464479" style="stroke: #000000"/>
    </g>
   </g>
   <g id="line2d_42">
    <g clip-path="url(#p099101bc62)">
     <use xlink:href="#m7e3d7a554e" x="744.529975" y="312.817029" style="stroke: #000000"/>
     <use xlink:href="#m7e3d7a554e" x="768.522604" y="309.34031" style="stroke: #000000"/>
     <use xlink:href="#m7e3d7a554e" x="792.515233" y="292.240532" style="stroke: #000000"/>
     <use xlink:href="#m7e3d7a554e" x="816.507862" y="269.677339" style="stroke: #000000"/>
     <use xlink:href="#m7e3d7a554e" x="840.500491" y="308.91459" style="stroke: #000000"/>
     <use xlink:href="#m7e3d7a554e" x="864.49312" y="266.200621" style="stroke: #000000"/>
    </g>
   </g>
   <g id="patch_75">
    <path d="M 126 384.48 
L 126 51.84 
" style="fill: none; stroke: #000000; stroke-width: 0.8; stroke-linejoin: miter; stroke-linecap: square"/>
   </g>
   <g id="patch_76">
    <path d="M 907.2 384.48 
L 907.2 51.84 
" style="fill: none; stroke: #000000; stroke-width: 0.8; stroke-linejoin: miter; stroke-linecap: square"/>
   </g>
   <g id="patch_77">
    <path d="M 126 384.48 
L 907.2 384.48 
" style="fill: none; stroke: #000000; stroke-width: 0.8; stroke-linejoin: miter; stroke-linecap: square"/>
   </g>
   <g id="patch_78">
    <path d="M 126 51.84 
L 907.2 51.84 
" style="fill: none; stroke: #000000; stroke-width: 0.8; stroke-linejoin: miter; stroke-linecap: square"/>
   </g>
   <g id="text_31">
    <!-- 2025 -->
    <g transform="translate(208.328452 463.1655) scale(0.16 -0.16)">
     <defs>
      <path id="DejaVuSans-35" d="M 691 4666 
L 3169 4666 
L 3169 4134 
L 1269 4134 
L 1269 2991 
Q 1406 3038 1543 3061 
Q 1681 3084 1819 3084 
Q 2600 3084 3056 2656 
Q 3513 2228 3513 1497 
Q 3513 744 3044 326 
Q 2575 -91 1722 -91 
Q 1428 -91 1123 -41 
Q 819 9 494 109 
L 494 744 
Q 775 591 1075 516 
Q 1375 441 1709 441 
Q 2250 441 2565 725 
Q 2881 1009 2881 1497 
Q 2881 1984 2565 2268 
Q 2250 2553 1709 2553 
Q 1456 2553 1204 2497 
Q 953 2441 691 2322 
L 691 4666 
z
" transform="scale(0.015625)"/>
     </defs>
     <use xlink:href="#DejaVuSans-32"/>
     <use xlink:href="#DejaVuSans-30" x="63.623047"/>
     <use xlink:href="#DejaVuSans-32" x="127.246094"/>
     <use xlink:href="#DejaVuSans-35" x="190.869141"/>
    </g>
   </g>
   <g id="text_32">
    <!-- 2030 -->
    <g transform="translate(400.269484 463.1655) scale(0.16 -0.16)">
     <use xlink:href="#DejaVuSans-32"/>
     <use xlink:href="#DejaVuSans-30" x="63.623047"/>
     <use xlink:href="#DejaVuSans-33" x="127.246094"/>
     <use xlink:href="#DejaVuSans-30" x="190.869141"/>
    </g>
   </g>
   <g id="text_33">
    <!-- 2035 -->
    <g transform="translate(592.210516 463.1655) scale(0.16 -0.16)">
     <use xlink:href="#DejaVuSans-32"/>
     <use xlink:href="#DejaVuSans-30" x="63.623047"/>
     <use xlink:href="#DejaVuSans-33" x="127.246094"/>
     <use xlink:href="#DejaVuSans-35" x="190.869141"/>
    </g>
   </g>
   <g id="text_34">
    <!-- 2040 -->
    <g transform="translate(784.151548 463.1655) scale(0.16 -0.16)">
     <use xlink:href="#DejaVuSans-32"/>
     <use xlink:href="#DejaVuSans-30" x="63.623047"/>
     <use xlink:href="#DejaVuSans-34" x="127.246094"/>
     <use xlink:href="#DejaVuSans-30" x="190.869141"/>
    </g>
   </g>
   <g id="legend_1">
    <g id="patch_79">
     <path d="M 800.632812 104.1525 
L 900.2 104.1525 
Q 902.2 104.1525 902.2 102.1525 
L 902.2 58.84 
Q 902.2 56.84 900.2 56.84 
L 800.632812 56.84 
Q 798.632812 56.84 798.632812 58.84 
L 798.632812 102.1525 
Q 798.632812 104.1525 800.632812 104.1525 
z
" style="fill: #ffffff; opacity: 0.8; stroke: #cccccc; stroke-linejoin: miter"/>
    </g>
    <g id="patch_80">
     <path d="M 802.632812 68.438437 
L 822.632812 68.438437 
L 822.632812 61.438437 
L 802.632812 61.438437 
z
" style="fill: #fbb4ae; stroke: #808080; stroke-linejoin: miter"/>
    </g>
    <g id="text_35">
     <!-- Energy -->
     <g transform="translate(830.632812 68.438437) scale(0.1 -0.1)">
      <defs>
       <path id="DejaVuSans-67" d="M 2906 1791 
Q 2906 2416 2648 2759 
Q 2391 3103 1925 3103 
Q 1463 3103 1205 2759 
Q 947 2416 947 1791 
Q 947 1169 1205 825 
Q 1463 481 1925 481 
Q 2391 481 2648 825 
Q 2906 1169 2906 1791 
z
M 3481 434 
Q 3481 -459 3084 -895 
Q 2688 -1331 1869 -1331 
Q 1566 -1331 1297 -1286 
Q 1028 -1241 775 -1147 
L 775 -588 
Q 1028 -725 1275 -790 
Q 1522 -856 1778 -856 
Q 2344 -856 2625 -561 
Q 2906 -266 2906 331 
L 2906 616 
Q 2728 306 2450 153 
Q 2172 0 1784 0 
Q 1141 0 747 490 
Q 353 981 353 1791 
Q 353 2603 747 3093 
Q 1141 3584 1784 3584 
Q 2172 3584 2450 3431 
Q 2728 3278 2906 2969 
L 2906 3500 
L 3481 3500 
L 3481 434 
z
" transform="scale(0.015625)"/>
      </defs>
      <use xlink:href="#DejaVuSans-45"/>
      <use xlink:href="#DejaVuSans-6e" x="63.183594"/>
      <use xlink:href="#DejaVuSans-65" x="126.5625"/>
      <use xlink:href="#DejaVuSans-72" x="188.085938"/>
      <use xlink:href="#DejaVuSans-67" x="227.449219"/>
      <use xlink:href="#DejaVuSans-79" x="290.925781"/>
     </g>
    </g>
    <g id="patch_81">
     <path d="M 802.632812 83.116562 
L 822.632812 83.116562 
L 822.632812 76.116562 
L 802.632812 76.116562 
z
" style="fill: #ccebc5; stroke: #808080; stroke-linejoin: miter"/>
    </g>
    <g id="text_36">
     <!-- Energy_Taxes -->
     <g transform="translate(830.632812 83.116562) scale(0.1 -0.1)">
      <defs>
       <path id="DejaVuSans-5f" d="M 3263 -1063 
L 3263 -1509 
L -63 -1509 
L -63 -1063 
L 3263 -1063 
z
" transform="scale(0.015625)"/>
       <path id="DejaVuSans-54" d="M -19 4666 
L 3928 4666 
L 3928 4134 
L 2272 4134 
L 2272 0 
L 1638 0 
L 1638 4134 
L -19 4134 
L -19 4666 
z
" transform="scale(0.015625)"/>
       <path id="DejaVuSans-78" d="M 3513 3500 
L 2247 1797 
L 3578 0 
L 2900 0 
L 1881 1375 
L 863 0 
L 184 0 
L 1544 1831 
L 300 3500 
L 978 3500 
L 1906 2253 
L 2834 3500 
L 3513 3500 
z
" transform="scale(0.015625)"/>
      </defs>
      <use xlink:href="#DejaVuSans-45"/>
      <use xlink:href="#DejaVuSans-6e" x="63.183594"/>
      <use xlink:href="#DejaVuSans-65" x="126.5625"/>
      <use xlink:href="#DejaVuSans-72" x="188.085938"/>
      <use xlink:href="#DejaVuSans-67" x="227.449219"/>
      <use xlink:href="#DejaVuSans-79" x="290.925781"/>
      <use xlink:href="#DejaVuSans-5f" x="350.105469"/>
      <use xlink:href="#DejaVuSans-54" x="400.105469"/>
      <use xlink:href="#DejaVuSans-61" x="444.689453"/>
      <use xlink:href="#DejaVuSans-78" x="505.96875"/>
      <use xlink:href="#DejaVuSans-65" x="562.023438"/>
      <use xlink:href="#DejaVuSans-73" x="623.546875"/>
     </g>
    </g>
    <g id="patch_82">
     <path d="M 802.632812 98.072812 
L 822.632812 98.072812 
L 822.632812 91.072812 
L 802.632812 91.072812 
z
" style="fill: #decbe4; stroke: #808080; stroke-linejoin: miter"/>
    </g>
    <g id="text_37">
     <!-- Distribution -->
     <g transform="translate(830.632812 98.072812) scale(0.1 -0.1)">
      <defs>
       <path id="DejaVuSans-62" d="M 3116 1747 
Q 3116 2381 2855 2742 
Q 2594 3103 2138 3103 
Q 1681 3103 1420 2742 
Q 1159 2381 1159 1747 
Q 1159 1113 1420 752 
Q 1681 391 2138 391 
Q 2594 391 2855 752 
Q 3116 1113 3116 1747 
z
M 1159 2969 
Q 1341 3281 1617 3432 
Q 1894 3584 2278 3584 
Q 2916 3584 3314 3078 
Q 3713 2572 3713 1747 
Q 3713 922 3314 415 
Q 2916 -91 2278 -91 
Q 1894 -91 1617 61 
Q 1341 213 1159 525 
L 1159 0 
L 581 0 
L 581 4863 
L 1159 4863 
L 1159 2969 
z
" transform="scale(0.015625)"/>
       <path id="DejaVuSans-75" d="M 544 1381 
L 544 3500 
L 1119 3500 
L 1119 1403 
Q 1119 906 1312 657 
Q 1506 409 1894 409 
Q 2359 409 2629 706 
Q 2900 1003 2900 1516 
L 2900 3500 
L 3475 3500 
L 3475 0 
L 2900 0 
L 2900 538 
Q 2691 219 2414 64 
Q 2138 -91 1772 -91 
Q 1169 -91 856 284 
Q 544 659 544 1381 
z
M 1991 3584 
L 1991 3584 
z
" transform="scale(0.015625)"/>
      </defs>
      <use xlink:href="#DejaVuSans-44"/>
      <use xlink:href="#DejaVuSans-69" x="77.001953"/>
      <use xlink:href="#DejaVuSans-73" x="104.785156"/>
      <use xlink:href="#DejaVuSans-74" x="156.884766"/>
      <use xlink:href="#DejaVuSans-72" x="196.09375"/>
      <use xlink:href="#DejaVuSans-69" x="237.207031"/>
      <use xlink:href="#DejaVuSans-62" x="264.990234"/>
      <use xlink:href="#DejaVuSans-75" x="328.466797"/>
      <use xlink:href="#DejaVuSans-74" x="391.845703"/>
      <use xlink:href="#DejaVuSans-69" x="431.054688"/>
      <use xlink:href="#DejaVuSans-6f" x="458.837891"/>
      <use xlink:href="#DejaVuSans-6e" x="520.019531"/>
     </g>
    </g>
   </g>
  </g>
 </g>
 <defs>
  <clipPath id="p099101bc62">
   <rect x="126" y="51.84" width="781.2" height="332.64"/>
  </clipPath>
 </defs>
</svg>
