<svg class="main-svg" xmlns="http://www.w3.org/2000/svg" xmlns:xlink="http://www.w3.org/1999/xlink" width="500" height="200" style="" viewBox="0 0 500 200"><rect x="0" y="0" width="500" height="200" style="fill: rgb(0, 0, 0); fill-opacity: 0;"/><defs id="defs-af32c4"><g class="clips"><clipPath id="clipaf32c4xyplot" class="plotclip"><rect width="471" height="155"/></clipPath><clipPath class="axesclip" id="clipaf32c4x"><rect x="29" y="0" width="471" height="200"/></clipPath><clipPath class="axesclip" id="clipaf32c4y"><rect x="0" y="0" width="500" height="155"/></clipPath><clipPath class="axesclip" id="clipaf32c4xy"><rect x="29" y="0" width="471" height="155"/></clipPath></g><g class="gradients"/><g class="patterns"/></defs><g class="bglayer"><rect class="bg" x="29" y="0" width="471" height="155" style="fill: rgb(0, 0, 0); fill-opacity: 0; stroke-width: 0;"/></g><g class="layer-below"><g class="imagelayer"/><g class="shapelayer"/></g><g class="cartesianlayer"><g class="subplot xy"><g class="layer-subplot"><g class="shapelayer"/><g class="imagelayer"/></g><g class="minor-gridlayer"><g class="x"/><g class="y"/></g><g class="gridlayer"><g class="x"/><g class="y"><path class="ygrid crisp" transform="translate(0,142.21)" d="M29,0h471" style="stroke: rgb(255, 255, 255); stroke-opacity: 1; stroke-width: 1px;"/><path class="ygrid crisp" transform="translate(0,129.41)" d="M29,0h471" style="stroke: rgb(255, 255, 255); stroke-opacity: 1; stroke-width: 1px;"/><path class="ygrid crisp" transform="translate(0,116.62)" d="M29,0h471" style="stroke: rgb(255, 255, 255); stroke-opacity: 1; stroke-width: 1px;"/><path class="ygrid crisp" transform="translate(0,103.82)" d="M29,0h471" style="stroke: rgb(255, 255, 255); stroke-opacity: 1; stroke-width: 1px;"/><path class="ygrid crisp" transform="translate(0,91.03)" d="M29,0h471" style="stroke: rgb(255, 255, 255); stroke-opacity: 1; stroke-width: 1px;"/><path class="ygrid crisp" transform="translate(0,78.24)" d="M29,0h471" style="stroke: rgb(255, 255, 255); stroke-opacity: 1; stroke-width: 1px;"/><path class="ygrid crisp" transform="translate(0,65.44)" d="M29,0h471" style="stroke: rgb(255, 255, 255); stroke-opacity: 1; stroke-width: 1px;"/><path class="ygrid crisp" transform="translate(0,52.65)" d="M29,0h471" style="stroke: rgb(255, 255, 255); stroke-opacity: 1; stroke-width: 1px;"/><path class="ygrid crisp" transform="translate(0,39.85)" d="M29,0h471" style="stroke: rgb(255, 255, 255); stroke-opacity: 1; stroke-width: 1px;"/></g></g><g class="zerolinelayer"><path class="yzl zl crisp" transform="translate(0,155)" d="M29,0h471" style="stroke: rgb(255, 255, 255); stroke-opacity: 1; stroke-width: 2px;"/></g><g class="layer-between"><g class="shapelayer"/><g class="imagelayer"/></g><path class="xlines-below"/><path class="ylines-below"/><g class="overlines-below"/><g class="xaxislayer-below"/><g class="yaxislayer-below"/><g class="overaxes-below"/><g class="overplot"><g class="xy" transform="translate(29,0)" clip-path="url(#clipaf32c4xyplot)"><g class="barlayer mlayer"><g class="trace bars" shape-rendering="crispEdges" style="opacity: 1;"><g class="points"><g class="point"><path d="M1.12,155V155H10.09V155Z" style="vector-effect: none; opacity: 1; stroke-width: 0.5px; fill: rgb(0, 0, 0); fill-opacity: 0; stroke: rgb(0, 0, 0); stroke-opacity: 0;"/></g><g class="point"><path d="M12.34,155V130.18H21.31V155Z" style="vector-effect: none; opacity: 1; stroke-width: 0.5px; fill: rgb(0, 0, 0); fill-opacity: 0; stroke: rgb(0, 0, 0); stroke-opacity: 0;"/></g><g class="point"><path d="M23.55,155V121.89H32.52V155Z" style="vector-effect: none; opacity: 1; stroke-width: 0.5px; fill: rgb(0, 0, 0); fill-opacity: 0; stroke: rgb(0, 0, 0); stroke-opacity: 0;"/></g><g class="point"><path d="M34.76,155V85.95H43.74V155Z" style="vector-effect: none; opacity: 1; stroke-width: 0.5px; fill: rgb(0, 0, 0); fill-opacity: 0; stroke: rgb(0, 0, 0); stroke-opacity: 0;"/></g><g class="point"><path d="M45.98,155V59.93H54.95V155Z" style="vector-effect: none; opacity: 1; stroke-width: 0.5px; fill: rgb(0, 0, 0); fill-opacity: 0; stroke: rgb(0, 0, 0); stroke-opacity: 0;"/></g><g class="point"><path d="M57.19,155V56.74H66.16V155Z" style="vector-effect: none; opacity: 1; stroke-width: 0.5px; fill: rgb(0, 0, 0); fill-opacity: 0; stroke: rgb(0, 0, 0); stroke-opacity: 0;"/></g><g class="point"><path d="M68.41,155V155H77.38V155Z" style="vector-effect: none; opacity: 1; stroke-width: 0.5px; fill: rgb(0, 0, 0); fill-opacity: 0; stroke: rgb(0, 0, 0); stroke-opacity: 0;"/></g><g class="point"><path d="M79.62,155V155H88.59V155Z" style="vector-effect: none; opacity: 1; stroke-width: 0.5px; fill: rgb(0, 0, 0); fill-opacity: 0; stroke: rgb(0, 0, 0); stroke-opacity: 0;"/></g><g class="point"><path d="M90.84,155V130.18H99.81V155Z" style="vector-effect: none; opacity: 1; stroke-width: 0.5px; fill: rgb(0, 0, 0); fill-opacity: 0; stroke: rgb(0, 0, 0); stroke-opacity: 0;"/></g><g class="point"><path d="M102.05,155V121.89H111.02V155Z" style="vector-effect: none; opacity: 1; stroke-width: 0.5px; fill: rgb(0, 0, 0); fill-opacity: 0; stroke: rgb(0, 0, 0); stroke-opacity: 0;"/></g><g class="point"><path d="M113.26,155V85.95H122.24V155Z" style="vector-effect: none; opacity: 1; stroke-width: 0.5px; fill: rgb(0, 0, 0); fill-opacity: 0; stroke: rgb(0, 0, 0); stroke-opacity: 0;"/></g><g class="point"><path d="M124.48,155V60.96H133.45V155Z" style="vector-effect: none; opacity: 1; stroke-width: 0.5px; fill: rgb(0, 0, 0); fill-opacity: 0; stroke: rgb(0, 0, 0); stroke-opacity: 0;"/></g><g class="point"><path d="M135.69,155V60.96H144.66V155Z" style="vector-effect: none; opacity: 1; stroke-width: 0.5px; fill: rgb(0, 0, 0); fill-opacity: 0; stroke: rgb(0, 0, 0); stroke-opacity: 0;"/></g><g class="point"><path d="M146.91,155V155H155.88V155Z" style="vector-effect: none; opacity: 1; stroke-width: 0.5px; fill: rgb(0, 0, 0); fill-opacity: 0; stroke: rgb(0, 0, 0); stroke-opacity: 0;"/></g><g class="point"><path d="M158.12,155V155H167.09V155Z" style="vector-effect: none; opacity: 1; stroke-width: 0.5px; fill: rgb(0, 0, 0); fill-opacity: 0; stroke: rgb(0, 0, 0); stroke-opacity: 0;"/></g><g class="point"><path d="M169.34,155V127.69H178.31V155Z" style="vector-effect: none; opacity: 1; stroke-width: 0.5px; fill: rgb(0, 0, 0); fill-opacity: 0; stroke: rgb(0, 0, 0); stroke-opacity: 0;"/></g><g class="point"><path d="M180.55,155V118.58H189.52V155Z" style="vector-effect: none; opacity: 1; stroke-width: 0.5px; fill: rgb(0, 0, 0); fill-opacity: 0; stroke: rgb(0, 0, 0); stroke-opacity: 0;"/></g><g class="point"><path d="M191.76,155V80.74H200.74V155Z" style="vector-effect: none; opacity: 1; stroke-width: 0.5px; fill: rgb(0, 0, 0); fill-opacity: 0; stroke: rgb(0, 0, 0); stroke-opacity: 0;"/></g><g class="point"><path d="M202.98,155V51.41H211.95V155Z" style="vector-effect: none; opacity: 1; stroke-width: 0.5px; fill: rgb(0, 0, 0); fill-opacity: 0; stroke: rgb(0, 0, 0); stroke-opacity: 0;"/></g><g class="point"><path d="M214.19,155V49.12H223.16V155Z" style="vector-effect: none; opacity: 1; stroke-width: 0.5px; fill: rgb(0, 0, 0); fill-opacity: 0; stroke: rgb(0, 0, 0); stroke-opacity: 0;"/></g><g class="point"><path d="M225.41,155V155H234.38V155Z" style="vector-effect: none; opacity: 1; stroke-width: 0.5px; fill: rgb(0, 0, 0); fill-opacity: 0; stroke: rgb(0, 0, 0); stroke-opacity: 0;"/></g><g class="point"><path d="M236.62,155V155H245.59V155Z" style="vector-effect: none; opacity: 1; stroke-width: 0.5px; fill: rgb(0, 0, 0); fill-opacity: 0; stroke: rgb(0, 0, 0); stroke-opacity: 0;"/></g><g class="point"><path d="M247.84,155V127.69H256.81V155Z" style="vector-effect: none; opacity: 1; stroke-width: 0.5px; fill: rgb(0, 0, 0); fill-opacity: 0; stroke: rgb(0, 0, 0); stroke-opacity: 0;"/></g><g class="point"><path d="M259.05,155V118.58H268.02V155Z" style="vector-effect: none; opacity: 1; stroke-width: 0.5px; fill: rgb(0, 0, 0); fill-opacity: 0; stroke: rgb(0, 0, 0); stroke-opacity: 0;"/></g><g class="point"><path d="M270.26,155V80.74H279.24V155Z" style="vector-effect: none; opacity: 1; stroke-width: 0.5px; fill: rgb(0, 0, 0); fill-opacity: 0; stroke: rgb(0, 0, 0); stroke-opacity: 0;"/></g><g class="point"><path d="M281.48,155V42.13H290.45V155Z" style="vector-effect: none; opacity: 1; stroke-width: 0.5px; fill: rgb(0, 0, 0); fill-opacity: 0; stroke: rgb(0, 0, 0); stroke-opacity: 0;"/></g><g class="point"><path d="M292.69,155V42.13H301.66V155Z" style="vector-effect: none; opacity: 1; stroke-width: 0.5px; fill: rgb(0, 0, 0); fill-opacity: 0; stroke: rgb(0, 0, 0); stroke-opacity: 0;"/></g><g class="point"><path d="M303.91,155V155H312.88V155Z" style="vector-effect: none; opacity: 1; stroke-width: 0.5px; fill: rgb(0, 0, 0); fill-opacity: 0; stroke: rgb(0, 0, 0); stroke-opacity: 0;"/></g><g class="point"><path d="M315.12,155V155H324.09V155Z" style="vector-effect: none; opacity: 1; stroke-width: 0.5px; fill: rgb(0, 0, 0); fill-opacity: 0; stroke: rgb(0, 0, 0); stroke-opacity: 0;"/></g><g class="point"><path d="M326.34,155V120.96H335.31V155Z" style="vector-effect: none; opacity: 1; stroke-width: 0.5px; fill: rgb(0, 0, 0); fill-opacity: 0; stroke: rgb(0, 0, 0); stroke-opacity: 0;"/></g><g class="point"><path d="M337.55,155V109.61H346.52V155Z" style="vector-effect: none; opacity: 1; stroke-width: 0.5px; fill: rgb(0, 0, 0); fill-opacity: 0; stroke: rgb(0, 0, 0); stroke-opacity: 0;"/></g><g class="point"><path d="M348.76,155V79.95H357.74V155Z" style="vector-effect: none; opacity: 1; stroke-width: 0.5px; fill: rgb(0, 0, 0); fill-opacity: 0; stroke: rgb(0, 0, 0); stroke-opacity: 0;"/></g><g class="point"><path d="M359.98,155V71.5H368.95V155Z" style="vector-effect: none; opacity: 1; stroke-width: 0.5px; fill: rgb(0, 0, 0); fill-opacity: 0; stroke: rgb(0, 0, 0); stroke-opacity: 0;"/></g><g class="point"><path d="M371.19,155V71.5H380.16V155Z" style="vector-effect: none; opacity: 1; stroke-width: 0.5px; fill: rgb(0, 0, 0); fill-opacity: 0; stroke: rgb(0, 0, 0); stroke-opacity: 0;"/></g><g class="point"><path d="M382.41,155V155H391.38V155Z" style="vector-effect: none; opacity: 1; stroke-width: 0.5px; fill: rgb(0, 0, 0); fill-opacity: 0; stroke: rgb(0, 0, 0); stroke-opacity: 0;"/></g><g class="point"><path d="M393.62,155V155H402.59V155Z" style="vector-effect: none; opacity: 1; stroke-width: 0.5px; fill: rgb(0, 0, 0); fill-opacity: 0; stroke: rgb(0, 0, 0); stroke-opacity: 0;"/></g><g class="point"><path d="M404.84,155V122.16H413.81V155Z" style="vector-effect: none; opacity: 1; stroke-width: 0.5px; fill: rgb(0, 0, 0); fill-opacity: 0; stroke: rgb(0, 0, 0); stroke-opacity: 0;"/></g><g class="point"><path d="M416.05,155V111.2H425.02V155Z" style="vector-effect: none; opacity: 1; stroke-width: 0.5px; fill: rgb(0, 0, 0); fill-opacity: 0; stroke: rgb(0, 0, 0); stroke-opacity: 0;"/></g><g class="point"><path d="M427.26,155V80.9H436.24V155Z" style="vector-effect: none; opacity: 1; stroke-width: 0.5px; fill: rgb(0, 0, 0); fill-opacity: 0; stroke: rgb(0, 0, 0); stroke-opacity: 0;"/></g><g class="point"><path d="M438.48,155V58.42H447.45V155Z" style="vector-effect: none; opacity: 1; stroke-width: 0.5px; fill: rgb(0, 0, 0); fill-opacity: 0; stroke: rgb(0, 0, 0); stroke-opacity: 0;"/></g><g class="point"><path d="M449.69,155V58.42H458.66V155Z" style="vector-effect: none; opacity: 1; stroke-width: 0.5px; fill: rgb(0, 0, 0); fill-opacity: 0; stroke: rgb(0, 0, 0); stroke-opacity: 0;"/></g><g class="point"><path d="M460.91,155V155H469.88V155Z" style="vector-effect: none; opacity: 1; stroke-width: 0.5px; fill: rgb(0, 0, 0); fill-opacity: 0; stroke: rgb(0, 0, 0); stroke-opacity: 0;"/></g></g></g><g class="trace bars" shape-rendering="crispEdges" style="opacity: 1;"><g class="points"><g class="point"><path d="M1.12,155V130.18H10.09V155Z" style="vector-effect: none; opacity: 1; stroke-width: 0.5px; fill: rgb(76, 114, 176); fill-opacity: 0.6; stroke: rgb(0, 0, 0); stroke-opacity: 1;"/></g><g class="point"><path d="M12.34,130.18V121.89H21.31V130.18Z" style="vector-effect: none; opacity: 1; stroke-width: 0.5px; fill: rgb(72, 106, 161); fill-opacity: 0.6; stroke: rgb(0, 0, 0); stroke-opacity: 1;"/></g><g class="point"><path d="M23.55,121.89V85.95H32.52V121.89Z" style="vector-effect: none; opacity: 1; stroke-width: 0.5px; fill: rgb(67, 97, 147); fill-opacity: 0.6; stroke: rgb(0, 0, 0); stroke-opacity: 1;"/></g><g class="point"><path d="M34.76,85.95V59.93H43.74V85.95Z" style="vector-effect: none; opacity: 1; stroke-width: 0.5px; fill: rgb(63, 89, 131); fill-opacity: 0.6; stroke: rgb(0, 0, 0); stroke-opacity: 1;"/></g><g class="point"><path d="M45.98,59.93V56.74H54.95V59.93Z" style="vector-effect: none; opacity: 1; stroke-width: 0.5px; fill: rgb(58, 80, 117); fill-opacity: 0.6; stroke: rgb(0, 0, 0); stroke-opacity: 1;"/></g><g class="point"><path d="M57.19,56.74V56.74H66.16V56.74Z" style="vector-effect: none; opacity: 1; stroke-width: 0.5px; fill: rgb(54, 72, 101); fill-opacity: 0.6; stroke: rgb(0, 0, 0); stroke-opacity: 1;"/></g><g class="point"><path d="M68.41,155V56.74H77.38V155Z" style="vector-effect: none; opacity: 1; stroke-width: 0.5px; fill: rgb(49, 63, 86); fill-opacity: 0.6; stroke: rgb(0, 0, 0); stroke-opacity: 1;"/></g><g class="point"><path d="M79.62,155V130.18H88.59V155Z" style="vector-effect: none; opacity: 1; stroke-width: 0.5px; fill: rgb(100, 181, 205); fill-opacity: 0.6; stroke: rgb(0, 0, 0); stroke-opacity: 1;"/></g><g class="point"><path d="M90.84,130.18V121.89H99.81V130.18Z" style="vector-effect: none; opacity: 1; stroke-width: 0.5px; fill: rgb(93, 165, 187); fill-opacity: 0.6; stroke: rgb(0, 0, 0); stroke-opacity: 1;"/></g><g class="point"><path d="M102.05,121.89V85.95H111.02V121.89Z" style="vector-effect: none; opacity: 1; stroke-width: 0.5px; fill: rgb(86, 150, 169); fill-opacity: 0.6; stroke: rgb(0, 0, 0); stroke-opacity: 1;"/></g><g class="point"><path d="M113.26,85.95V60.96H122.24V85.95Z" style="vector-effect: none; opacity: 1; stroke-width: 0.5px; fill: rgb(79, 133, 150); fill-opacity: 0.6; stroke: rgb(0, 0, 0); stroke-opacity: 1;"/></g><g class="point"><path d="M124.48,60.96V60.96H133.45V60.96Z" style="vector-effect: none; opacity: 1; stroke-width: 0.5px; fill: rgb(71, 118, 132); fill-opacity: 0.6; stroke: rgb(0, 0, 0); stroke-opacity: 1;"/></g><g class="point"><path d="M135.69,60.96V60.96H144.66V60.96Z" style="vector-effect: none; opacity: 1; stroke-width: 0.5px; fill: rgb(64, 101, 113); fill-opacity: 0.6; stroke: rgb(0, 0, 0); stroke-opacity: 1;"/></g><g class="point"><path d="M146.91,155V60.96H155.88V155Z" style="vector-effect: none; opacity: 1; stroke-width: 0.5px; fill: rgb(57, 86, 94); fill-opacity: 0.6; stroke: rgb(0, 0, 0); stroke-opacity: 1;"/></g><g class="point"><path d="M158.12,155V127.69H167.09V155Z" style="vector-effect: none; opacity: 1; stroke-width: 0.5px; fill: rgb(196, 78, 82); fill-opacity: 0.6; stroke: rgb(0, 0, 0); stroke-opacity: 1;"/></g><g class="point"><path d="M169.34,127.69V118.58H178.31V127.69Z" style="vector-effect: none; opacity: 1; stroke-width: 0.5px; fill: rgb(179, 73, 77); fill-opacity: 0.6; stroke: rgb(0, 0, 0); stroke-opacity: 1;"/></g><g class="point"><path d="M180.55,118.58V80.74H189.52V118.58Z" style="vector-effect: none; opacity: 1; stroke-width: 0.5px; fill: rgb(163, 69, 72); fill-opacity: 0.6; stroke: rgb(0, 0, 0); stroke-opacity: 1;"/></g><g class="point"><path d="M191.76,80.74V51.41H200.74V80.74Z" style="vector-effect: none; opacity: 1; stroke-width: 0.5px; fill: rgb(145, 64, 67); fill-opacity: 0.6; stroke: rgb(0, 0, 0); stroke-opacity: 1;"/></g><g class="point"><path d="M202.98,51.41V49.12H211.95V51.41Z" style="vector-effect: none; opacity: 1; stroke-width: 0.5px; fill: rgb(129, 59, 62); fill-opacity: 0.6; stroke: rgb(0, 0, 0); stroke-opacity: 1;"/></g><g class="point"><path d="M214.19,49.12V49.12H223.16V49.12Z" style="vector-effect: none; opacity: 1; stroke-width: 0.5px; fill: rgb(111, 54, 56); fill-opacity: 0.6; stroke: rgb(0, 0, 0); stroke-opacity: 1;"/></g><g class="point"><path d="M225.41,155V49.12H234.38V155Z" style="vector-effect: none; opacity: 1; stroke-width: 0.5px; fill: rgb(95, 50, 51); fill-opacity: 0.6; stroke: rgb(0, 0, 0); stroke-opacity: 1;"/></g><g class="point"><path d="M236.62,155V127.69H245.59V155Z" style="vector-effect: none; opacity: 1; stroke-width: 0.5px; fill: rgb(221, 132, 82); fill-opacity: 0.6; stroke: rgb(0, 0, 0); stroke-opacity: 1;"/></g><g class="point"><path d="M247.84,127.69V118.58H256.81V127.69Z" style="vector-effect: none; opacity: 1; stroke-width: 0.5px; fill: rgb(201, 122, 77); fill-opacity: 0.6; stroke: rgb(0, 0, 0); stroke-opacity: 1;"/></g><g class="point"><path d="M259.05,118.58V80.74H268.02V118.58Z" style="vector-effect: none; opacity: 1; stroke-width: 0.5px; fill: rgb(182, 111, 72); fill-opacity: 0.6; stroke: rgb(0, 0, 0); stroke-opacity: 1;"/></g><g class="point"><path d="M270.26,80.74V42.13H279.24V80.74Z" style="vector-effect: none; opacity: 1; stroke-width: 0.5px; fill: rgb(161, 100, 66); fill-opacity: 0.6; stroke: rgb(0, 0, 0); stroke-opacity: 1;"/></g><g class="point"><path d="M281.48,42.13V42.13H290.45V42.13Z" style="vector-effect: none; opacity: 1; stroke-width: 0.5px; fill: rgb(142, 90, 61); fill-opacity: 0.6; stroke: rgb(0, 0, 0); stroke-opacity: 1;"/></g><g class="point"><path d="M292.69,42.13V42.13H301.66V42.13Z" style="vector-effect: none; opacity: 1; stroke-width: 0.5px; fill: rgb(121, 79, 56); fill-opacity: 0.6; stroke: rgb(0, 0, 0); stroke-opacity: 1;"/></g><g class="point"><path d="M303.91,155V42.13H312.88V155Z" style="vector-effect: none; opacity: 1; stroke-width: 0.5px; fill: rgb(102, 68, 51); fill-opacity: 0.6; stroke: rgb(0, 0, 0); stroke-opacity: 1;"/></g><g class="point"><path d="M315.12,155V120.96H324.09V155Z" style="vector-effect: none; opacity: 1; stroke-width: 0.5px; fill: rgb(85, 168, 104); fill-opacity: 0.6; stroke: rgb(0, 0, 0); stroke-opacity: 1;"/></g><g class="point"><path d="M326.34,120.96V109.61H335.31V120.96Z" style="vector-effect: none; opacity: 1; stroke-width: 0.5px; fill: rgb(80, 154, 96); fill-opacity: 0.6; stroke: rgb(0, 0, 0); stroke-opacity: 1;"/></g><g class="point"><path d="M337.55,109.61V79.95H346.52V109.61Z" style="vector-effect: none; opacity: 1; stroke-width: 0.5px; fill: rgb(74, 140, 89); fill-opacity: 0.6; stroke: rgb(0, 0, 0); stroke-opacity: 1;"/></g><g class="point"><path d="M348.76,79.95V71.5H357.74V79.95Z" style="vector-effect: none; opacity: 1; stroke-width: 0.5px; fill: rgb(68, 125, 81); fill-opacity: 0.6; stroke: rgb(0, 0, 0); stroke-opacity: 1;"/></g><g class="point"><path d="M359.98,71.5V71.5H368.95V71.5Z" style="vector-effect: none; opacity: 1; stroke-width: 0.5px; fill: rgb(63, 111, 74); fill-opacity: 0.6; stroke: rgb(0, 0, 0); stroke-opacity: 1;"/></g><g class="point"><path d="M371.19,71.5V67.08H380.16V71.5Z" style="vector-effect: none; opacity: 1; stroke-width: 0.5px; fill: rgb(57, 96, 66); fill-opacity: 0.6; stroke: rgb(0, 0, 0); stroke-opacity: 1;"/></g><g class="point"><path d="M382.41,155V67.08H391.38V155Z" style="vector-effect: none; opacity: 1; stroke-width: 0.5px; fill: rgb(52, 82, 58); fill-opacity: 0.6; stroke: rgb(0, 0, 0); stroke-opacity: 1;"/></g><g class="point"><path d="M393.62,155V122.16H402.59V155Z" style="vector-effect: none; opacity: 1; stroke-width: 0.5px; fill: rgb(204, 185, 116); fill-opacity: 0.6; stroke: rgb(0, 0, 0); stroke-opacity: 1;"/></g><g class="point"><path d="M404.84,122.16V111.2H413.81V122.16Z" style="vector-effect: none; opacity: 1; stroke-width: 0.5px; fill: rgb(186, 169, 107); fill-opacity: 0.6; stroke: rgb(0, 0, 0); stroke-opacity: 1;"/></g><g class="point"><path d="M416.05,111.2V80.9H425.02V111.2Z" style="vector-effect: none; opacity: 1; stroke-width: 0.5px; fill: rgb(168, 153, 98); fill-opacity: 0.6; stroke: rgb(0, 0, 0); stroke-opacity: 1;"/></g><g class="point"><path d="M427.26,80.9V58.42H436.24V80.9Z" style="vector-effect: none; opacity: 1; stroke-width: 0.5px; fill: rgb(149, 136, 89); fill-opacity: 0.6; stroke: rgb(0, 0, 0); stroke-opacity: 1;"/></g><g class="point"><path d="M438.48,58.42V58.42H447.45V58.42Z" style="vector-effect: none; opacity: 1; stroke-width: 0.5px; fill: rgb(131, 120, 80); fill-opacity: 0.6; stroke: rgb(0, 0, 0); stroke-opacity: 1;"/></g><g class="point"><path d="M449.69,58.42V45.57H458.66V58.42Z" style="vector-effect: none; opacity: 1; stroke-width: 0.5px; fill: rgb(112, 103, 71); fill-opacity: 0.6; stroke: rgb(0, 0, 0); stroke-opacity: 1;"/></g><g class="point"><path d="M460.91,155V45.57H469.88V155Z" style="vector-effect: none; opacity: 1; stroke-width: 0.5px; fill: rgb(94, 87, 62); fill-opacity: 0.6; stroke: rgb(0, 0, 0); stroke-opacity: 1;"/></g></g><g class="errorbar" style="opacity: 1;"><path class="yerror" d="M1.6100000000000003,130.18h8m-4,0V130.18m-4,0h8" style="vector-effect: none; stroke-width: 2px; stroke: rgb(42, 63, 95); stroke-opacity: 1;"/></g><g class="errorbar" style="opacity: 1;"><path class="yerror" d="M12.82,121.89h8m-4,0V121.89m-4,0h8" style="vector-effect: none; stroke-width: 2px; stroke: rgb(42, 63, 95); stroke-opacity: 1;"/></g><g class="errorbar" style="opacity: 1;"><path class="yerror" d="M24.04,85.95h8m-4,0V85.95m-4,0h8" style="vector-effect: none; stroke-width: 2px; stroke: rgb(42, 63, 95); stroke-opacity: 1;"/></g><g class="errorbar" style="opacity: 1;"><path class="yerror" d="M35.25,58.66h8m-4,0V64.9m-4,0h8" style="vector-effect: none; stroke-width: 2px; stroke: rgb(42, 63, 95); stroke-opacity: 1;"/></g><g class="errorbar" style="opacity: 1;"><path class="yerror" d="M46.46,53.55h8m-4,0V59.93m-4,0h8" style="vector-effect: none; stroke-width: 2px; stroke: rgb(42, 63, 95); stroke-opacity: 1;"/></g><g class="errorbar" style="opacity: 1;"><path class="yerror" d="M57.68,56.74h8m-4,0V56.74m-4,0h8" style="vector-effect: none; stroke-width: 2px; stroke: rgb(42, 63, 95); stroke-opacity: 1;"/></g><g class="errorbar" style="opacity: 1;"><path class="yerror" d="M68.89,52.28h8m-4,0V64.9m-4,0h8" style="vector-effect: none; stroke-width: 2px; stroke: rgb(42, 63, 95); stroke-opacity: 1;"/></g><g class="errorbar" style="opacity: 1;"><path class="yerror" d="M80.11,130.18h8m-4,0V130.18m-4,0h8" style="vector-effect: none; stroke-width: 2px; stroke: rgb(42, 63, 95); stroke-opacity: 1;"/></g><g class="errorbar" style="opacity: 1;"><path class="yerror" d="M91.32,121.89h8m-4,0V121.89m-4,0h8" style="vector-effect: none; stroke-width: 2px; stroke: rgb(42, 63, 95); stroke-opacity: 1;"/></g><g class="errorbar" style="opacity: 1;"><path class="yerror" d="M102.54,85.95h8m-4,0V85.95m-4,0h8" style="vector-effect: none; stroke-width: 2px; stroke: rgb(42, 63, 95); stroke-opacity: 1;"/></g><g class="errorbar" style="opacity: 1;"><path class="yerror" d="M113.75,57.48h8m-4,0V68.17m-4,0h8" style="vector-effect: none; stroke-width: 2px; stroke: rgb(42, 63, 95); stroke-opacity: 1;"/></g><g class="errorbar" style="opacity: 1;"><path class="yerror" d="M124.96000000000001,60.96h8m-4,0V60.96m-4,0h8" style="vector-effect: none; stroke-width: 2px; stroke: rgb(42, 63, 95); stroke-opacity: 1;"/></g><g class="errorbar" style="opacity: 1;"><path class="yerror" d="M136.18,60.96h8m-4,0V60.96m-4,0h8" style="vector-effect: none; stroke-width: 2px; stroke: rgb(42, 63, 95); stroke-opacity: 1;"/></g><g class="errorbar" style="opacity: 1;"><path class="yerror" d="M147.39,57.48h8m-4,0V68.17m-4,0h8" style="vector-effect: none; stroke-width: 2px; stroke: rgb(42, 63, 95); stroke-opacity: 1;"/></g><g class="errorbar" style="opacity: 1;"><path class="yerror" d="M158.61,127.69h8m-4,0V127.69m-4,0h8" style="vector-effect: none; stroke-width: 2px; stroke: rgb(42, 63, 95); stroke-opacity: 1;"/></g><g class="errorbar" style="opacity: 1;"><path class="yerror" d="M169.82,118.58h8m-4,0V118.58m-4,0h8" style="vector-effect: none; stroke-width: 2px; stroke: rgb(42, 63, 95); stroke-opacity: 1;"/></g><g class="errorbar" style="opacity: 1;"><path class="yerror" d="M181.04,80.74h8m-4,0V80.74m-4,0h8" style="vector-effect: none; stroke-width: 2px; stroke: rgb(42, 63, 95); stroke-opacity: 1;"/></g><g class="errorbar" style="opacity: 1;"><path class="yerror" d="M192.25,50.69h8m-4,0V52.94m-4,0h8" style="vector-effect: none; stroke-width: 2px; stroke: rgb(42, 63, 95); stroke-opacity: 1;"/></g><g class="errorbar" style="opacity: 1;"><path class="yerror" d="M203.46,46.84h8m-4,0V51.41m-4,0h8" style="vector-effect: none; stroke-width: 2px; stroke: rgb(42, 63, 95); stroke-opacity: 1;"/></g><g class="errorbar" style="opacity: 1;"><path class="yerror" d="M214.68,49.12h8m-4,0V49.12m-4,0h8" style="vector-effect: none; stroke-width: 2px; stroke: rgb(42, 63, 95); stroke-opacity: 1;"/></g><g class="errorbar" style="opacity: 1;"><path class="yerror" d="M225.89,46.13h8m-4,0V52.94m-4,0h8" style="vector-effect: none; stroke-width: 2px; stroke: rgb(42, 63, 95); stroke-opacity: 1;"/></g><g class="errorbar" style="opacity: 1;"><path class="yerror" d="M237.11,127.69h8m-4,0V127.69m-4,0h8" style="vector-effect: none; stroke-width: 2px; stroke: rgb(42, 63, 95); stroke-opacity: 1;"/></g><g class="errorbar" style="opacity: 1;"><path class="yerror" d="M248.32,118.58h8m-4,0V118.58m-4,0h8" style="vector-effect: none; stroke-width: 2px; stroke: rgb(42, 63, 95); stroke-opacity: 1;"/></g><g class="errorbar" style="opacity: 1;"><path class="yerror" d="M259.54,80.74h8m-4,0V80.74m-4,0h8" style="vector-effect: none; stroke-width: 2px; stroke: rgb(42, 63, 95); stroke-opacity: 1;"/></g><g class="errorbar" style="opacity: 1;"><path class="yerror" d="M270.75,33.34h8m-4,0V56.78m-4,0h8" style="vector-effect: none; stroke-width: 2px; stroke: rgb(42, 63, 95); stroke-opacity: 1;"/></g><g class="errorbar" style="opacity: 1;"><path class="yerror" d="M281.96,42.13h8m-4,0V42.13m-4,0h8" style="vector-effect: none; stroke-width: 2px; stroke: rgb(42, 63, 95); stroke-opacity: 1;"/></g><g class="errorbar" style="opacity: 1;"><path class="yerror" d="M293.18,42.13h8m-4,0V42.13m-4,0h8" style="vector-effect: none; stroke-width: 2px; stroke: rgb(42, 63, 95); stroke-opacity: 1;"/></g><g class="errorbar" style="opacity: 1;"><path class="yerror" d="M304.39,33.34h8m-4,0V56.78m-4,0h8" style="vector-effect: none; stroke-width: 2px; stroke: rgb(42, 63, 95); stroke-opacity: 1;"/></g><g class="errorbar" style="opacity: 1;"><path class="yerror" d="M315.61,120.37h8m-4,0V129.24m-4,0h8" style="vector-effect: none; stroke-width: 2px; stroke: rgb(42, 63, 95); stroke-opacity: 1;"/></g><g class="errorbar" style="opacity: 1;"><path class="yerror" d="M326.82,109.41h8m-4,0V112.37m-4,0h8" style="vector-effect: none; stroke-width: 2px; stroke: rgb(42, 63, 95); stroke-opacity: 1;"/></g><g class="errorbar" style="opacity: 1;"><path class="yerror" d="M338.04,79.95h8m-4,0V79.95m-4,0h8" style="vector-effect: none; stroke-width: 2px; stroke: rgb(42, 63, 95); stroke-opacity: 1;"/></g><g class="errorbar" style="opacity: 1;"><path class="yerror" d="M349.25,69.97h8m-4,0V72.27m-4,0h8" style="vector-effect: none; stroke-width: 2px; stroke: rgb(42, 63, 95); stroke-opacity: 1;"/></g><g class="errorbar" style="opacity: 1;"><path class="yerror" d="M360.46,71.5h8m-4,0V71.5m-4,0h8" style="vector-effect: none; stroke-width: 2px; stroke: rgb(42, 63, 95); stroke-opacity: 1;"/></g><g class="errorbar" style="opacity: 1;"><path class="yerror" d="M371.68,63.82h8m-4,0V67.89m-4,0h8" style="vector-effect: none; stroke-width: 2px; stroke: rgb(42, 63, 95); stroke-opacity: 1;"/></g><g class="errorbar" style="opacity: 1;"><path class="yerror" d="M382.89,61.5h8m-4,0V79.7m-4,0h8" style="vector-effect: none; stroke-width: 2px; stroke: rgb(42, 63, 95); stroke-opacity: 1;"/></g><g class="errorbar" style="opacity: 1;"><path class="yerror" d="M394.11,122.16h8m-4,0V125.19m-4,0h8" style="vector-effect: none; stroke-width: 2px; stroke: rgb(42, 63, 95); stroke-opacity: 1;"/></g><g class="errorbar" style="opacity: 1;"><path class="yerror" d="M405.32,111.2h8m-4,0V112.21m-4,0h8" style="vector-effect: none; stroke-width: 2px; stroke: rgb(42, 63, 95); stroke-opacity: 1;"/></g><g class="errorbar" style="opacity: 1;"><path class="yerror" d="M416.54,80.9h8m-4,0V80.9m-4,0h8" style="vector-effect: none; stroke-width: 2px; stroke: rgb(42, 63, 95); stroke-opacity: 1;"/></g><g class="errorbar" style="opacity: 1;"><path class="yerror" d="M427.75,47.01h8m-4,0V64.43m-4,0h8" style="vector-effect: none; stroke-width: 2px; stroke: rgb(42, 63, 95); stroke-opacity: 1;"/></g><g class="errorbar" style="opacity: 1;"><path class="yerror" d="M438.96,58.42h8m-4,0V58.42m-4,0h8" style="vector-effect: none; stroke-width: 2px; stroke: rgb(42, 63, 95); stroke-opacity: 1;"/></g><g class="errorbar" style="opacity: 1;"><path class="yerror" d="M450.18,19.16h8m-4,0V46.97m-4,0h8" style="vector-effect: none; stroke-width: 2px; stroke: rgb(42, 63, 95); stroke-opacity: 1;"/></g><g class="errorbar" style="opacity: 1;"><path class="yerror" d="M461.39,7.75h8m-4,0V57.03m-4,0h8" style="vector-effect: none; stroke-width: 2px; stroke: rgb(42, 63, 95); stroke-opacity: 1;"/></g></g></g></g></g><path class="xlines-above crisp" d="M0,0" style="fill: none;"/><path class="ylines-above crisp" d="M0,0" style="fill: none;"/><g class="overlines-above"/><g class="xaxislayer-above"><path class="xdivider crisp" transform="translate(500,0)" d="M0,156v44.921875" style="stroke: rgb(68, 68, 68); stroke-opacity: 1; stroke-width: 1px;"/><path class="xdivider crisp" transform="translate(421.5,0)" d="M0,156v44.921875" style="stroke: rgb(68, 68, 68); stroke-opacity: 1; stroke-width: 1px;"/><path class="xdivider crisp" transform="translate(343,0)" d="M0,156v44.921875" style="stroke: rgb(68, 68, 68); stroke-opacity: 1; stroke-width: 1px;"/><path class="xdivider crisp" transform="translate(264.5,0)" d="M0,156v44.921875" style="stroke: rgb(68, 68, 68); stroke-opacity: 1; stroke-width: 1px;"/><path class="xdivider crisp" transform="translate(186,0)" d="M0,156v44.921875" style="stroke: rgb(68, 68, 68); stroke-opacity: 1; stroke-width: 1px;"/><path class="xdivider crisp" transform="translate(107.5,0)" d="M0,156v44.921875" style="stroke: rgb(68, 68, 68); stroke-opacity: 1; stroke-width: 1px;"/><path class="xdivider crisp" transform="translate(29,0)" d="M0,156v44.921875" style="stroke: rgb(68, 68, 68); stroke-opacity: 1; stroke-width: 1px;"/><g class="xtick"><text text-anchor="start" x="0" y="162" transform="translate(34.61,0) rotate(90,0,159)" style="font-family: 'CMU Serif'; font-size: 6px; fill: rgb(0, 0, 0); fill-opacity: 1; white-space: pre; opacity: 1;">CAPEX</text></g><g class="xtick"><text text-anchor="start" x="0" y="162" transform="translate(45.82,0) rotate(90,0,159)" style="font-family: 'CMU Serif'; font-size: 6px; fill: rgb(0, 0, 0); fill-opacity: 1; white-space: pre; opacity: 1;">FIXOM</text></g><g class="xtick"><text text-anchor="start" x="0" y="162" transform="translate(57.04,0) rotate(90,0,159)" style="font-family: 'CMU Serif'; font-size: 6px; fill: rgb(0, 0, 0); fill-opacity: 1; white-space: pre; opacity: 1;">VAROM</text></g><g class="xtick"><text text-anchor="start" x="0" y="162" transform="translate(68.25,0) rotate(90,0,159)" style="font-family: 'CMU Serif'; font-size: 6px; fill: rgb(0, 0, 0); fill-opacity: 1; white-space: pre; opacity: 1;">ENERGY</text></g><g class="xtick"><text text-anchor="start" x="0" y="162" transform="translate(79.46000000000001,0) rotate(90,0,159)" style="font-family: 'CMU Serif'; font-size: 6px; fill: rgb(0, 0, 0); fill-opacity: 1; white-space: pre; opacity: 1;">ETS</text></g><g class="xtick"><text text-anchor="start" x="0" y="162" transform="translate(90.68,0) rotate(90,0,159)" style="font-family: 'CMU Serif'; font-size: 6px; fill: rgb(0, 0, 0); fill-opacity: 1; white-space: pre; opacity: 1;">RE-INFR</text></g><g class="xtick"><text text-anchor="start" x="0" y="162" transform="translate(101.89,0) rotate(90,0,159)" style="font-family: 'CMU Serif'; font-size: 6px; fill: rgb(0, 0, 0); fill-opacity: 1; white-space: pre; opacity: 1;">TOTAL</text></g><g class="xtick"><text text-anchor="start" x="0" y="162" transform="translate(113.11,0) rotate(90,0,159)" style="font-family: 'CMU Serif'; font-size: 6px; fill: rgb(0, 0, 0); fill-opacity: 1; white-space: pre; opacity: 1;">CAPEX</text></g><g class="xtick"><text text-anchor="start" x="0" y="162" transform="translate(124.32,0) rotate(90,0,159)" style="font-family: 'CMU Serif'; font-size: 6px; fill: rgb(0, 0, 0); fill-opacity: 1; white-space: pre; opacity: 1;">FIXOM</text></g><g class="xtick"><text text-anchor="start" x="0" y="162" transform="translate(135.54000000000002,0) rotate(90,0,159)" style="font-family: 'CMU Serif'; font-size: 6px; fill: rgb(0, 0, 0); fill-opacity: 1; white-space: pre; opacity: 1;">VAROM</text></g><g class="xtick"><text text-anchor="start" x="0" y="162" transform="translate(146.75,0) rotate(90,0,159)" style="font-family: 'CMU Serif'; font-size: 6px; fill: rgb(0, 0, 0); fill-opacity: 1; white-space: pre; opacity: 1;">ENERGY</text></g><g class="xtick"><text text-anchor="start" x="0" y="162" transform="translate(157.96,0) rotate(90,0,159)" style="font-family: 'CMU Serif'; font-size: 6px; fill: rgb(0, 0, 0); fill-opacity: 1; white-space: pre; opacity: 1;">ETS</text></g><g class="xtick"><text text-anchor="start" x="0" y="162" transform="translate(169.18,0) rotate(90,0,159)" style="font-family: 'CMU Serif'; font-size: 6px; fill: rgb(0, 0, 0); fill-opacity: 1; white-space: pre; opacity: 1;">RE-INFR</text></g><g class="xtick"><text text-anchor="start" x="0" y="162" transform="translate(180.39,0) rotate(90,0,159)" style="font-family: 'CMU Serif'; font-size: 6px; fill: rgb(0, 0, 0); fill-opacity: 1; white-space: pre; opacity: 1;">TOTAL</text></g><g class="xtick"><text text-anchor="start" x="0" y="162" transform="translate(191.61,0) rotate(90,0,159)" style="font-family: 'CMU Serif'; font-size: 6px; fill: rgb(0, 0, 0); fill-opacity: 1; white-space: pre; opacity: 1;">CAPEX</text></g><g class="xtick"><text text-anchor="start" x="0" y="162" transform="translate(202.82,0) rotate(90,0,159)" style="font-family: 'CMU Serif'; font-size: 6px; fill: rgb(0, 0, 0); fill-opacity: 1; white-space: pre; opacity: 1;">FIXOM</text></g><g class="xtick"><text text-anchor="start" x="0" y="162" transform="translate(214.04,0) rotate(90,0,159)" style="font-family: 'CMU Serif'; font-size: 6px; fill: rgb(0, 0, 0); fill-opacity: 1; white-space: pre; opacity: 1;">VAROM</text></g><g class="xtick"><text text-anchor="start" x="0" y="162" transform="translate(225.25,0) rotate(90,0,159)" style="font-family: 'CMU Serif'; font-size: 6px; fill: rgb(0, 0, 0); fill-opacity: 1; white-space: pre; opacity: 1;">ENERGY</text></g><g class="xtick"><text text-anchor="start" x="0" y="162" transform="translate(236.46,0) rotate(90,0,159)" style="font-family: 'CMU Serif'; font-size: 6px; fill: rgb(0, 0, 0); fill-opacity: 1; white-space: pre; opacity: 1;">ETS</text></g><g class="xtick"><text text-anchor="start" x="0" y="162" transform="translate(247.68,0) rotate(90,0,159)" style="font-family: 'CMU Serif'; font-size: 6px; fill: rgb(0, 0, 0); fill-opacity: 1; white-space: pre; opacity: 1;">RE-INFR</text></g><g class="xtick"><text text-anchor="start" x="0" y="162" transform="translate(258.89,0) rotate(90,0,159)" style="font-family: 'CMU Serif'; font-size: 6px; fill: rgb(0, 0, 0); fill-opacity: 1; white-space: pre; opacity: 1;">TOTAL</text></g><g class="xtick"><text text-anchor="start" x="0" y="162" transform="translate(270.11,0) rotate(90,0,159)" style="font-family: 'CMU Serif'; font-size: 6px; fill: rgb(0, 0, 0); fill-opacity: 1; white-space: pre; opacity: 1;">CAPEX</text></g><g class="xtick"><text text-anchor="start" x="0" y="162" transform="translate(281.32,0) rotate(90,0,159)" style="font-family: 'CMU Serif'; font-size: 6px; fill: rgb(0, 0, 0); fill-opacity: 1; white-space: pre; opacity: 1;">FIXOM</text></g><g class="xtick"><text text-anchor="start" x="0" y="162" transform="translate(292.54,0) rotate(90,0,159)" style="font-family: 'CMU Serif'; font-size: 6px; fill: rgb(0, 0, 0); fill-opacity: 1; white-space: pre; opacity: 1;">VAROM</text></g><g class="xtick"><text text-anchor="start" x="0" y="162" transform="translate(303.75,0) rotate(90,0,159)" style="font-family: 'CMU Serif'; font-size: 6px; fill: rgb(0, 0, 0); fill-opacity: 1; white-space: pre; opacity: 1;">ENERGY</text></g><g class="xtick"><text text-anchor="start" x="0" y="162" transform="translate(314.96,0) rotate(90,0,159)" style="font-family: 'CMU Serif'; font-size: 6px; fill: rgb(0, 0, 0); fill-opacity: 1; white-space: pre; opacity: 1;">ETS</text></g><g class="xtick"><text text-anchor="start" x="0" y="162" transform="translate(326.18,0) rotate(90,0,159)" style="font-family: 'CMU Serif'; font-size: 6px; fill: rgb(0, 0, 0); fill-opacity: 1; white-space: pre; opacity: 1;">RE-INFR</text></g><g class="xtick"><text text-anchor="start" x="0" y="162" transform="translate(337.39,0) rotate(90,0,159)" style="font-family: 'CMU Serif'; font-size: 6px; fill: rgb(0, 0, 0); fill-opacity: 1; white-space: pre; opacity: 1;">TOTAL</text></g><g class="xtick"><text text-anchor="start" x="0" y="162" transform="translate(348.61,0) rotate(90,0,159)" style="font-family: 'CMU Serif'; font-size: 6px; fill: rgb(0, 0, 0); fill-opacity: 1; white-space: pre; opacity: 1;">CAPEX</text></g><g class="xtick"><text text-anchor="start" x="0" y="162" transform="translate(359.82,0) rotate(90,0,159)" style="font-family: 'CMU Serif'; font-size: 6px; fill: rgb(0, 0, 0); fill-opacity: 1; white-space: pre; opacity: 1;">FIXOM</text></g><g class="xtick"><text text-anchor="start" x="0" y="162" transform="translate(371.04,0) rotate(90,0,159)" style="font-family: 'CMU Serif'; font-size: 6px; fill: rgb(0, 0, 0); fill-opacity: 1; white-space: pre; opacity: 1;">VAROM</text></g><g class="xtick"><text text-anchor="start" x="0" y="162" transform="translate(382.25,0) rotate(90,0,159)" style="font-family: 'CMU Serif'; font-size: 6px; fill: rgb(0, 0, 0); fill-opacity: 1; white-space: pre; opacity: 1;">ENERGY</text></g><g class="xtick"><text text-anchor="start" x="0" y="162" transform="translate(393.46,0) rotate(90,0,159)" style="font-family: 'CMU Serif'; font-size: 6px; fill: rgb(0, 0, 0); fill-opacity: 1; white-space: pre; opacity: 1;">ETS</text></g><g class="xtick"><text text-anchor="start" x="0" y="162" transform="translate(404.68,0) rotate(90,0,159)" style="font-family: 'CMU Serif'; font-size: 6px; fill: rgb(0, 0, 0); fill-opacity: 1; white-space: pre; opacity: 1;">RE-INFR</text></g><g class="xtick"><text text-anchor="start" x="0" y="162" transform="translate(415.89,0) rotate(90,0,159)" style="font-family: 'CMU Serif'; font-size: 6px; fill: rgb(0, 0, 0); fill-opacity: 1; white-space: pre; opacity: 1;">TOTAL</text></g><g class="xtick"><text text-anchor="start" x="0" y="162" transform="translate(427.11,0) rotate(90,0,159)" style="font-family: 'CMU Serif'; font-size: 6px; fill: rgb(0, 0, 0); fill-opacity: 1; white-space: pre; opacity: 1;">CAPEX</text></g><g class="xtick"><text text-anchor="start" x="0" y="162" transform="translate(438.32,0) rotate(90,0,159)" style="font-family: 'CMU Serif'; font-size: 6px; fill: rgb(0, 0, 0); fill-opacity: 1; white-space: pre; opacity: 1;">FIXOM</text></g><g class="xtick"><text text-anchor="start" x="0" y="162" transform="translate(449.54,0) rotate(90,0,159)" style="font-family: 'CMU Serif'; font-size: 6px; fill: rgb(0, 0, 0); fill-opacity: 1; white-space: pre; opacity: 1;">VAROM</text></g><g class="xtick"><text text-anchor="start" x="0" y="162" transform="translate(460.75,0) rotate(90,0,159)" style="font-family: 'CMU Serif'; font-size: 6px; fill: rgb(0, 0, 0); fill-opacity: 1; white-space: pre; opacity: 1;">ENERGY</text></g><g class="xtick"><text text-anchor="start" x="0" y="162" transform="translate(471.96,0) rotate(90,0,159)" style="font-family: 'CMU Serif'; font-size: 6px; fill: rgb(0, 0, 0); fill-opacity: 1; white-space: pre; opacity: 1;">ETS</text></g><g class="xtick"><text text-anchor="start" x="0" y="162" transform="translate(483.18,0) rotate(90,0,159)" style="font-family: 'CMU Serif'; font-size: 6px; fill: rgb(0, 0, 0); fill-opacity: 1; white-space: pre; opacity: 1;">RE-INFR</text></g><g class="xtick"><text text-anchor="start" x="0" y="162" transform="translate(494.39,0) rotate(90,0,159)" style="font-family: 'CMU Serif'; font-size: 6px; fill: rgb(0, 0, 0); fill-opacity: 1; white-space: pre; opacity: 1;">TOTAL</text></g><g class="xtick2"><text text-anchor="middle" x="0" y="198.409375" transform="translate(68.25,0)" style="font-family: 'CMU Serif'; font-size: 6px; fill: rgb(0, 0, 0); fill-opacity: 1; white-space: pre; opacity: 1;">DIESEL</text></g><g class="xtick2"><text text-anchor="middle" x="0" y="198.409375" transform="translate(146.75,0)" style="font-family: 'CMU Serif'; font-size: 6px; fill: rgb(0, 0, 0); fill-opacity: 1; white-space: pre; opacity: 1;">HVO</text></g><g class="xtick2"><text text-anchor="middle" x="0" y="198.409375" transform="translate(225.25,0)" style="font-family: 'CMU Serif'; font-size: 6px; fill: rgb(0, 0, 0); fill-opacity: 1; white-space: pre; opacity: 1;">LNG</text></g><g class="xtick2"><text text-anchor="middle" x="0" y="198.409375" transform="translate(303.75,0)" style="font-family: 'CMU Serif'; font-size: 6px; fill: rgb(0, 0, 0); fill-opacity: 1; white-space: pre; opacity: 1;">BIO-LNG</text></g><g class="xtick2"><text text-anchor="middle" x="0" y="198.409375" transform="translate(382.25,0)" style="font-family: 'CMU Serif'; font-size: 6px; fill: rgb(0, 0, 0); fill-opacity: 1; white-space: pre; opacity: 1;">BEV</text></g><g class="xtick2"><text text-anchor="middle" x="0" y="198.409375" transform="translate(460.75,0)" style="font-family: 'CMU Serif'; font-size: 6px; fill: rgb(0, 0, 0); fill-opacity: 1; white-space: pre; opacity: 1;">FCEV</text></g></g><g class="yaxislayer-above"><g class="ytick"><text text-anchor="end" x="28" y="2.0999999999999996" transform="translate(0,155)" style="font-family: 'CMU Serif'; font-size: 6px; fill: rgb(0, 0, 0); fill-opacity: 1; white-space: pre; opacity: 1;">0.0</text></g><g class="ytick"><text text-anchor="end" x="28" y="2.0999999999999996" style="font-family: 'CMU Serif'; font-size: 6px; fill: rgb(0, 0, 0); fill-opacity: 1; white-space: pre; opacity: 1;" transform="translate(0,142.21)">0.1</text></g><g class="ytick"><text text-anchor="end" x="28" y="2.0999999999999996" style="font-family: 'CMU Serif'; font-size: 6px; fill: rgb(0, 0, 0); fill-opacity: 1; white-space: pre; opacity: 1;" transform="translate(0,129.41)">0.2</text></g><g class="ytick"><text text-anchor="end" x="28" y="2.0999999999999996" style="font-family: 'CMU Serif'; font-size: 6px; fill: rgb(0, 0, 0); fill-opacity: 1; white-space: pre; opacity: 1;" transform="translate(0,116.62)">0.3</text></g><g class="ytick"><text text-anchor="end" x="28" y="2.0999999999999996" style="font-family: 'CMU Serif'; font-size: 6px; fill: rgb(0, 0, 0); fill-opacity: 1; white-space: pre; opacity: 1;" transform="translate(0,103.82)">0.4</text></g><g class="ytick"><text text-anchor="end" x="28" y="2.0999999999999996" style="font-family: 'CMU Serif'; font-size: 6px; fill: rgb(0, 0, 0); fill-opacity: 1; white-space: pre; opacity: 1;" transform="translate(0,91.03)">0.5</text></g><g class="ytick"><text text-anchor="end" x="28" y="2.0999999999999996" style="font-family: 'CMU Serif'; font-size: 6px; fill: rgb(0, 0, 0); fill-opacity: 1; white-space: pre; opacity: 1;" transform="translate(0,78.24)">0.6</text></g><g class="ytick"><text text-anchor="end" x="28" y="2.0999999999999996" style="font-family: 'CMU Serif'; font-size: 6px; fill: rgb(0, 0, 0); fill-opacity: 1; white-space: pre; opacity: 1;" transform="translate(0,65.44)">0.7</text></g><g class="ytick"><text text-anchor="end" x="28" y="2.0999999999999996" style="font-family: 'CMU Serif'; font-size: 6px; fill: rgb(0, 0, 0); fill-opacity: 1; white-space: pre; opacity: 1;" transform="translate(0,52.65)">0.8</text></g><g class="ytick"><text text-anchor="end" x="28" y="2.0999999999999996" style="font-family: 'CMU Serif'; font-size: 6px; fill: rgb(0, 0, 0); fill-opacity: 1; white-space: pre; opacity: 1;" transform="translate(0,39.85)">0.9</text></g></g><g class="overaxes-above"/></g></g><g class="polarlayer"/><g class="smithlayer"/><g class="ternarylayer"/><g class="geolayer"/><g class="funnelarealayer"/><g class="pielayer"/><g class="iciclelayer"/><g class="treemaplayer"/><g class="sunburstlayer"/><g class="glimages"/><defs id="topdefs-af32c4"><g class="clips"/></defs><g class="layer-above"><g class="imagelayer"/><g class="shapelayer"><g class="shape-group" data-index="0" clip-path="url(#clipaf32c4y)"><path data-index="0" fill-rule="evenodd" d="M29,56.74L500,56.74" style="opacity: 1; stroke: rgb(165, 42, 42); stroke-opacity: 1; fill: rgb(0, 0, 0); fill-opacity: 0; stroke-dasharray: 9px, 9px; stroke-width: 1px;"/></g></g></g><g class="infolayer"><g class="g-gtitle"/><g class="g-xtitle"/><g class="g-ytitle" transform="translate(3.6220703125,0)"><text class="ytitle" transform="rotate(-90,3.3781250000000007,77.5)" x="3.3781250000000007" y="77.5" text-anchor="middle" style="opacity: 1; font-family: 'CMU Serif'; font-size: 7px; fill: rgb(0, 0, 0); fill-opacity: 1; white-space: pre;">EUR/v.km</text></g></g></svg>