<svg class="main-svg" xmlns="http://www.w3.org/2000/svg" xmlns:xlink="http://www.w3.org/1999/xlink" width="500" height="200" style="" viewBox="0 0 500 200"><rect x="0" y="0" width="500" height="200" style="fill: rgb(0, 0, 0); fill-opacity: 0;"/><defs id="defs-507d3c"><g class="clips"><clipPath id="clip507d3cxyplot" class="plotclip"><rect width="471" height="155"/></clipPath><clipPath class="axesclip" id="clip507d3cx"><rect x="29" y="0" width="471" height="200"/></clipPath><clipPath class="axesclip" id="clip507d3cy"><rect x="0" y="0" width="500" height="155"/></clipPath><clipPath class="axesclip" id="clip507d3cxy"><rect x="29" y="0" width="471" height="155"/></clipPath></g><g class="gradients"/><g class="patterns"/></defs><g class="bglayer"><rect class="bg" x="29" y="0" width="471" height="155" style="fill: rgb(0, 0, 0); fill-opacity: 0; stroke-width: 0;"/></g><g class="layer-below"><g class="imagelayer"/><g class="shapelayer"/></g><g class="cartesianlayer"><g class="subplot xy"><g class="layer-subplot"><g class="shapelayer"/><g class="imagelayer"/></g><g class="minor-gridlayer"><g class="x"/><g class="y"/></g><g class="gridlayer"><g class="x"/><g class="y"><path class="ygrid crisp" transform="translate(0,144.56)" d="M29,0h471" style="stroke: rgb(255, 255, 255); stroke-opacity: 1; stroke-width: 1px;"/><path class="ygrid crisp" transform="translate(0,134.12)" d="M29,0h471" style="stroke: rgb(255, 255, 255); stroke-opacity: 1; stroke-width: 1px;"/><path class="ygrid crisp" transform="translate(0,123.67)" d="M29,0h471" style="stroke: rgb(255, 255, 255); stroke-opacity: 1; stroke-width: 1px;"/><path class="ygrid crisp" transform="translate(0,113.23)" d="M29,0h471" style="stroke: rgb(255, 255, 255); stroke-opacity: 1; stroke-width: 1px;"/><path class="ygrid crisp" transform="translate(0,102.79)" d="M29,0h471" style="stroke: rgb(255, 255, 255); stroke-opacity: 1; stroke-width: 1px;"/><path class="ygrid crisp" transform="translate(0,92.35)" d="M29,0h471" style="stroke: rgb(255, 255, 255); stroke-opacity: 1; stroke-width: 1px;"/><path class="ygrid crisp" transform="translate(0,81.91)" d="M29,0h471" style="stroke: rgb(255, 255, 255); stroke-opacity: 1; stroke-width: 1px;"/><path class="ygrid crisp" transform="translate(0,71.47)" d="M29,0h471" style="stroke: rgb(255, 255, 255); stroke-opacity: 1; stroke-width: 1px;"/><path class="ygrid crisp" transform="translate(0,61.02)" d="M29,0h471" style="stroke: rgb(255, 255, 255); stroke-opacity: 1; stroke-width: 1px;"/><path class="ygrid crisp" transform="translate(0,50.58)" d="M29,0h471" style="stroke: rgb(255, 255, 255); stroke-opacity: 1; stroke-width: 1px;"/><path class="ygrid crisp" transform="translate(0,40.14)" d="M29,0h471" style="stroke: rgb(255, 255, 255); stroke-opacity: 1; stroke-width: 1px;"/></g></g><g class="zerolinelayer"><path class="yzl zl crisp" transform="translate(0,155)" d="M29,0h471" style="stroke: rgb(255, 255, 255); stroke-opacity: 1; stroke-width: 2px;"/></g><g class="layer-between"><g class="shapelayer"/><g class="imagelayer"/></g><path class="xlines-below"/><path class="ylines-below"/><g class="overlines-below"/><g class="xaxislayer-below"/><g class="yaxislayer-below"/><g class="overaxes-below"/><g class="overplot"><g class="xy" transform="translate(29,0)" clip-path="url(#clip507d3cxyplot)"><g class="barlayer mlayer"><g class="trace bars" shape-rendering="crispEdges" style="opacity: 1;"><g class="points"><g class="point"><path d="M1.12,155V155H10.09V155Z" style="vector-effect: none; opacity: 1; stroke-width: 0.5px; fill: rgb(0, 0, 0); fill-opacity: 0; stroke: rgb(0, 0, 0); stroke-opacity: 0;"/></g><g class="point"><path d="M12.34,155V132.74H21.31V155Z" style="vector-effect: none; opacity: 1; stroke-width: 0.5px; fill: rgb(0, 0, 0); fill-opacity: 0; stroke: rgb(0, 0, 0); stroke-opacity: 0;"/></g><g class="point"><path d="M23.55,155V125.31H32.52V155Z" style="vector-effect: none; opacity: 1; stroke-width: 0.5px; fill: rgb(0, 0, 0); fill-opacity: 0; stroke: rgb(0, 0, 0); stroke-opacity: 0;"/></g><g class="point"><path d="M34.76,155V93.31H43.74V155Z" style="vector-effect: none; opacity: 1; stroke-width: 0.5px; fill: rgb(0, 0, 0); fill-opacity: 0; stroke: rgb(0, 0, 0); stroke-opacity: 0;"/></g><g class="point"><path d="M45.98,155V64.1H54.95V155Z" style="vector-effect: none; opacity: 1; stroke-width: 0.5px; fill: rgb(0, 0, 0); fill-opacity: 0; stroke: rgb(0, 0, 0); stroke-opacity: 0;"/></g><g class="point"><path d="M57.19,155V60.51H66.16V155Z" style="vector-effect: none; opacity: 1; stroke-width: 0.5px; fill: rgb(0, 0, 0); fill-opacity: 0; stroke: rgb(0, 0, 0); stroke-opacity: 0;"/></g><g class="point"><path d="M68.41,155V155H77.38V155Z" style="vector-effect: none; opacity: 1; stroke-width: 0.5px; fill: rgb(0, 0, 0); fill-opacity: 0; stroke: rgb(0, 0, 0); stroke-opacity: 0;"/></g><g class="point"><path d="M79.62,155V155H88.59V155Z" style="vector-effect: none; opacity: 1; stroke-width: 0.5px; fill: rgb(0, 0, 0); fill-opacity: 0; stroke: rgb(0, 0, 0); stroke-opacity: 0;"/></g><g class="point"><path d="M90.84,155V132.74H99.81V155Z" style="vector-effect: none; opacity: 1; stroke-width: 0.5px; fill: rgb(0, 0, 0); fill-opacity: 0; stroke: rgb(0, 0, 0); stroke-opacity: 0;"/></g><g class="point"><path d="M102.05,155V125.31H111.02V155Z" style="vector-effect: none; opacity: 1; stroke-width: 0.5px; fill: rgb(0, 0, 0); fill-opacity: 0; stroke: rgb(0, 0, 0); stroke-opacity: 0;"/></g><g class="point"><path d="M113.26,155V93.31H122.24V155Z" style="vector-effect: none; opacity: 1; stroke-width: 0.5px; fill: rgb(0, 0, 0); fill-opacity: 0; stroke: rgb(0, 0, 0); stroke-opacity: 0;"/></g><g class="point"><path d="M124.48,155V65.25H133.45V155Z" style="vector-effect: none; opacity: 1; stroke-width: 0.5px; fill: rgb(0, 0, 0); fill-opacity: 0; stroke: rgb(0, 0, 0); stroke-opacity: 0;"/></g><g class="point"><path d="M135.69,155V65.25H144.66V155Z" style="vector-effect: none; opacity: 1; stroke-width: 0.5px; fill: rgb(0, 0, 0); fill-opacity: 0; stroke: rgb(0, 0, 0); stroke-opacity: 0;"/></g><g class="point"><path d="M146.91,155V155H155.88V155Z" style="vector-effect: none; opacity: 1; stroke-width: 0.5px; fill: rgb(0, 0, 0); fill-opacity: 0; stroke: rgb(0, 0, 0); stroke-opacity: 0;"/></g><g class="point"><path d="M158.12,155V155H167.09V155Z" style="vector-effect: none; opacity: 1; stroke-width: 0.5px; fill: rgb(0, 0, 0); fill-opacity: 0; stroke: rgb(0, 0, 0); stroke-opacity: 0;"/></g><g class="point"><path d="M169.34,155V130.51H178.31V155Z" style="vector-effect: none; opacity: 1; stroke-width: 0.5px; fill: rgb(0, 0, 0); fill-opacity: 0; stroke: rgb(0, 0, 0); stroke-opacity: 0;"/></g><g class="point"><path d="M180.55,155V122.35H189.52V155Z" style="vector-effect: none; opacity: 1; stroke-width: 0.5px; fill: rgb(0, 0, 0); fill-opacity: 0; stroke: rgb(0, 0, 0); stroke-opacity: 0;"/></g><g class="point"><path d="M191.76,155V89.43H200.74V155Z" style="vector-effect: none; opacity: 1; stroke-width: 0.5px; fill: rgb(0, 0, 0); fill-opacity: 0; stroke: rgb(0, 0, 0); stroke-opacity: 0;"/></g><g class="point"><path d="M202.98,155V56.5H211.95V155Z" style="vector-effect: none; opacity: 1; stroke-width: 0.5px; fill: rgb(0, 0, 0); fill-opacity: 0; stroke: rgb(0, 0, 0); stroke-opacity: 0;"/></g><g class="point"><path d="M214.19,155V53.94H223.16V155Z" style="vector-effect: none; opacity: 1; stroke-width: 0.5px; fill: rgb(0, 0, 0); fill-opacity: 0; stroke: rgb(0, 0, 0); stroke-opacity: 0;"/></g><g class="point"><path d="M225.41,155V155H234.38V155Z" style="vector-effect: none; opacity: 1; stroke-width: 0.5px; fill: rgb(0, 0, 0); fill-opacity: 0; stroke: rgb(0, 0, 0); stroke-opacity: 0;"/></g><g class="point"><path d="M236.62,155V155H245.59V155Z" style="vector-effect: none; opacity: 1; stroke-width: 0.5px; fill: rgb(0, 0, 0); fill-opacity: 0; stroke: rgb(0, 0, 0); stroke-opacity: 0;"/></g><g class="point"><path d="M247.84,155V130.51H256.81V155Z" style="vector-effect: none; opacity: 1; stroke-width: 0.5px; fill: rgb(0, 0, 0); fill-opacity: 0; stroke: rgb(0, 0, 0); stroke-opacity: 0;"/></g><g class="point"><path d="M259.05,155V122.35H268.02V155Z" style="vector-effect: none; opacity: 1; stroke-width: 0.5px; fill: rgb(0, 0, 0); fill-opacity: 0; stroke: rgb(0, 0, 0); stroke-opacity: 0;"/></g><g class="point"><path d="M270.26,155V89.43H279.24V155Z" style="vector-effect: none; opacity: 1; stroke-width: 0.5px; fill: rgb(0, 0, 0); fill-opacity: 0; stroke: rgb(0, 0, 0); stroke-opacity: 0;"/></g><g class="point"><path d="M281.48,155V46.08H290.45V155Z" style="vector-effect: none; opacity: 1; stroke-width: 0.5px; fill: rgb(0, 0, 0); fill-opacity: 0; stroke: rgb(0, 0, 0); stroke-opacity: 0;"/></g><g class="point"><path d="M292.69,155V46.08H301.66V155Z" style="vector-effect: none; opacity: 1; stroke-width: 0.5px; fill: rgb(0, 0, 0); fill-opacity: 0; stroke: rgb(0, 0, 0); stroke-opacity: 0;"/></g><g class="point"><path d="M303.91,155V155H312.88V155Z" style="vector-effect: none; opacity: 1; stroke-width: 0.5px; fill: rgb(0, 0, 0); fill-opacity: 0; stroke: rgb(0, 0, 0); stroke-opacity: 0;"/></g><g class="point"><path d="M315.12,155V155H324.09V155Z" style="vector-effect: none; opacity: 1; stroke-width: 0.5px; fill: rgb(0, 0, 0); fill-opacity: 0; stroke: rgb(0, 0, 0); stroke-opacity: 0;"/></g><g class="point"><path d="M326.34,155V130.75H335.31V155Z" style="vector-effect: none; opacity: 1; stroke-width: 0.5px; fill: rgb(0, 0, 0); fill-opacity: 0; stroke: rgb(0, 0, 0); stroke-opacity: 0;"/></g><g class="point"><path d="M337.55,155V122.65H346.52V155Z" style="vector-effect: none; opacity: 1; stroke-width: 0.5px; fill: rgb(0, 0, 0); fill-opacity: 0; stroke: rgb(0, 0, 0); stroke-opacity: 0;"/></g><g class="point"><path d="M348.76,155V95.79H357.74V155Z" style="vector-effect: none; opacity: 1; stroke-width: 0.5px; fill: rgb(0, 0, 0); fill-opacity: 0; stroke: rgb(0, 0, 0); stroke-opacity: 0;"/></g><g class="point"><path d="M359.98,155V87.07H368.95V155Z" style="vector-effect: none; opacity: 1; stroke-width: 0.5px; fill: rgb(0, 0, 0); fill-opacity: 0; stroke: rgb(0, 0, 0); stroke-opacity: 0;"/></g><g class="point"><path d="M371.19,155V87.07H380.16V155Z" style="vector-effect: none; opacity: 1; stroke-width: 0.5px; fill: rgb(0, 0, 0); fill-opacity: 0; stroke: rgb(0, 0, 0); stroke-opacity: 0;"/></g><g class="point"><path d="M382.41,155V155H391.38V155Z" style="vector-effect: none; opacity: 1; stroke-width: 0.5px; fill: rgb(0, 0, 0); fill-opacity: 0; stroke: rgb(0, 0, 0); stroke-opacity: 0;"/></g><g class="point"><path d="M393.62,155V155H402.59V155Z" style="vector-effect: none; opacity: 1; stroke-width: 0.5px; fill: rgb(0, 0, 0); fill-opacity: 0; stroke: rgb(0, 0, 0); stroke-opacity: 0;"/></g><g class="point"><path d="M404.84,155V126.73H413.81V155Z" style="vector-effect: none; opacity: 1; stroke-width: 0.5px; fill: rgb(0, 0, 0); fill-opacity: 0; stroke: rgb(0, 0, 0); stroke-opacity: 0;"/></g><g class="point"><path d="M416.05,155V117.29H425.02V155Z" style="vector-effect: none; opacity: 1; stroke-width: 0.5px; fill: rgb(0, 0, 0); fill-opacity: 0; stroke: rgb(0, 0, 0); stroke-opacity: 0;"/></g><g class="point"><path d="M427.26,155V89.9H436.24V155Z" style="vector-effect: none; opacity: 1; stroke-width: 0.5px; fill: rgb(0, 0, 0); fill-opacity: 0; stroke: rgb(0, 0, 0); stroke-opacity: 0;"/></g><g class="point"><path d="M438.48,155V62.57H447.45V155Z" style="vector-effect: none; opacity: 1; stroke-width: 0.5px; fill: rgb(0, 0, 0); fill-opacity: 0; stroke: rgb(0, 0, 0); stroke-opacity: 0;"/></g><g class="point"><path d="M449.69,155V62.57H458.66V155Z" style="vector-effect: none; opacity: 1; stroke-width: 0.5px; fill: rgb(0, 0, 0); fill-opacity: 0; stroke: rgb(0, 0, 0); stroke-opacity: 0;"/></g><g class="point"><path d="M460.91,155V155H469.88V155Z" style="vector-effect: none; opacity: 1; stroke-width: 0.5px; fill: rgb(0, 0, 0); fill-opacity: 0; stroke: rgb(0, 0, 0); stroke-opacity: 0;"/></g></g></g><g class="trace bars" shape-rendering="crispEdges" style="opacity: 1;"><g class="points"><g class="point"><path d="M1.12,155V132.74H10.09V155Z" style="vector-effect: none; opacity: 1; stroke-width: 0.5px; fill: rgb(76, 114, 176); fill-opacity: 0.6; stroke: rgb(0, 0, 0); stroke-opacity: 1;"/></g><g class="point"><path d="M12.34,132.74V125.31H21.31V132.74Z" style="vector-effect: none; opacity: 1; stroke-width: 0.5px; fill: rgb(72, 106, 161); fill-opacity: 0.6; stroke: rgb(0, 0, 0); stroke-opacity: 1;"/></g><g class="point"><path d="M23.55,125.31V93.31H32.52V125.31Z" style="vector-effect: none; opacity: 1; stroke-width: 0.5px; fill: rgb(67, 97, 147); fill-opacity: 0.6; stroke: rgb(0, 0, 0); stroke-opacity: 1;"/></g><g class="point"><path d="M34.76,93.31V64.1H43.74V93.31Z" style="vector-effect: none; opacity: 1; stroke-width: 0.5px; fill: rgb(63, 89, 131); fill-opacity: 0.6; stroke: rgb(0, 0, 0); stroke-opacity: 1;"/></g><g class="point"><path d="M45.98,64.1V60.51H54.95V64.1Z" style="vector-effect: none; opacity: 1; stroke-width: 0.5px; fill: rgb(58, 80, 117); fill-opacity: 0.6; stroke: rgb(0, 0, 0); stroke-opacity: 1;"/></g><g class="point"><path d="M57.19,60.51V60.51H66.16V60.51Z" style="vector-effect: none; opacity: 1; stroke-width: 0.5px; fill: rgb(54, 72, 101); fill-opacity: 0.6; stroke: rgb(0, 0, 0); stroke-opacity: 1;"/></g><g class="point"><path d="M68.41,155V60.51H77.38V155Z" style="vector-effect: none; opacity: 1; stroke-width: 0.5px; fill: rgb(49, 63, 86); fill-opacity: 0.6; stroke: rgb(0, 0, 0); stroke-opacity: 1;"/></g><g class="point"><path d="M79.62,155V132.74H88.59V155Z" style="vector-effect: none; opacity: 1; stroke-width: 0.5px; fill: rgb(100, 181, 205); fill-opacity: 0.6; stroke: rgb(0, 0, 0); stroke-opacity: 1;"/></g><g class="point"><path d="M90.84,132.74V125.31H99.81V132.74Z" style="vector-effect: none; opacity: 1; stroke-width: 0.5px; fill: rgb(93, 165, 187); fill-opacity: 0.6; stroke: rgb(0, 0, 0); stroke-opacity: 1;"/></g><g class="point"><path d="M102.05,125.31V93.31H111.02V125.31Z" style="vector-effect: none; opacity: 1; stroke-width: 0.5px; fill: rgb(86, 150, 169); fill-opacity: 0.6; stroke: rgb(0, 0, 0); stroke-opacity: 1;"/></g><g class="point"><path d="M113.26,93.31V65.25H122.24V93.31Z" style="vector-effect: none; opacity: 1; stroke-width: 0.5px; fill: rgb(79, 133, 150); fill-opacity: 0.6; stroke: rgb(0, 0, 0); stroke-opacity: 1;"/></g><g class="point"><path d="M124.48,65.25V65.25H133.45V65.25Z" style="vector-effect: none; opacity: 1; stroke-width: 0.5px; fill: rgb(71, 118, 132); fill-opacity: 0.6; stroke: rgb(0, 0, 0); stroke-opacity: 1;"/></g><g class="point"><path d="M135.69,65.25V65.25H144.66V65.25Z" style="vector-effect: none; opacity: 1; stroke-width: 0.5px; fill: rgb(64, 101, 113); fill-opacity: 0.6; stroke: rgb(0, 0, 0); stroke-opacity: 1;"/></g><g class="point"><path d="M146.91,155V65.25H155.88V155Z" style="vector-effect: none; opacity: 1; stroke-width: 0.5px; fill: rgb(57, 86, 94); fill-opacity: 0.6; stroke: rgb(0, 0, 0); stroke-opacity: 1;"/></g><g class="point"><path d="M158.12,155V130.51H167.09V155Z" style="vector-effect: none; opacity: 1; stroke-width: 0.5px; fill: rgb(196, 78, 82); fill-opacity: 0.6; stroke: rgb(0, 0, 0); stroke-opacity: 1;"/></g><g class="point"><path d="M169.34,130.51V122.35H178.31V130.51Z" style="vector-effect: none; opacity: 1; stroke-width: 0.5px; fill: rgb(179, 73, 77); fill-opacity: 0.6; stroke: rgb(0, 0, 0); stroke-opacity: 1;"/></g><g class="point"><path d="M180.55,122.35V89.43H189.52V122.35Z" style="vector-effect: none; opacity: 1; stroke-width: 0.5px; fill: rgb(163, 69, 72); fill-opacity: 0.6; stroke: rgb(0, 0, 0); stroke-opacity: 1;"/></g><g class="point"><path d="M191.76,89.43V56.5H200.74V89.43Z" style="vector-effect: none; opacity: 1; stroke-width: 0.5px; fill: rgb(145, 64, 67); fill-opacity: 0.6; stroke: rgb(0, 0, 0); stroke-opacity: 1;"/></g><g class="point"><path d="M202.98,56.5V53.94H211.95V56.5Z" style="vector-effect: none; opacity: 1; stroke-width: 0.5px; fill: rgb(129, 59, 62); fill-opacity: 0.6; stroke: rgb(0, 0, 0); stroke-opacity: 1;"/></g><g class="point"><path d="M214.19,53.94V53.94H223.16V53.94Z" style="vector-effect: none; opacity: 1; stroke-width: 0.5px; fill: rgb(111, 54, 56); fill-opacity: 0.6; stroke: rgb(0, 0, 0); stroke-opacity: 1;"/></g><g class="point"><path d="M225.41,155V53.94H234.38V155Z" style="vector-effect: none; opacity: 1; stroke-width: 0.5px; fill: rgb(95, 50, 51); fill-opacity: 0.6; stroke: rgb(0, 0, 0); stroke-opacity: 1;"/></g><g class="point"><path d="M236.62,155V130.51H245.59V155Z" style="vector-effect: none; opacity: 1; stroke-width: 0.5px; fill: rgb(221, 132, 82); fill-opacity: 0.6; stroke: rgb(0, 0, 0); stroke-opacity: 1;"/></g><g class="point"><path d="M247.84,130.51V122.35H256.81V130.51Z" style="vector-effect: none; opacity: 1; stroke-width: 0.5px; fill: rgb(201, 122, 77); fill-opacity: 0.6; stroke: rgb(0, 0, 0); stroke-opacity: 1;"/></g><g class="point"><path d="M259.05,122.35V89.43H268.02V122.35Z" style="vector-effect: none; opacity: 1; stroke-width: 0.5px; fill: rgb(182, 111, 72); fill-opacity: 0.6; stroke: rgb(0, 0, 0); stroke-opacity: 1;"/></g><g class="point"><path d="M270.26,89.43V46.08H279.24V89.43Z" style="vector-effect: none; opacity: 1; stroke-width: 0.5px; fill: rgb(161, 100, 66); fill-opacity: 0.6; stroke: rgb(0, 0, 0); stroke-opacity: 1;"/></g><g class="point"><path d="M281.48,46.08V46.08H290.45V46.08Z" style="vector-effect: none; opacity: 1; stroke-width: 0.5px; fill: rgb(142, 90, 61); fill-opacity: 0.6; stroke: rgb(0, 0, 0); stroke-opacity: 1;"/></g><g class="point"><path d="M292.69,46.08V46.08H301.66V46.08Z" style="vector-effect: none; opacity: 1; stroke-width: 0.5px; fill: rgb(121, 79, 56); fill-opacity: 0.6; stroke: rgb(0, 0, 0); stroke-opacity: 1;"/></g><g class="point"><path d="M303.91,155V46.08H312.88V155Z" style="vector-effect: none; opacity: 1; stroke-width: 0.5px; fill: rgb(102, 68, 51); fill-opacity: 0.6; stroke: rgb(0, 0, 0); stroke-opacity: 1;"/></g><g class="point"><path d="M315.12,155V130.75H324.09V155Z" style="vector-effect: none; opacity: 1; stroke-width: 0.5px; fill: rgb(85, 168, 104); fill-opacity: 0.6; stroke: rgb(0, 0, 0); stroke-opacity: 1;"/></g><g class="point"><path d="M326.34,130.75V122.65H335.31V130.75Z" style="vector-effect: none; opacity: 1; stroke-width: 0.5px; fill: rgb(80, 154, 96); fill-opacity: 0.6; stroke: rgb(0, 0, 0); stroke-opacity: 1;"/></g><g class="point"><path d="M337.55,122.65V95.79H346.52V122.65Z" style="vector-effect: none; opacity: 1; stroke-width: 0.5px; fill: rgb(74, 140, 89); fill-opacity: 0.6; stroke: rgb(0, 0, 0); stroke-opacity: 1;"/></g><g class="point"><path d="M348.76,95.79V87.07H357.74V95.79Z" style="vector-effect: none; opacity: 1; stroke-width: 0.5px; fill: rgb(68, 125, 81); fill-opacity: 0.6; stroke: rgb(0, 0, 0); stroke-opacity: 1;"/></g><g class="point"><path d="M359.98,87.07V87.07H368.95V87.07Z" style="vector-effect: none; opacity: 1; stroke-width: 0.5px; fill: rgb(63, 111, 74); fill-opacity: 0.6; stroke: rgb(0, 0, 0); stroke-opacity: 1;"/></g><g class="point"><path d="M371.19,87.07V82.5H380.16V87.07Z" style="vector-effect: none; opacity: 1; stroke-width: 0.5px; fill: rgb(57, 96, 66); fill-opacity: 0.6; stroke: rgb(0, 0, 0); stroke-opacity: 1;"/></g><g class="point"><path d="M382.41,155V82.5H391.38V155Z" style="vector-effect: none; opacity: 1; stroke-width: 0.5px; fill: rgb(52, 82, 58); fill-opacity: 0.6; stroke: rgb(0, 0, 0); stroke-opacity: 1;"/></g><g class="point"><path d="M393.62,155V126.73H402.59V155Z" style="vector-effect: none; opacity: 1; stroke-width: 0.5px; fill: rgb(204, 185, 116); fill-opacity: 0.6; stroke: rgb(0, 0, 0); stroke-opacity: 1;"/></g><g class="point"><path d="M404.84,126.73V117.29H413.81V126.73Z" style="vector-effect: none; opacity: 1; stroke-width: 0.5px; fill: rgb(186, 169, 107); fill-opacity: 0.6; stroke: rgb(0, 0, 0); stroke-opacity: 1;"/></g><g class="point"><path d="M416.05,117.29V89.9H425.02V117.29Z" style="vector-effect: none; opacity: 1; stroke-width: 0.5px; fill: rgb(168, 153, 98); fill-opacity: 0.6; stroke: rgb(0, 0, 0); stroke-opacity: 1;"/></g><g class="point"><path d="M427.26,89.9V62.57H436.24V89.9Z" style="vector-effect: none; opacity: 1; stroke-width: 0.5px; fill: rgb(149, 136, 89); fill-opacity: 0.6; stroke: rgb(0, 0, 0); stroke-opacity: 1;"/></g><g class="point"><path d="M438.48,62.57V62.57H447.45V62.57Z" style="vector-effect: none; opacity: 1; stroke-width: 0.5px; fill: rgb(131, 120, 80); fill-opacity: 0.6; stroke: rgb(0, 0, 0); stroke-opacity: 1;"/></g><g class="point"><path d="M449.69,62.57V47.41H458.66V62.57Z" style="vector-effect: none; opacity: 1; stroke-width: 0.5px; fill: rgb(112, 103, 71); fill-opacity: 0.6; stroke: rgb(0, 0, 0); stroke-opacity: 1;"/></g><g class="point"><path d="M460.91,155V47.41H469.88V155Z" style="vector-effect: none; opacity: 1; stroke-width: 0.5px; fill: rgb(94, 87, 62); fill-opacity: 0.6; stroke: rgb(0, 0, 0); stroke-opacity: 1;"/></g></g><g class="errorbar" style="opacity: 1;"><path class="yerror" d="M1.6100000000000003,132.74h8m-4,0V132.74m-4,0h8" style="vector-effect: none; stroke-width: 2px; stroke: rgb(42, 63, 95); stroke-opacity: 1;"/></g><g class="errorbar" style="opacity: 1;"><path class="yerror" d="M12.82,125.31h8m-4,0V125.31m-4,0h8" style="vector-effect: none; stroke-width: 2px; stroke: rgb(42, 63, 95); stroke-opacity: 1;"/></g><g class="errorbar" style="opacity: 1;"><path class="yerror" d="M24.04,93.31h8m-4,0V93.31m-4,0h8" style="vector-effect: none; stroke-width: 2px; stroke: rgb(42, 63, 95); stroke-opacity: 1;"/></g><g class="errorbar" style="opacity: 1;"><path class="yerror" d="M35.25,62.67h8m-4,0V69.68m-4,0h8" style="vector-effect: none; stroke-width: 2px; stroke: rgb(42, 63, 95); stroke-opacity: 1;"/></g><g class="errorbar" style="opacity: 1;"><path class="yerror" d="M46.46,56.93h8m-4,0V64.1m-4,0h8" style="vector-effect: none; stroke-width: 2px; stroke: rgb(42, 63, 95); stroke-opacity: 1;"/></g><g class="errorbar" style="opacity: 1;"><path class="yerror" d="M57.68,60.51h8m-4,0V60.51m-4,0h8" style="vector-effect: none; stroke-width: 2px; stroke: rgb(42, 63, 95); stroke-opacity: 1;"/></g><g class="errorbar" style="opacity: 1;"><path class="yerror" d="M68.89,55.5h8m-4,0V69.68m-4,0h8" style="vector-effect: none; stroke-width: 2px; stroke: rgb(42, 63, 95); stroke-opacity: 1;"/></g><g class="errorbar" style="opacity: 1;"><path class="yerror" d="M80.11,132.74h8m-4,0V132.74m-4,0h8" style="vector-effect: none; stroke-width: 2px; stroke: rgb(42, 63, 95); stroke-opacity: 1;"/></g><g class="errorbar" style="opacity: 1;"><path class="yerror" d="M91.32,125.31h8m-4,0V125.31m-4,0h8" style="vector-effect: none; stroke-width: 2px; stroke: rgb(42, 63, 95); stroke-opacity: 1;"/></g><g class="errorbar" style="opacity: 1;"><path class="yerror" d="M102.54,93.31h8m-4,0V93.31m-4,0h8" style="vector-effect: none; stroke-width: 2px; stroke: rgb(42, 63, 95); stroke-opacity: 1;"/></g><g class="errorbar" style="opacity: 1;"><path class="yerror" d="M113.75,61.35h8m-4,0V73.35m-4,0h8" style="vector-effect: none; stroke-width: 2px; stroke: rgb(42, 63, 95); stroke-opacity: 1;"/></g><g class="errorbar" style="opacity: 1;"><path class="yerror" d="M124.96000000000001,65.25h8m-4,0V65.25m-4,0h8" style="vector-effect: none; stroke-width: 2px; stroke: rgb(42, 63, 95); stroke-opacity: 1;"/></g><g class="errorbar" style="opacity: 1;"><path class="yerror" d="M136.18,65.25h8m-4,0V65.25m-4,0h8" style="vector-effect: none; stroke-width: 2px; stroke: rgb(42, 63, 95); stroke-opacity: 1;"/></g><g class="errorbar" style="opacity: 1;"><path class="yerror" d="M147.39,61.35h8m-4,0V73.35m-4,0h8" style="vector-effect: none; stroke-width: 2px; stroke: rgb(42, 63, 95); stroke-opacity: 1;"/></g><g class="errorbar" style="opacity: 1;"><path class="yerror" d="M158.61,130.51h8m-4,0V130.51m-4,0h8" style="vector-effect: none; stroke-width: 2px; stroke: rgb(42, 63, 95); stroke-opacity: 1;"/></g><g class="errorbar" style="opacity: 1;"><path class="yerror" d="M169.82,122.35h8m-4,0V122.35m-4,0h8" style="vector-effect: none; stroke-width: 2px; stroke: rgb(42, 63, 95); stroke-opacity: 1;"/></g><g class="errorbar" style="opacity: 1;"><path class="yerror" d="M181.04,89.43h8m-4,0V89.43m-4,0h8" style="vector-effect: none; stroke-width: 2px; stroke: rgb(42, 63, 95); stroke-opacity: 1;"/></g><g class="errorbar" style="opacity: 1;"><path class="yerror" d="M192.25,55.7h8m-4,0V58.22m-4,0h8" style="vector-effect: none; stroke-width: 2px; stroke: rgb(42, 63, 95); stroke-opacity: 1;"/></g><g class="errorbar" style="opacity: 1;"><path class="yerror" d="M203.46,51.38h8m-4,0V56.5m-4,0h8" style="vector-effect: none; stroke-width: 2px; stroke: rgb(42, 63, 95); stroke-opacity: 1;"/></g><g class="errorbar" style="opacity: 1;"><path class="yerror" d="M214.68,53.94h8m-4,0V53.94m-4,0h8" style="vector-effect: none; stroke-width: 2px; stroke: rgb(42, 63, 95); stroke-opacity: 1;"/></g><g class="errorbar" style="opacity: 1;"><path class="yerror" d="M225.89,50.58h8m-4,0V58.22m-4,0h8" style="vector-effect: none; stroke-width: 2px; stroke: rgb(42, 63, 95); stroke-opacity: 1;"/></g><g class="errorbar" style="opacity: 1;"><path class="yerror" d="M237.11,130.51h8m-4,0V130.51m-4,0h8" style="vector-effect: none; stroke-width: 2px; stroke: rgb(42, 63, 95); stroke-opacity: 1;"/></g><g class="errorbar" style="opacity: 1;"><path class="yerror" d="M248.32,122.35h8m-4,0V122.35m-4,0h8" style="vector-effect: none; stroke-width: 2px; stroke: rgb(42, 63, 95); stroke-opacity: 1;"/></g><g class="errorbar" style="opacity: 1;"><path class="yerror" d="M259.54,89.43h8m-4,0V89.43m-4,0h8" style="vector-effect: none; stroke-width: 2px; stroke: rgb(42, 63, 95); stroke-opacity: 1;"/></g><g class="errorbar" style="opacity: 1;"><path class="yerror" d="M270.75,36.22h8m-4,0V62.53m-4,0h8" style="vector-effect: none; stroke-width: 2px; stroke: rgb(42, 63, 95); stroke-opacity: 1;"/></g><g class="errorbar" style="opacity: 1;"><path class="yerror" d="M281.96,46.08h8m-4,0V46.08m-4,0h8" style="vector-effect: none; stroke-width: 2px; stroke: rgb(42, 63, 95); stroke-opacity: 1;"/></g><g class="errorbar" style="opacity: 1;"><path class="yerror" d="M293.18,46.08h8m-4,0V46.08m-4,0h8" style="vector-effect: none; stroke-width: 2px; stroke: rgb(42, 63, 95); stroke-opacity: 1;"/></g><g class="errorbar" style="opacity: 1;"><path class="yerror" d="M304.39,36.22h8m-4,0V62.53m-4,0h8" style="vector-effect: none; stroke-width: 2px; stroke: rgb(42, 63, 95); stroke-opacity: 1;"/></g><g class="errorbar" style="opacity: 1;"><path class="yerror" d="M315.61,130.36h8m-4,0V136.09m-4,0h8" style="vector-effect: none; stroke-width: 2px; stroke: rgb(42, 63, 95); stroke-opacity: 1;"/></g><g class="errorbar" style="opacity: 1;"><path class="yerror" d="M326.82,122.53h8m-4,0V124.44m-4,0h8" style="vector-effect: none; stroke-width: 2px; stroke: rgb(42, 63, 95); stroke-opacity: 1;"/></g><g class="errorbar" style="opacity: 1;"><path class="yerror" d="M338.04,95.79h8m-4,0V95.79m-4,0h8" style="vector-effect: none; stroke-width: 2px; stroke: rgb(42, 63, 95); stroke-opacity: 1;"/></g><g class="errorbar" style="opacity: 1;"><path class="yerror" d="M349.25,85.48h8m-4,0V87.86m-4,0h8" style="vector-effect: none; stroke-width: 2px; stroke: rgb(42, 63, 95); stroke-opacity: 1;"/></g><g class="errorbar" style="opacity: 1;"><path class="yerror" d="M360.46,87.07h8m-4,0V87.07m-4,0h8" style="vector-effect: none; stroke-width: 2px; stroke: rgb(42, 63, 95); stroke-opacity: 1;"/></g><g class="errorbar" style="opacity: 1;"><path class="yerror" d="M371.68,79.14h8m-4,0V83.34m-4,0h8" style="vector-effect: none; stroke-width: 2px; stroke: rgb(42, 63, 95); stroke-opacity: 1;"/></g><g class="errorbar" style="opacity: 1;"><path class="yerror" d="M382.89,77.05h8m-4,0V91.26m-4,0h8" style="vector-effect: none; stroke-width: 2px; stroke: rgb(42, 63, 95); stroke-opacity: 1;"/></g><g class="errorbar" style="opacity: 1;"><path class="yerror" d="M394.11,126.73h8m-4,0V129.62m-4,0h8" style="vector-effect: none; stroke-width: 2px; stroke: rgb(42, 63, 95); stroke-opacity: 1;"/></g><g class="errorbar" style="opacity: 1;"><path class="yerror" d="M405.32,117.29h8m-4,0V118.26m-4,0h8" style="vector-effect: none; stroke-width: 2px; stroke: rgb(42, 63, 95); stroke-opacity: 1;"/></g><g class="errorbar" style="opacity: 1;"><path class="yerror" d="M416.54,89.9h8m-4,0V89.9m-4,0h8" style="vector-effect: none; stroke-width: 2px; stroke: rgb(42, 63, 95); stroke-opacity: 1;"/></g><g class="errorbar" style="opacity: 1;"><path class="yerror" d="M427.75,48.71h8m-4,0V69.88m-4,0h8" style="vector-effect: none; stroke-width: 2px; stroke: rgb(42, 63, 95); stroke-opacity: 1;"/></g><g class="errorbar" style="opacity: 1;"><path class="yerror" d="M438.96,62.57h8m-4,0V62.57m-4,0h8" style="vector-effect: none; stroke-width: 2px; stroke: rgb(42, 63, 95); stroke-opacity: 1;"/></g><g class="errorbar" style="opacity: 1;"><path class="yerror" d="M450.18,21.62h8m-4,0V48.76m-4,0h8" style="vector-effect: none; stroke-width: 2px; stroke: rgb(42, 63, 95); stroke-opacity: 1;"/></g><g class="errorbar" style="opacity: 1;"><path class="yerror" d="M461.39,7.75h8m-4,0V59.92m-4,0h8" style="vector-effect: none; stroke-width: 2px; stroke: rgb(42, 63, 95); stroke-opacity: 1;"/></g></g></g></g></g><path class="xlines-above crisp" d="M0,0" style="fill: none;"/><path class="ylines-above crisp" d="M0,0" style="fill: none;"/><g class="overlines-above"/><g class="xaxislayer-above"><path class="xdivider crisp" transform="translate(500,0)" d="M0,156v44.921875" style="stroke: rgb(68, 68, 68); stroke-opacity: 1; stroke-width: 1px;"/><path class="xdivider crisp" transform="translate(421.5,0)" d="M0,156v44.921875" style="stroke: rgb(68, 68, 68); stroke-opacity: 1; stroke-width: 1px;"/><path class="xdivider crisp" transform="translate(343,0)" d="M0,156v44.921875" style="stroke: rgb(68, 68, 68); stroke-opacity: 1; stroke-width: 1px;"/><path class="xdivider crisp" transform="translate(264.5,0)" d="M0,156v44.921875" style="stroke: rgb(68, 68, 68); stroke-opacity: 1; stroke-width: 1px;"/><path class="xdivider crisp" transform="translate(186,0)" d="M0,156v44.921875" style="stroke: rgb(68, 68, 68); stroke-opacity: 1; stroke-width: 1px;"/><path class="xdivider crisp" transform="translate(107.5,0)" d="M0,156v44.921875" style="stroke: rgb(68, 68, 68); stroke-opacity: 1; stroke-width: 1px;"/><path class="xdivider crisp" transform="translate(29,0)" d="M0,156v44.921875" style="stroke: rgb(68, 68, 68); stroke-opacity: 1; stroke-width: 1px;"/><g class="xtick"><text text-anchor="start" x="0" y="162" transform="translate(34.61,0) rotate(90,0,159)" style="font-family: 'CMU Serif'; font-size: 6px; fill: rgb(0, 0, 0); fill-opacity: 1; white-space: pre; opacity: 1;">CAPEX</text></g><g class="xtick"><text text-anchor="start" x="0" y="162" transform="translate(45.82,0) rotate(90,0,159)" style="font-family: 'CMU Serif'; font-size: 6px; fill: rgb(0, 0, 0); fill-opacity: 1; white-space: pre; opacity: 1;">FIXOM</text></g><g class="xtick"><text text-anchor="start" x="0" y="162" transform="translate(57.04,0) rotate(90,0,159)" style="font-family: 'CMU Serif'; font-size: 6px; fill: rgb(0, 0, 0); fill-opacity: 1; white-space: pre; opacity: 1;">VAROM</text></g><g class="xtick"><text text-anchor="start" x="0" y="162" transform="translate(68.25,0) rotate(90,0,159)" style="font-family: 'CMU Serif'; font-size: 6px; fill: rgb(0, 0, 0); fill-opacity: 1; white-space: pre; opacity: 1;">ENERGY</text></g><g class="xtick"><text text-anchor="start" x="0" y="162" transform="translate(79.46000000000001,0) rotate(90,0,159)" style="font-family: 'CMU Serif'; font-size: 6px; fill: rgb(0, 0, 0); fill-opacity: 1; white-space: pre; opacity: 1;">ETS</text></g><g class="xtick"><text text-anchor="start" x="0" y="162" transform="translate(90.68,0) rotate(90,0,159)" style="font-family: 'CMU Serif'; font-size: 6px; fill: rgb(0, 0, 0); fill-opacity: 1; white-space: pre; opacity: 1;">RE-INFR</text></g><g class="xtick"><text text-anchor="start" x="0" y="162" transform="translate(101.89,0) rotate(90,0,159)" style="font-family: 'CMU Serif'; font-size: 6px; fill: rgb(0, 0, 0); fill-opacity: 1; white-space: pre; opacity: 1;">TOTAL</text></g><g class="xtick"><text text-anchor="start" x="0" y="162" transform="translate(113.11,0) rotate(90,0,159)" style="font-family: 'CMU Serif'; font-size: 6px; fill: rgb(0, 0, 0); fill-opacity: 1; white-space: pre; opacity: 1;">CAPEX</text></g><g class="xtick"><text text-anchor="start" x="0" y="162" transform="translate(124.32,0) rotate(90,0,159)" style="font-family: 'CMU Serif'; font-size: 6px; fill: rgb(0, 0, 0); fill-opacity: 1; white-space: pre; opacity: 1;">FIXOM</text></g><g class="xtick"><text text-anchor="start" x="0" y="162" transform="translate(135.54000000000002,0) rotate(90,0,159)" style="font-family: 'CMU Serif'; font-size: 6px; fill: rgb(0, 0, 0); fill-opacity: 1; white-space: pre; opacity: 1;">VAROM</text></g><g class="xtick"><text text-anchor="start" x="0" y="162" transform="translate(146.75,0) rotate(90,0,159)" style="font-family: 'CMU Serif'; font-size: 6px; fill: rgb(0, 0, 0); fill-opacity: 1; white-space: pre; opacity: 1;">ENERGY</text></g><g class="xtick"><text text-anchor="start" x="0" y="162" transform="translate(157.96,0) rotate(90,0,159)" style="font-family: 'CMU Serif'; font-size: 6px; fill: rgb(0, 0, 0); fill-opacity: 1; white-space: pre; opacity: 1;">ETS</text></g><g class="xtick"><text text-anchor="start" x="0" y="162" transform="translate(169.18,0) rotate(90,0,159)" style="font-family: 'CMU Serif'; font-size: 6px; fill: rgb(0, 0, 0); fill-opacity: 1; white-space: pre; opacity: 1;">RE-INFR</text></g><g class="xtick"><text text-anchor="start" x="0" y="162" transform="translate(180.39,0) rotate(90,0,159)" style="font-family: 'CMU Serif'; font-size: 6px; fill: rgb(0, 0, 0); fill-opacity: 1; white-space: pre; opacity: 1;">TOTAL</text></g><g class="xtick"><text text-anchor="start" x="0" y="162" transform="translate(191.61,0) rotate(90,0,159)" style="font-family: 'CMU Serif'; font-size: 6px; fill: rgb(0, 0, 0); fill-opacity: 1; white-space: pre; opacity: 1;">CAPEX</text></g><g class="xtick"><text text-anchor="start" x="0" y="162" transform="translate(202.82,0) rotate(90,0,159)" style="font-family: 'CMU Serif'; font-size: 6px; fill: rgb(0, 0, 0); fill-opacity: 1; white-space: pre; opacity: 1;">FIXOM</text></g><g class="xtick"><text text-anchor="start" x="0" y="162" transform="translate(214.04,0) rotate(90,0,159)" style="font-family: 'CMU Serif'; font-size: 6px; fill: rgb(0, 0, 0); fill-opacity: 1; white-space: pre; opacity: 1;">VAROM</text></g><g class="xtick"><text text-anchor="start" x="0" y="162" transform="translate(225.25,0) rotate(90,0,159)" style="font-family: 'CMU Serif'; font-size: 6px; fill: rgb(0, 0, 0); fill-opacity: 1; white-space: pre; opacity: 1;">ENERGY</text></g><g class="xtick"><text text-anchor="start" x="0" y="162" transform="translate(236.46,0) rotate(90,0,159)" style="font-family: 'CMU Serif'; font-size: 6px; fill: rgb(0, 0, 0); fill-opacity: 1; white-space: pre; opacity: 1;">ETS</text></g><g class="xtick"><text text-anchor="start" x="0" y="162" transform="translate(247.68,0) rotate(90,0,159)" style="font-family: 'CMU Serif'; font-size: 6px; fill: rgb(0, 0, 0); fill-opacity: 1; white-space: pre; opacity: 1;">RE-INFR</text></g><g class="xtick"><text text-anchor="start" x="0" y="162" transform="translate(258.89,0) rotate(90,0,159)" style="font-family: 'CMU Serif'; font-size: 6px; fill: rgb(0, 0, 0); fill-opacity: 1; white-space: pre; opacity: 1;">TOTAL</text></g><g class="xtick"><text text-anchor="start" x="0" y="162" transform="translate(270.11,0) rotate(90,0,159)" style="font-family: 'CMU Serif'; font-size: 6px; fill: rgb(0, 0, 0); fill-opacity: 1; white-space: pre; opacity: 1;">CAPEX</text></g><g class="xtick"><text text-anchor="start" x="0" y="162" transform="translate(281.32,0) rotate(90,0,159)" style="font-family: 'CMU Serif'; font-size: 6px; fill: rgb(0, 0, 0); fill-opacity: 1; white-space: pre; opacity: 1;">FIXOM</text></g><g class="xtick"><text text-anchor="start" x="0" y="162" transform="translate(292.54,0) rotate(90,0,159)" style="font-family: 'CMU Serif'; font-size: 6px; fill: rgb(0, 0, 0); fill-opacity: 1; white-space: pre; opacity: 1;">VAROM</text></g><g class="xtick"><text text-anchor="start" x="0" y="162" transform="translate(303.75,0) rotate(90,0,159)" style="font-family: 'CMU Serif'; font-size: 6px; fill: rgb(0, 0, 0); fill-opacity: 1; white-space: pre; opacity: 1;">ENERGY</text></g><g class="xtick"><text text-anchor="start" x="0" y="162" transform="translate(314.96,0) rotate(90,0,159)" style="font-family: 'CMU Serif'; font-size: 6px; fill: rgb(0, 0, 0); fill-opacity: 1; white-space: pre; opacity: 1;">ETS</text></g><g class="xtick"><text text-anchor="start" x="0" y="162" transform="translate(326.18,0) rotate(90,0,159)" style="font-family: 'CMU Serif'; font-size: 6px; fill: rgb(0, 0, 0); fill-opacity: 1; white-space: pre; opacity: 1;">RE-INFR</text></g><g class="xtick"><text text-anchor="start" x="0" y="162" transform="translate(337.39,0) rotate(90,0,159)" style="font-family: 'CMU Serif'; font-size: 6px; fill: rgb(0, 0, 0); fill-opacity: 1; white-space: pre; opacity: 1;">TOTAL</text></g><g class="xtick"><text text-anchor="start" x="0" y="162" transform="translate(348.61,0) rotate(90,0,159)" style="font-family: 'CMU Serif'; font-size: 6px; fill: rgb(0, 0, 0); fill-opacity: 1; white-space: pre; opacity: 1;">CAPEX</text></g><g class="xtick"><text text-anchor="start" x="0" y="162" transform="translate(359.82,0) rotate(90,0,159)" style="font-family: 'CMU Serif'; font-size: 6px; fill: rgb(0, 0, 0); fill-opacity: 1; white-space: pre; opacity: 1;">FIXOM</text></g><g class="xtick"><text text-anchor="start" x="0" y="162" transform="translate(371.04,0) rotate(90,0,159)" style="font-family: 'CMU Serif'; font-size: 6px; fill: rgb(0, 0, 0); fill-opacity: 1; white-space: pre; opacity: 1;">VAROM</text></g><g class="xtick"><text text-anchor="start" x="0" y="162" transform="translate(382.25,0) rotate(90,0,159)" style="font-family: 'CMU Serif'; font-size: 6px; fill: rgb(0, 0, 0); fill-opacity: 1; white-space: pre; opacity: 1;">ENERGY</text></g><g class="xtick"><text text-anchor="start" x="0" y="162" transform="translate(393.46,0) rotate(90,0,159)" style="font-family: 'CMU Serif'; font-size: 6px; fill: rgb(0, 0, 0); fill-opacity: 1; white-space: pre; opacity: 1;">ETS</text></g><g class="xtick"><text text-anchor="start" x="0" y="162" transform="translate(404.68,0) rotate(90,0,159)" style="font-family: 'CMU Serif'; font-size: 6px; fill: rgb(0, 0, 0); fill-opacity: 1; white-space: pre; opacity: 1;">RE-INFR</text></g><g class="xtick"><text text-anchor="start" x="0" y="162" transform="translate(415.89,0) rotate(90,0,159)" style="font-family: 'CMU Serif'; font-size: 6px; fill: rgb(0, 0, 0); fill-opacity: 1; white-space: pre; opacity: 1;">TOTAL</text></g><g class="xtick"><text text-anchor="start" x="0" y="162" transform="translate(427.11,0) rotate(90,0,159)" style="font-family: 'CMU Serif'; font-size: 6px; fill: rgb(0, 0, 0); fill-opacity: 1; white-space: pre; opacity: 1;">CAPEX</text></g><g class="xtick"><text text-anchor="start" x="0" y="162" transform="translate(438.32,0) rotate(90,0,159)" style="font-family: 'CMU Serif'; font-size: 6px; fill: rgb(0, 0, 0); fill-opacity: 1; white-space: pre; opacity: 1;">FIXOM</text></g><g class="xtick"><text text-anchor="start" x="0" y="162" transform="translate(449.54,0) rotate(90,0,159)" style="font-family: 'CMU Serif'; font-size: 6px; fill: rgb(0, 0, 0); fill-opacity: 1; white-space: pre; opacity: 1;">VAROM</text></g><g class="xtick"><text text-anchor="start" x="0" y="162" transform="translate(460.75,0) rotate(90,0,159)" style="font-family: 'CMU Serif'; font-size: 6px; fill: rgb(0, 0, 0); fill-opacity: 1; white-space: pre; opacity: 1;">ENERGY</text></g><g class="xtick"><text text-anchor="start" x="0" y="162" transform="translate(471.96,0) rotate(90,0,159)" style="font-family: 'CMU Serif'; font-size: 6px; fill: rgb(0, 0, 0); fill-opacity: 1; white-space: pre; opacity: 1;">ETS</text></g><g class="xtick"><text text-anchor="start" x="0" y="162" transform="translate(483.18,0) rotate(90,0,159)" style="font-family: 'CMU Serif'; font-size: 6px; fill: rgb(0, 0, 0); fill-opacity: 1; white-space: pre; opacity: 1;">RE-INFR</text></g><g class="xtick"><text text-anchor="start" x="0" y="162" transform="translate(494.39,0) rotate(90,0,159)" style="font-family: 'CMU Serif'; font-size: 6px; fill: rgb(0, 0, 0); fill-opacity: 1; white-space: pre; opacity: 1;">TOTAL</text></g><g class="xtick2"><text text-anchor="middle" x="0" y="198.409375" transform="translate(68.25,0)" style="font-family: 'CMU Serif'; font-size: 6px; fill: rgb(0, 0, 0); fill-opacity: 1; white-space: pre; opacity: 1;">DIESEL</text></g><g class="xtick2"><text text-anchor="middle" x="0" y="198.409375" transform="translate(146.75,0)" style="font-family: 'CMU Serif'; font-size: 6px; fill: rgb(0, 0, 0); fill-opacity: 1; white-space: pre; opacity: 1;">HVO</text></g><g class="xtick2"><text text-anchor="middle" x="0" y="198.409375" transform="translate(225.25,0)" style="font-family: 'CMU Serif'; font-size: 6px; fill: rgb(0, 0, 0); fill-opacity: 1; white-space: pre; opacity: 1;">LNG</text></g><g class="xtick2"><text text-anchor="middle" x="0" y="198.409375" transform="translate(303.75,0)" style="font-family: 'CMU Serif'; font-size: 6px; fill: rgb(0, 0, 0); fill-opacity: 1; white-space: pre; opacity: 1;">BIO-LNG</text></g><g class="xtick2"><text text-anchor="middle" x="0" y="198.409375" transform="translate(382.25,0)" style="font-family: 'CMU Serif'; font-size: 6px; fill: rgb(0, 0, 0); fill-opacity: 1; white-space: pre; opacity: 1;">BEV</text></g><g class="xtick2"><text text-anchor="middle" x="0" y="198.409375" transform="translate(460.75,0)" style="font-family: 'CMU Serif'; font-size: 6px; fill: rgb(0, 0, 0); fill-opacity: 1; white-space: pre; opacity: 1;">FCEV</text></g></g><g class="yaxislayer-above"><g class="ytick"><text text-anchor="end" x="28" y="2.0999999999999996" transform="translate(0,155)" style="font-family: 'CMU Serif'; font-size: 6px; fill: rgb(0, 0, 0); fill-opacity: 1; white-space: pre; opacity: 1;">0.0</text></g><g class="ytick"><text text-anchor="end" x="28" y="2.0999999999999996" style="font-family: 'CMU Serif'; font-size: 6px; fill: rgb(0, 0, 0); fill-opacity: 1; white-space: pre; opacity: 1;" transform="translate(0,144.56)">0.1</text></g><g class="ytick"><text text-anchor="end" x="28" y="2.0999999999999996" style="font-family: 'CMU Serif'; font-size: 6px; fill: rgb(0, 0, 0); fill-opacity: 1; white-space: pre; opacity: 1;" transform="translate(0,134.12)">0.2</text></g><g class="ytick"><text text-anchor="end" x="28" y="2.0999999999999996" style="font-family: 'CMU Serif'; font-size: 6px; fill: rgb(0, 0, 0); fill-opacity: 1; white-space: pre; opacity: 1;" transform="translate(0,123.67)">0.3</text></g><g class="ytick"><text text-anchor="end" x="28" y="2.0999999999999996" style="font-family: 'CMU Serif'; font-size: 6px; fill: rgb(0, 0, 0); fill-opacity: 1; white-space: pre; opacity: 1;" transform="translate(0,113.23)">0.4</text></g><g class="ytick"><text text-anchor="end" x="28" y="2.0999999999999996" style="font-family: 'CMU Serif'; font-size: 6px; fill: rgb(0, 0, 0); fill-opacity: 1; white-space: pre; opacity: 1;" transform="translate(0,102.79)">0.5</text></g><g class="ytick"><text text-anchor="end" x="28" y="2.0999999999999996" style="font-family: 'CMU Serif'; font-size: 6px; fill: rgb(0, 0, 0); fill-opacity: 1; white-space: pre; opacity: 1;" transform="translate(0,92.35)">0.6</text></g><g class="ytick"><text text-anchor="end" x="28" y="2.0999999999999996" style="font-family: 'CMU Serif'; font-size: 6px; fill: rgb(0, 0, 0); fill-opacity: 1; white-space: pre; opacity: 1;" transform="translate(0,81.91)">0.7</text></g><g class="ytick"><text text-anchor="end" x="28" y="2.0999999999999996" style="font-family: 'CMU Serif'; font-size: 6px; fill: rgb(0, 0, 0); fill-opacity: 1; white-space: pre; opacity: 1;" transform="translate(0,71.47)">0.8</text></g><g class="ytick"><text text-anchor="end" x="28" y="2.0999999999999996" style="font-family: 'CMU Serif'; font-size: 6px; fill: rgb(0, 0, 0); fill-opacity: 1; white-space: pre; opacity: 1;" transform="translate(0,61.02)">0.9</text></g><g class="ytick"><text text-anchor="end" x="28" y="2.0999999999999996" style="font-family: 'CMU Serif'; font-size: 6px; fill: rgb(0, 0, 0); fill-opacity: 1; white-space: pre; opacity: 1;" transform="translate(0,50.58)">1.0</text></g><g class="ytick"><text text-anchor="end" x="28" y="2.0999999999999996" style="font-family: 'CMU Serif'; font-size: 6px; fill: rgb(0, 0, 0); fill-opacity: 1; white-space: pre; opacity: 1;" transform="translate(0,40.14)">1.1</text></g></g><g class="overaxes-above"/></g></g><g class="polarlayer"/><g class="smithlayer"/><g class="ternarylayer"/><g class="geolayer"/><g class="funnelarealayer"/><g class="pielayer"/><g class="iciclelayer"/><g class="treemaplayer"/><g class="sunburstlayer"/><g class="glimages"/><defs id="topdefs-507d3c"><g class="clips"/></defs><g class="layer-above"><g class="imagelayer"/><g class="shapelayer"><g class="shape-group" data-index="0" clip-path="url(#clip507d3cy)"><path data-index="0" fill-rule="evenodd" d="M29,60.51L500,60.51" style="opacity: 1; stroke: rgb(165, 42, 42); stroke-opacity: 1; fill: rgb(0, 0, 0); fill-opacity: 0; stroke-dasharray: 9px, 9px; stroke-width: 1px;"/></g></g></g><g class="infolayer"><g class="g-gtitle"/><g class="g-xtitle"/><g class="g-ytitle" transform="translate(3.6220703125,0)"><text class="ytitle" transform="rotate(-90,3.3781250000000007,77.5)" x="3.3781250000000007" y="77.5" text-anchor="middle" style="opacity: 1; font-family: 'CMU Serif'; font-size: 7px; fill: rgb(0, 0, 0); fill-opacity: 1; white-space: pre;">EUR/v.km</text></g></g></svg>