<svg class="main-svg" xmlns="http://www.w3.org/2000/svg" xmlns:xlink="http://www.w3.org/1999/xlink" width="500" height="200" style="" viewBox="0 0 500 200"><rect x="0" y="0" width="500" height="200" style="fill: rgb(0, 0, 0); fill-opacity: 0;"/><defs id="defs-0fb1a2"><g class="clips"><clipPath id="clip0fb1a2xyplot" class="plotclip"><rect width="471" height="155"/></clipPath><clipPath class="axesclip" id="clip0fb1a2x"><rect x="29" y="0" width="471" height="200"/></clipPath><clipPath class="axesclip" id="clip0fb1a2y"><rect x="0" y="0" width="500" height="155"/></clipPath><clipPath class="axesclip" id="clip0fb1a2xy"><rect x="29" y="0" width="471" height="155"/></clipPath></g><g class="gradients"/><g class="patterns"/></defs><g class="bglayer"><rect class="bg" x="29" y="0" width="471" height="155" style="fill: rgb(0, 0, 0); fill-opacity: 0; stroke-width: 0;"/></g><g class="layer-below"><g class="imagelayer"/><g class="shapelayer"/></g><g class="cartesianlayer"><g class="subplot xy"><g class="layer-subplot"><g class="shapelayer"/><g class="imagelayer"/></g><g class="minor-gridlayer"><g class="x"/><g class="y"/></g><g class="gridlayer"><g class="x"/><g class="y"><path class="ygrid crisp" transform="translate(0,143.58)" d="M29,0h471" style="stroke: rgb(255, 255, 255); stroke-opacity: 1; stroke-width: 1px;"/><path class="ygrid crisp" transform="translate(0,132.16)" d="M29,0h471" style="stroke: rgb(255, 255, 255); stroke-opacity: 1; stroke-width: 1px;"/><path class="ygrid crisp" transform="translate(0,120.75)" d="M29,0h471" style="stroke: rgb(255, 255, 255); stroke-opacity: 1; stroke-width: 1px;"/><path class="ygrid crisp" transform="translate(0,109.33)" d="M29,0h471" style="stroke: rgb(255, 255, 255); stroke-opacity: 1; stroke-width: 1px;"/><path class="ygrid crisp" transform="translate(0,97.91)" d="M29,0h471" style="stroke: rgb(255, 255, 255); stroke-opacity: 1; stroke-width: 1px;"/><path class="ygrid crisp" transform="translate(0,86.49)" d="M29,0h471" style="stroke: rgb(255, 255, 255); stroke-opacity: 1; stroke-width: 1px;"/><path class="ygrid crisp" transform="translate(0,75.07)" d="M29,0h471" style="stroke: rgb(255, 255, 255); stroke-opacity: 1; stroke-width: 1px;"/><path class="ygrid crisp" transform="translate(0,63.66)" d="M29,0h471" style="stroke: rgb(255, 255, 255); stroke-opacity: 1; stroke-width: 1px;"/><path class="ygrid crisp" transform="translate(0,52.24)" d="M29,0h471" style="stroke: rgb(255, 255, 255); stroke-opacity: 1; stroke-width: 1px;"/><path class="ygrid crisp" transform="translate(0,40.82)" d="M29,0h471" style="stroke: rgb(255, 255, 255); stroke-opacity: 1; stroke-width: 1px;"/><path class="ygrid crisp" transform="translate(0,29.4)" d="M29,0h471" style="stroke: rgb(255, 255, 255); stroke-opacity: 1; stroke-width: 1px;"/></g></g><g class="zerolinelayer"><path class="yzl zl crisp" transform="translate(0,155)" d="M29,0h471" style="stroke: rgb(255, 255, 255); stroke-opacity: 1; stroke-width: 2px;"/></g><g class="layer-between"><g class="shapelayer"/><g class="imagelayer"/></g><path class="xlines-below"/><path class="ylines-below"/><g class="overlines-below"/><g class="xaxislayer-below"/><g class="yaxislayer-below"/><g class="overaxes-below"/><g class="overplot"><g class="xy" transform="translate(29,0)" clip-path="url(#clip0fb1a2xyplot)"><g class="barlayer mlayer"><g class="trace bars" shape-rendering="crispEdges" style="opacity: 1;"><g class="points"><g class="point"><path d="M1.12,155V155H10.09V155Z" style="vector-effect: none; opacity: 1; stroke-width: 0.5px; fill: rgb(0, 0, 0); fill-opacity: 0; stroke: rgb(0, 0, 0); stroke-opacity: 0;"/></g><g class="point"><path d="M12.34,155V121.92H21.31V155Z" style="vector-effect: none; opacity: 1; stroke-width: 0.5px; fill: rgb(0, 0, 0); fill-opacity: 0; stroke: rgb(0, 0, 0); stroke-opacity: 0;"/></g><g class="point"><path d="M23.55,155V110.88H32.52V155Z" style="vector-effect: none; opacity: 1; stroke-width: 0.5px; fill: rgb(0, 0, 0); fill-opacity: 0; stroke: rgb(0, 0, 0); stroke-opacity: 0;"/></g><g class="point"><path d="M34.76,155V78.8H43.74V155Z" style="vector-effect: none; opacity: 1; stroke-width: 0.5px; fill: rgb(0, 0, 0); fill-opacity: 0; stroke: rgb(0, 0, 0); stroke-opacity: 0;"/></g><g class="point"><path d="M45.98,155V56.24H54.95V155Z" style="vector-effect: none; opacity: 1; stroke-width: 0.5px; fill: rgb(0, 0, 0); fill-opacity: 0; stroke: rgb(0, 0, 0); stroke-opacity: 0;"/></g><g class="point"><path d="M57.19,155V53.48H66.16V155Z" style="vector-effect: none; opacity: 1; stroke-width: 0.5px; fill: rgb(0, 0, 0); fill-opacity: 0; stroke: rgb(0, 0, 0); stroke-opacity: 0;"/></g><g class="point"><path d="M68.41,155V155H77.38V155Z" style="vector-effect: none; opacity: 1; stroke-width: 0.5px; fill: rgb(0, 0, 0); fill-opacity: 0; stroke: rgb(0, 0, 0); stroke-opacity: 0;"/></g><g class="point"><path d="M79.62,155V155H88.59V155Z" style="vector-effect: none; opacity: 1; stroke-width: 0.5px; fill: rgb(0, 0, 0); fill-opacity: 0; stroke: rgb(0, 0, 0); stroke-opacity: 0;"/></g><g class="point"><path d="M90.84,155V121.92H99.81V155Z" style="vector-effect: none; opacity: 1; stroke-width: 0.5px; fill: rgb(0, 0, 0); fill-opacity: 0; stroke: rgb(0, 0, 0); stroke-opacity: 0;"/></g><g class="point"><path d="M102.05,155V110.88H111.02V155Z" style="vector-effect: none; opacity: 1; stroke-width: 0.5px; fill: rgb(0, 0, 0); fill-opacity: 0; stroke: rgb(0, 0, 0); stroke-opacity: 0;"/></g><g class="point"><path d="M113.26,155V78.8H122.24V155Z" style="vector-effect: none; opacity: 1; stroke-width: 0.5px; fill: rgb(0, 0, 0); fill-opacity: 0; stroke: rgb(0, 0, 0); stroke-opacity: 0;"/></g><g class="point"><path d="M124.48,155V57.13H133.45V155Z" style="vector-effect: none; opacity: 1; stroke-width: 0.5px; fill: rgb(0, 0, 0); fill-opacity: 0; stroke: rgb(0, 0, 0); stroke-opacity: 0;"/></g><g class="point"><path d="M135.69,155V57.13H144.66V155Z" style="vector-effect: none; opacity: 1; stroke-width: 0.5px; fill: rgb(0, 0, 0); fill-opacity: 0; stroke: rgb(0, 0, 0); stroke-opacity: 0;"/></g><g class="point"><path d="M146.91,155V155H155.88V155Z" style="vector-effect: none; opacity: 1; stroke-width: 0.5px; fill: rgb(0, 0, 0); fill-opacity: 0; stroke: rgb(0, 0, 0); stroke-opacity: 0;"/></g><g class="point"><path d="M158.12,155V155H167.09V155Z" style="vector-effect: none; opacity: 1; stroke-width: 0.5px; fill: rgb(0, 0, 0); fill-opacity: 0; stroke: rgb(0, 0, 0); stroke-opacity: 0;"/></g><g class="point"><path d="M169.34,155V118.61H178.31V155Z" style="vector-effect: none; opacity: 1; stroke-width: 0.5px; fill: rgb(0, 0, 0); fill-opacity: 0; stroke: rgb(0, 0, 0); stroke-opacity: 0;"/></g><g class="point"><path d="M180.55,155V106.47H189.52V155Z" style="vector-effect: none; opacity: 1; stroke-width: 0.5px; fill: rgb(0, 0, 0); fill-opacity: 0; stroke: rgb(0, 0, 0); stroke-opacity: 0;"/></g><g class="point"><path d="M191.76,155V72.7H200.74V155Z" style="vector-effect: none; opacity: 1; stroke-width: 0.5px; fill: rgb(0, 0, 0); fill-opacity: 0; stroke: rgb(0, 0, 0); stroke-opacity: 0;"/></g><g class="point"><path d="M202.98,155V47.26H211.95V155Z" style="vector-effect: none; opacity: 1; stroke-width: 0.5px; fill: rgb(0, 0, 0); fill-opacity: 0; stroke: rgb(0, 0, 0); stroke-opacity: 0;"/></g><g class="point"><path d="M214.19,155V45.29H223.16V155Z" style="vector-effect: none; opacity: 1; stroke-width: 0.5px; fill: rgb(0, 0, 0); fill-opacity: 0; stroke: rgb(0, 0, 0); stroke-opacity: 0;"/></g><g class="point"><path d="M225.41,155V155H234.38V155Z" style="vector-effect: none; opacity: 1; stroke-width: 0.5px; fill: rgb(0, 0, 0); fill-opacity: 0; stroke: rgb(0, 0, 0); stroke-opacity: 0;"/></g><g class="point"><path d="M236.62,155V155H245.59V155Z" style="vector-effect: none; opacity: 1; stroke-width: 0.5px; fill: rgb(0, 0, 0); fill-opacity: 0; stroke: rgb(0, 0, 0); stroke-opacity: 0;"/></g><g class="point"><path d="M247.84,155V118.61H256.81V155Z" style="vector-effect: none; opacity: 1; stroke-width: 0.5px; fill: rgb(0, 0, 0); fill-opacity: 0; stroke: rgb(0, 0, 0); stroke-opacity: 0;"/></g><g class="point"><path d="M259.05,155V106.47H268.02V155Z" style="vector-effect: none; opacity: 1; stroke-width: 0.5px; fill: rgb(0, 0, 0); fill-opacity: 0; stroke: rgb(0, 0, 0); stroke-opacity: 0;"/></g><g class="point"><path d="M270.26,155V72.7H279.24V155Z" style="vector-effect: none; opacity: 1; stroke-width: 0.5px; fill: rgb(0, 0, 0); fill-opacity: 0; stroke: rgb(0, 0, 0); stroke-opacity: 0;"/></g><g class="point"><path d="M281.48,155V39.22H290.45V155Z" style="vector-effect: none; opacity: 1; stroke-width: 0.5px; fill: rgb(0, 0, 0); fill-opacity: 0; stroke: rgb(0, 0, 0); stroke-opacity: 0;"/></g><g class="point"><path d="M292.69,155V39.22H301.66V155Z" style="vector-effect: none; opacity: 1; stroke-width: 0.5px; fill: rgb(0, 0, 0); fill-opacity: 0; stroke: rgb(0, 0, 0); stroke-opacity: 0;"/></g><g class="point"><path d="M303.91,155V155H312.88V155Z" style="vector-effect: none; opacity: 1; stroke-width: 0.5px; fill: rgb(0, 0, 0); fill-opacity: 0; stroke: rgb(0, 0, 0); stroke-opacity: 0;"/></g><g class="point"><path d="M315.12,155V155H324.09V155Z" style="vector-effect: none; opacity: 1; stroke-width: 0.5px; fill: rgb(0, 0, 0); fill-opacity: 0; stroke: rgb(0, 0, 0); stroke-opacity: 0;"/></g><g class="point"><path d="M326.34,155V118.23H335.31V155Z" style="vector-effect: none; opacity: 1; stroke-width: 0.5px; fill: rgb(0, 0, 0); fill-opacity: 0; stroke: rgb(0, 0, 0); stroke-opacity: 0;"/></g><g class="point"><path d="M337.55,155V105.96H346.52V155Z" style="vector-effect: none; opacity: 1; stroke-width: 0.5px; fill: rgb(0, 0, 0); fill-opacity: 0; stroke: rgb(0, 0, 0); stroke-opacity: 0;"/></g><g class="point"><path d="M348.76,155V79.49H357.74V155Z" style="vector-effect: none; opacity: 1; stroke-width: 0.5px; fill: rgb(0, 0, 0); fill-opacity: 0; stroke: rgb(0, 0, 0); stroke-opacity: 0;"/></g><g class="point"><path d="M359.98,155V72.69H368.95V155Z" style="vector-effect: none; opacity: 1; stroke-width: 0.5px; fill: rgb(0, 0, 0); fill-opacity: 0; stroke: rgb(0, 0, 0); stroke-opacity: 0;"/></g><g class="point"><path d="M371.19,155V72.69H380.16V155Z" style="vector-effect: none; opacity: 1; stroke-width: 0.5px; fill: rgb(0, 0, 0); fill-opacity: 0; stroke: rgb(0, 0, 0); stroke-opacity: 0;"/></g><g class="point"><path d="M382.41,155V155H391.38V155Z" style="vector-effect: none; opacity: 1; stroke-width: 0.5px; fill: rgb(0, 0, 0); fill-opacity: 0; stroke: rgb(0, 0, 0); stroke-opacity: 0;"/></g><g class="point"><path d="M393.62,155V155H402.59V155Z" style="vector-effect: none; opacity: 1; stroke-width: 0.5px; fill: rgb(0, 0, 0); fill-opacity: 0; stroke: rgb(0, 0, 0); stroke-opacity: 0;"/></g><g class="point"><path d="M404.84,155V110.39H413.81V155Z" style="vector-effect: none; opacity: 1; stroke-width: 0.5px; fill: rgb(0, 0, 0); fill-opacity: 0; stroke: rgb(0, 0, 0); stroke-opacity: 0;"/></g><g class="point"><path d="M416.05,155V95.51H425.02V155Z" style="vector-effect: none; opacity: 1; stroke-width: 0.5px; fill: rgb(0, 0, 0); fill-opacity: 0; stroke: rgb(0, 0, 0); stroke-opacity: 0;"/></g><g class="point"><path d="M427.26,155V68.47H436.24V155Z" style="vector-effect: none; opacity: 1; stroke-width: 0.5px; fill: rgb(0, 0, 0); fill-opacity: 0; stroke: rgb(0, 0, 0); stroke-opacity: 0;"/></g><g class="point"><path d="M438.48,155V50.29H447.45V155Z" style="vector-effect: none; opacity: 1; stroke-width: 0.5px; fill: rgb(0, 0, 0); fill-opacity: 0; stroke: rgb(0, 0, 0); stroke-opacity: 0;"/></g><g class="point"><path d="M449.69,155V50.29H458.66V155Z" style="vector-effect: none; opacity: 1; stroke-width: 0.5px; fill: rgb(0, 0, 0); fill-opacity: 0; stroke: rgb(0, 0, 0); stroke-opacity: 0;"/></g><g class="point"><path d="M460.91,155V155H469.88V155Z" style="vector-effect: none; opacity: 1; stroke-width: 0.5px; fill: rgb(0, 0, 0); fill-opacity: 0; stroke: rgb(0, 0, 0); stroke-opacity: 0;"/></g></g></g><g class="trace bars" shape-rendering="crispEdges" style="opacity: 1;"><g class="points"><g class="point"><path d="M1.12,155V121.92H10.09V155Z" style="vector-effect: none; opacity: 1; stroke-width: 0.5px; fill: rgb(76, 114, 176); fill-opacity: 0.6; stroke: rgb(0, 0, 0); stroke-opacity: 1;"/></g><g class="point"><path d="M12.34,121.92V110.88H21.31V121.92Z" style="vector-effect: none; opacity: 1; stroke-width: 0.5px; fill: rgb(72, 106, 161); fill-opacity: 0.6; stroke: rgb(0, 0, 0); stroke-opacity: 1;"/></g><g class="point"><path d="M23.55,110.88V78.8H32.52V110.88Z" style="vector-effect: none; opacity: 1; stroke-width: 0.5px; fill: rgb(67, 97, 147); fill-opacity: 0.6; stroke: rgb(0, 0, 0); stroke-opacity: 1;"/></g><g class="point"><path d="M34.76,78.8V56.24H43.74V78.8Z" style="vector-effect: none; opacity: 1; stroke-width: 0.5px; fill: rgb(63, 89, 131); fill-opacity: 0.6; stroke: rgb(0, 0, 0); stroke-opacity: 1;"/></g><g class="point"><path d="M45.98,56.24V53.48H54.95V56.24Z" style="vector-effect: none; opacity: 1; stroke-width: 0.5px; fill: rgb(58, 80, 117); fill-opacity: 0.6; stroke: rgb(0, 0, 0); stroke-opacity: 1;"/></g><g class="point"><path d="M57.19,53.48V53.48H66.16V53.48Z" style="vector-effect: none; opacity: 1; stroke-width: 0.5px; fill: rgb(54, 72, 101); fill-opacity: 0.6; stroke: rgb(0, 0, 0); stroke-opacity: 1;"/></g><g class="point"><path d="M68.41,155V53.48H77.38V155Z" style="vector-effect: none; opacity: 1; stroke-width: 0.5px; fill: rgb(49, 63, 86); fill-opacity: 0.6; stroke: rgb(0, 0, 0); stroke-opacity: 1;"/></g><g class="point"><path d="M79.62,155V121.92H88.59V155Z" style="vector-effect: none; opacity: 1; stroke-width: 0.5px; fill: rgb(100, 181, 205); fill-opacity: 0.6; stroke: rgb(0, 0, 0); stroke-opacity: 1;"/></g><g class="point"><path d="M90.84,121.92V110.88H99.81V121.92Z" style="vector-effect: none; opacity: 1; stroke-width: 0.5px; fill: rgb(93, 165, 187); fill-opacity: 0.6; stroke: rgb(0, 0, 0); stroke-opacity: 1;"/></g><g class="point"><path d="M102.05,110.88V78.8H111.02V110.88Z" style="vector-effect: none; opacity: 1; stroke-width: 0.5px; fill: rgb(86, 150, 169); fill-opacity: 0.6; stroke: rgb(0, 0, 0); stroke-opacity: 1;"/></g><g class="point"><path d="M113.26,78.8V57.13H122.24V78.8Z" style="vector-effect: none; opacity: 1; stroke-width: 0.5px; fill: rgb(79, 133, 150); fill-opacity: 0.6; stroke: rgb(0, 0, 0); stroke-opacity: 1;"/></g><g class="point"><path d="M124.48,57.13V57.13H133.45V57.13Z" style="vector-effect: none; opacity: 1; stroke-width: 0.5px; fill: rgb(71, 118, 132); fill-opacity: 0.6; stroke: rgb(0, 0, 0); stroke-opacity: 1;"/></g><g class="point"><path d="M135.69,57.13V57.13H144.66V57.13Z" style="vector-effect: none; opacity: 1; stroke-width: 0.5px; fill: rgb(64, 101, 113); fill-opacity: 0.6; stroke: rgb(0, 0, 0); stroke-opacity: 1;"/></g><g class="point"><path d="M146.91,155V57.13H155.88V155Z" style="vector-effect: none; opacity: 1; stroke-width: 0.5px; fill: rgb(57, 86, 94); fill-opacity: 0.6; stroke: rgb(0, 0, 0); stroke-opacity: 1;"/></g><g class="point"><path d="M158.12,155V118.61H167.09V155Z" style="vector-effect: none; opacity: 1; stroke-width: 0.5px; fill: rgb(196, 78, 82); fill-opacity: 0.6; stroke: rgb(0, 0, 0); stroke-opacity: 1;"/></g><g class="point"><path d="M169.34,118.61V106.47H178.31V118.61Z" style="vector-effect: none; opacity: 1; stroke-width: 0.5px; fill: rgb(179, 73, 77); fill-opacity: 0.6; stroke: rgb(0, 0, 0); stroke-opacity: 1;"/></g><g class="point"><path d="M180.55,106.47V72.7H189.52V106.47Z" style="vector-effect: none; opacity: 1; stroke-width: 0.5px; fill: rgb(163, 69, 72); fill-opacity: 0.6; stroke: rgb(0, 0, 0); stroke-opacity: 1;"/></g><g class="point"><path d="M191.76,72.7V47.26H200.74V72.7Z" style="vector-effect: none; opacity: 1; stroke-width: 0.5px; fill: rgb(145, 64, 67); fill-opacity: 0.6; stroke: rgb(0, 0, 0); stroke-opacity: 1;"/></g><g class="point"><path d="M202.98,47.26V45.29H211.95V47.26Z" style="vector-effect: none; opacity: 1; stroke-width: 0.5px; fill: rgb(129, 59, 62); fill-opacity: 0.6; stroke: rgb(0, 0, 0); stroke-opacity: 1;"/></g><g class="point"><path d="M214.19,45.29V45.29H223.16V45.29Z" style="vector-effect: none; opacity: 1; stroke-width: 0.5px; fill: rgb(111, 54, 56); fill-opacity: 0.6; stroke: rgb(0, 0, 0); stroke-opacity: 1;"/></g><g class="point"><path d="M225.41,155V45.29H234.38V155Z" style="vector-effect: none; opacity: 1; stroke-width: 0.5px; fill: rgb(95, 50, 51); fill-opacity: 0.6; stroke: rgb(0, 0, 0); stroke-opacity: 1;"/></g><g class="point"><path d="M236.62,155V118.61H245.59V155Z" style="vector-effect: none; opacity: 1; stroke-width: 0.5px; fill: rgb(221, 132, 82); fill-opacity: 0.6; stroke: rgb(0, 0, 0); stroke-opacity: 1;"/></g><g class="point"><path d="M247.84,118.61V106.47H256.81V118.61Z" style="vector-effect: none; opacity: 1; stroke-width: 0.5px; fill: rgb(201, 122, 77); fill-opacity: 0.6; stroke: rgb(0, 0, 0); stroke-opacity: 1;"/></g><g class="point"><path d="M259.05,106.47V72.7H268.02V106.47Z" style="vector-effect: none; opacity: 1; stroke-width: 0.5px; fill: rgb(182, 111, 72); fill-opacity: 0.6; stroke: rgb(0, 0, 0); stroke-opacity: 1;"/></g><g class="point"><path d="M270.26,72.7V39.22H279.24V72.7Z" style="vector-effect: none; opacity: 1; stroke-width: 0.5px; fill: rgb(161, 100, 66); fill-opacity: 0.6; stroke: rgb(0, 0, 0); stroke-opacity: 1;"/></g><g class="point"><path d="M281.48,39.22V39.22H290.45V39.22Z" style="vector-effect: none; opacity: 1; stroke-width: 0.5px; fill: rgb(142, 90, 61); fill-opacity: 0.6; stroke: rgb(0, 0, 0); stroke-opacity: 1;"/></g><g class="point"><path d="M292.69,39.22V39.22H301.66V39.22Z" style="vector-effect: none; opacity: 1; stroke-width: 0.5px; fill: rgb(121, 79, 56); fill-opacity: 0.6; stroke: rgb(0, 0, 0); stroke-opacity: 1;"/></g><g class="point"><path d="M303.91,155V39.22H312.88V155Z" style="vector-effect: none; opacity: 1; stroke-width: 0.5px; fill: rgb(102, 68, 51); fill-opacity: 0.6; stroke: rgb(0, 0, 0); stroke-opacity: 1;"/></g><g class="point"><path d="M315.12,155V118.23H324.09V155Z" style="vector-effect: none; opacity: 1; stroke-width: 0.5px; fill: rgb(85, 168, 104); fill-opacity: 0.6; stroke: rgb(0, 0, 0); stroke-opacity: 1;"/></g><g class="point"><path d="M326.34,118.23V105.96H335.31V118.23Z" style="vector-effect: none; opacity: 1; stroke-width: 0.5px; fill: rgb(80, 154, 96); fill-opacity: 0.6; stroke: rgb(0, 0, 0); stroke-opacity: 1;"/></g><g class="point"><path d="M337.55,105.96V79.49H346.52V105.96Z" style="vector-effect: none; opacity: 1; stroke-width: 0.5px; fill: rgb(74, 140, 89); fill-opacity: 0.6; stroke: rgb(0, 0, 0); stroke-opacity: 1;"/></g><g class="point"><path d="M348.76,79.49V72.69H357.74V79.49Z" style="vector-effect: none; opacity: 1; stroke-width: 0.5px; fill: rgb(68, 125, 81); fill-opacity: 0.6; stroke: rgb(0, 0, 0); stroke-opacity: 1;"/></g><g class="point"><path d="M359.98,72.69V72.69H368.95V72.69Z" style="vector-effect: none; opacity: 1; stroke-width: 0.5px; fill: rgb(63, 111, 74); fill-opacity: 0.6; stroke: rgb(0, 0, 0); stroke-opacity: 1;"/></g><g class="point"><path d="M371.19,72.69V69.12H380.16V72.69Z" style="vector-effect: none; opacity: 1; stroke-width: 0.5px; fill: rgb(57, 96, 66); fill-opacity: 0.6; stroke: rgb(0, 0, 0); stroke-opacity: 1;"/></g><g class="point"><path d="M382.41,155V69.12H391.38V155Z" style="vector-effect: none; opacity: 1; stroke-width: 0.5px; fill: rgb(52, 82, 58); fill-opacity: 0.6; stroke: rgb(0, 0, 0); stroke-opacity: 1;"/></g><g class="point"><path d="M393.62,155V110.39H402.59V155Z" style="vector-effect: none; opacity: 1; stroke-width: 0.5px; fill: rgb(204, 185, 116); fill-opacity: 0.6; stroke: rgb(0, 0, 0); stroke-opacity: 1;"/></g><g class="point"><path d="M404.84,110.39V95.51H413.81V110.39Z" style="vector-effect: none; opacity: 1; stroke-width: 0.5px; fill: rgb(186, 169, 107); fill-opacity: 0.6; stroke: rgb(0, 0, 0); stroke-opacity: 1;"/></g><g class="point"><path d="M416.05,95.51V68.47H425.02V95.51Z" style="vector-effect: none; opacity: 1; stroke-width: 0.5px; fill: rgb(168, 153, 98); fill-opacity: 0.6; stroke: rgb(0, 0, 0); stroke-opacity: 1;"/></g><g class="point"><path d="M427.26,68.47V50.29H436.24V68.47Z" style="vector-effect: none; opacity: 1; stroke-width: 0.5px; fill: rgb(149, 136, 89); fill-opacity: 0.6; stroke: rgb(0, 0, 0); stroke-opacity: 1;"/></g><g class="point"><path d="M438.48,50.29V50.29H447.45V50.29Z" style="vector-effect: none; opacity: 1; stroke-width: 0.5px; fill: rgb(131, 120, 80); fill-opacity: 0.6; stroke: rgb(0, 0, 0); stroke-opacity: 1;"/></g><g class="point"><path d="M449.69,50.29V39.8H458.66V50.29Z" style="vector-effect: none; opacity: 1; stroke-width: 0.5px; fill: rgb(112, 103, 71); fill-opacity: 0.6; stroke: rgb(0, 0, 0); stroke-opacity: 1;"/></g><g class="point"><path d="M460.91,155V39.8H469.88V155Z" style="vector-effect: none; opacity: 1; stroke-width: 0.5px; fill: rgb(94, 87, 62); fill-opacity: 0.6; stroke: rgb(0, 0, 0); stroke-opacity: 1;"/></g></g><g class="errorbar" style="opacity: 1;"><path class="yerror" d="M1.6100000000000003,121.92h8m-4,0V121.92m-4,0h8" style="vector-effect: none; stroke-width: 2px; stroke: rgb(42, 63, 95); stroke-opacity: 1;"/></g><g class="errorbar" style="opacity: 1;"><path class="yerror" d="M12.82,110.88h8m-4,0V110.88m-4,0h8" style="vector-effect: none; stroke-width: 2px; stroke: rgb(42, 63, 95); stroke-opacity: 1;"/></g><g class="errorbar" style="opacity: 1;"><path class="yerror" d="M24.04,78.8h8m-4,0V78.8m-4,0h8" style="vector-effect: none; stroke-width: 2px; stroke: rgb(42, 63, 95); stroke-opacity: 1;"/></g><g class="errorbar" style="opacity: 1;"><path class="yerror" d="M35.25,55.14h8m-4,0V60.55m-4,0h8" style="vector-effect: none; stroke-width: 2px; stroke: rgb(42, 63, 95); stroke-opacity: 1;"/></g><g class="errorbar" style="opacity: 1;"><path class="yerror" d="M46.46,50.71h8m-4,0V56.24m-4,0h8" style="vector-effect: none; stroke-width: 2px; stroke: rgb(42, 63, 95); stroke-opacity: 1;"/></g><g class="errorbar" style="opacity: 1;"><path class="yerror" d="M57.68,53.48h8m-4,0V53.48m-4,0h8" style="vector-effect: none; stroke-width: 2px; stroke: rgb(42, 63, 95); stroke-opacity: 1;"/></g><g class="errorbar" style="opacity: 1;"><path class="yerror" d="M68.89,49.61h8m-4,0V60.55m-4,0h8" style="vector-effect: none; stroke-width: 2px; stroke: rgb(42, 63, 95); stroke-opacity: 1;"/></g><g class="errorbar" style="opacity: 1;"><path class="yerror" d="M80.11,121.92h8m-4,0V121.92m-4,0h8" style="vector-effect: none; stroke-width: 2px; stroke: rgb(42, 63, 95); stroke-opacity: 1;"/></g><g class="errorbar" style="opacity: 1;"><path class="yerror" d="M91.32,110.88h8m-4,0V110.88m-4,0h8" style="vector-effect: none; stroke-width: 2px; stroke: rgb(42, 63, 95); stroke-opacity: 1;"/></g><g class="errorbar" style="opacity: 1;"><path class="yerror" d="M102.54,78.8h8m-4,0V78.8m-4,0h8" style="vector-effect: none; stroke-width: 2px; stroke: rgb(42, 63, 95); stroke-opacity: 1;"/></g><g class="errorbar" style="opacity: 1;"><path class="yerror" d="M113.75,54.12h8m-4,0V63.39m-4,0h8" style="vector-effect: none; stroke-width: 2px; stroke: rgb(42, 63, 95); stroke-opacity: 1;"/></g><g class="errorbar" style="opacity: 1;"><path class="yerror" d="M124.96000000000001,57.13h8m-4,0V57.13m-4,0h8" style="vector-effect: none; stroke-width: 2px; stroke: rgb(42, 63, 95); stroke-opacity: 1;"/></g><g class="errorbar" style="opacity: 1;"><path class="yerror" d="M136.18,57.13h8m-4,0V57.13m-4,0h8" style="vector-effect: none; stroke-width: 2px; stroke: rgb(42, 63, 95); stroke-opacity: 1;"/></g><g class="errorbar" style="opacity: 1;"><path class="yerror" d="M147.39,54.12h8m-4,0V63.39m-4,0h8" style="vector-effect: none; stroke-width: 2px; stroke: rgb(42, 63, 95); stroke-opacity: 1;"/></g><g class="errorbar" style="opacity: 1;"><path class="yerror" d="M158.61,118.61h8m-4,0V118.61m-4,0h8" style="vector-effect: none; stroke-width: 2px; stroke: rgb(42, 63, 95); stroke-opacity: 1;"/></g><g class="errorbar" style="opacity: 1;"><path class="yerror" d="M169.82,106.47h8m-4,0V106.47m-4,0h8" style="vector-effect: none; stroke-width: 2px; stroke: rgb(42, 63, 95); stroke-opacity: 1;"/></g><g class="errorbar" style="opacity: 1;"><path class="yerror" d="M181.04,72.7h8m-4,0V72.7m-4,0h8" style="vector-effect: none; stroke-width: 2px; stroke: rgb(42, 63, 95); stroke-opacity: 1;"/></g><g class="errorbar" style="opacity: 1;"><path class="yerror" d="M192.25,46.65h8m-4,0V48.6m-4,0h8" style="vector-effect: none; stroke-width: 2px; stroke: rgb(42, 63, 95); stroke-opacity: 1;"/></g><g class="errorbar" style="opacity: 1;"><path class="yerror" d="M203.46,43.31h8m-4,0V47.26m-4,0h8" style="vector-effect: none; stroke-width: 2px; stroke: rgb(42, 63, 95); stroke-opacity: 1;"/></g><g class="errorbar" style="opacity: 1;"><path class="yerror" d="M214.68,45.29h8m-4,0V45.29m-4,0h8" style="vector-effect: none; stroke-width: 2px; stroke: rgb(42, 63, 95); stroke-opacity: 1;"/></g><g class="errorbar" style="opacity: 1;"><path class="yerror" d="M225.89,42.69h8m-4,0V48.6m-4,0h8" style="vector-effect: none; stroke-width: 2px; stroke: rgb(42, 63, 95); stroke-opacity: 1;"/></g><g class="errorbar" style="opacity: 1;"><path class="yerror" d="M237.11,118.61h8m-4,0V118.61m-4,0h8" style="vector-effect: none; stroke-width: 2px; stroke: rgb(42, 63, 95); stroke-opacity: 1;"/></g><g class="errorbar" style="opacity: 1;"><path class="yerror" d="M248.32,106.47h8m-4,0V106.47m-4,0h8" style="vector-effect: none; stroke-width: 2px; stroke: rgb(42, 63, 95); stroke-opacity: 1;"/></g><g class="errorbar" style="opacity: 1;"><path class="yerror" d="M259.54,72.7h8m-4,0V72.7m-4,0h8" style="vector-effect: none; stroke-width: 2px; stroke: rgb(42, 63, 95); stroke-opacity: 1;"/></g><g class="errorbar" style="opacity: 1;"><path class="yerror" d="M270.75,31.6h8m-4,0V51.92m-4,0h8" style="vector-effect: none; stroke-width: 2px; stroke: rgb(42, 63, 95); stroke-opacity: 1;"/></g><g class="errorbar" style="opacity: 1;"><path class="yerror" d="M281.96,39.22h8m-4,0V39.22m-4,0h8" style="vector-effect: none; stroke-width: 2px; stroke: rgb(42, 63, 95); stroke-opacity: 1;"/></g><g class="errorbar" style="opacity: 1;"><path class="yerror" d="M293.18,39.22h8m-4,0V39.22m-4,0h8" style="vector-effect: none; stroke-width: 2px; stroke: rgb(42, 63, 95); stroke-opacity: 1;"/></g><g class="errorbar" style="opacity: 1;"><path class="yerror" d="M304.39,31.6h8m-4,0V51.92m-4,0h8" style="vector-effect: none; stroke-width: 2px; stroke: rgb(42, 63, 95); stroke-opacity: 1;"/></g><g class="errorbar" style="opacity: 1;"><path class="yerror" d="M315.61,117.64h8m-4,0V126.41m-4,0h8" style="vector-effect: none; stroke-width: 2px; stroke: rgb(42, 63, 95); stroke-opacity: 1;"/></g><g class="errorbar" style="opacity: 1;"><path class="yerror" d="M326.82,105.76h8m-4,0V108.69m-4,0h8" style="vector-effect: none; stroke-width: 2px; stroke: rgb(42, 63, 95); stroke-opacity: 1;"/></g><g class="errorbar" style="opacity: 1;"><path class="yerror" d="M338.04,79.49h8m-4,0V79.49m-4,0h8" style="vector-effect: none; stroke-width: 2px; stroke: rgb(42, 63, 95); stroke-opacity: 1;"/></g><g class="errorbar" style="opacity: 1;"><path class="yerror" d="M349.25,71.45h8m-4,0V73.3m-4,0h8" style="vector-effect: none; stroke-width: 2px; stroke: rgb(42, 63, 95); stroke-opacity: 1;"/></g><g class="errorbar" style="opacity: 1;"><path class="yerror" d="M360.46,72.69h8m-4,0V72.69m-4,0h8" style="vector-effect: none; stroke-width: 2px; stroke: rgb(42, 63, 95); stroke-opacity: 1;"/></g><g class="errorbar" style="opacity: 1;"><path class="yerror" d="M371.68,66.5h8m-4,0V69.78m-4,0h8" style="vector-effect: none; stroke-width: 2px; stroke: rgb(42, 63, 95); stroke-opacity: 1;"/></g><g class="errorbar" style="opacity: 1;"><path class="yerror" d="M382.89,64.48h8m-4,0V81.31m-4,0h8" style="vector-effect: none; stroke-width: 2px; stroke: rgb(42, 63, 95); stroke-opacity: 1;"/></g><g class="errorbar" style="opacity: 1;"><path class="yerror" d="M394.11,110.39h8m-4,0V114.72m-4,0h8" style="vector-effect: none; stroke-width: 2px; stroke: rgb(42, 63, 95); stroke-opacity: 1;"/></g><g class="errorbar" style="opacity: 1;"><path class="yerror" d="M405.32,95.51h8m-4,0V96.95m-4,0h8" style="vector-effect: none; stroke-width: 2px; stroke: rgb(42, 63, 95); stroke-opacity: 1;"/></g><g class="errorbar" style="opacity: 1;"><path class="yerror" d="M416.54,68.47h8m-4,0V68.47m-4,0h8" style="vector-effect: none; stroke-width: 2px; stroke: rgb(42, 63, 95); stroke-opacity: 1;"/></g><g class="errorbar" style="opacity: 1;"><path class="yerror" d="M427.75,41.07h8m-4,0V55.15m-4,0h8" style="vector-effect: none; stroke-width: 2px; stroke: rgb(42, 63, 95); stroke-opacity: 1;"/></g><g class="errorbar" style="opacity: 1;"><path class="yerror" d="M438.96,50.29h8m-4,0V50.29m-4,0h8" style="vector-effect: none; stroke-width: 2px; stroke: rgb(42, 63, 95); stroke-opacity: 1;"/></g><g class="errorbar" style="opacity: 1;"><path class="yerror" d="M450.18,16.97h8m-4,0V41.01m-4,0h8" style="vector-effect: none; stroke-width: 2px; stroke: rgb(42, 63, 95); stroke-opacity: 1;"/></g><g class="errorbar" style="opacity: 1;"><path class="yerror" d="M461.39,7.75h8m-4,0V51.65m-4,0h8" style="vector-effect: none; stroke-width: 2px; stroke: rgb(42, 63, 95); stroke-opacity: 1;"/></g></g></g></g></g><path class="xlines-above crisp" d="M0,0" style="fill: none;"/><path class="ylines-above crisp" d="M0,0" style="fill: none;"/><g class="overlines-above"/><g class="xaxislayer-above"><path class="xdivider crisp" transform="translate(500,0)" d="M0,156v44.921875" style="stroke: rgb(68, 68, 68); stroke-opacity: 1; stroke-width: 1px;"/><path class="xdivider crisp" transform="translate(421.5,0)" d="M0,156v44.921875" style="stroke: rgb(68, 68, 68); stroke-opacity: 1; stroke-width: 1px;"/><path class="xdivider crisp" transform="translate(343,0)" d="M0,156v44.921875" style="stroke: rgb(68, 68, 68); stroke-opacity: 1; stroke-width: 1px;"/><path class="xdivider crisp" transform="translate(264.5,0)" d="M0,156v44.921875" style="stroke: rgb(68, 68, 68); stroke-opacity: 1; stroke-width: 1px;"/><path class="xdivider crisp" transform="translate(186,0)" d="M0,156v44.921875" style="stroke: rgb(68, 68, 68); stroke-opacity: 1; stroke-width: 1px;"/><path class="xdivider crisp" transform="translate(107.5,0)" d="M0,156v44.921875" style="stroke: rgb(68, 68, 68); stroke-opacity: 1; stroke-width: 1px;"/><path class="xdivider crisp" transform="translate(29,0)" d="M0,156v44.921875" style="stroke: rgb(68, 68, 68); stroke-opacity: 1; stroke-width: 1px;"/><g class="xtick"><text text-anchor="start" x="0" y="162" transform="translate(34.61,0) rotate(90,0,159)" style="font-family: 'CMU Serif'; font-size: 6px; fill: rgb(0, 0, 0); fill-opacity: 1; white-space: pre; opacity: 1;">CAPEX</text></g><g class="xtick"><text text-anchor="start" x="0" y="162" transform="translate(45.82,0) rotate(90,0,159)" style="font-family: 'CMU Serif'; font-size: 6px; fill: rgb(0, 0, 0); fill-opacity: 1; white-space: pre; opacity: 1;">FIXOM</text></g><g class="xtick"><text text-anchor="start" x="0" y="162" transform="translate(57.04,0) rotate(90,0,159)" style="font-family: 'CMU Serif'; font-size: 6px; fill: rgb(0, 0, 0); fill-opacity: 1; white-space: pre; opacity: 1;">VAROM</text></g><g class="xtick"><text text-anchor="start" x="0" y="162" transform="translate(68.25,0) rotate(90,0,159)" style="font-family: 'CMU Serif'; font-size: 6px; fill: rgb(0, 0, 0); fill-opacity: 1; white-space: pre; opacity: 1;">ENERGY</text></g><g class="xtick"><text text-anchor="start" x="0" y="162" transform="translate(79.46000000000001,0) rotate(90,0,159)" style="font-family: 'CMU Serif'; font-size: 6px; fill: rgb(0, 0, 0); fill-opacity: 1; white-space: pre; opacity: 1;">ETS</text></g><g class="xtick"><text text-anchor="start" x="0" y="162" transform="translate(90.68,0) rotate(90,0,159)" style="font-family: 'CMU Serif'; font-size: 6px; fill: rgb(0, 0, 0); fill-opacity: 1; white-space: pre; opacity: 1;">RE-INFR</text></g><g class="xtick"><text text-anchor="start" x="0" y="162" transform="translate(101.89,0) rotate(90,0,159)" style="font-family: 'CMU Serif'; font-size: 6px; fill: rgb(0, 0, 0); fill-opacity: 1; white-space: pre; opacity: 1;">TOTAL</text></g><g class="xtick"><text text-anchor="start" x="0" y="162" transform="translate(113.11,0) rotate(90,0,159)" style="font-family: 'CMU Serif'; font-size: 6px; fill: rgb(0, 0, 0); fill-opacity: 1; white-space: pre; opacity: 1;">CAPEX</text></g><g class="xtick"><text text-anchor="start" x="0" y="162" transform="translate(124.32,0) rotate(90,0,159)" style="font-family: 'CMU Serif'; font-size: 6px; fill: rgb(0, 0, 0); fill-opacity: 1; white-space: pre; opacity: 1;">FIXOM</text></g><g class="xtick"><text text-anchor="start" x="0" y="162" transform="translate(135.54000000000002,0) rotate(90,0,159)" style="font-family: 'CMU Serif'; font-size: 6px; fill: rgb(0, 0, 0); fill-opacity: 1; white-space: pre; opacity: 1;">VAROM</text></g><g class="xtick"><text text-anchor="start" x="0" y="162" transform="translate(146.75,0) rotate(90,0,159)" style="font-family: 'CMU Serif'; font-size: 6px; fill: rgb(0, 0, 0); fill-opacity: 1; white-space: pre; opacity: 1;">ENERGY</text></g><g class="xtick"><text text-anchor="start" x="0" y="162" transform="translate(157.96,0) rotate(90,0,159)" style="font-family: 'CMU Serif'; font-size: 6px; fill: rgb(0, 0, 0); fill-opacity: 1; white-space: pre; opacity: 1;">ETS</text></g><g class="xtick"><text text-anchor="start" x="0" y="162" transform="translate(169.18,0) rotate(90,0,159)" style="font-family: 'CMU Serif'; font-size: 6px; fill: rgb(0, 0, 0); fill-opacity: 1; white-space: pre; opacity: 1;">RE-INFR</text></g><g class="xtick"><text text-anchor="start" x="0" y="162" transform="translate(180.39,0) rotate(90,0,159)" style="font-family: 'CMU Serif'; font-size: 6px; fill: rgb(0, 0, 0); fill-opacity: 1; white-space: pre; opacity: 1;">TOTAL</text></g><g class="xtick"><text text-anchor="start" x="0" y="162" transform="translate(191.61,0) rotate(90,0,159)" style="font-family: 'CMU Serif'; font-size: 6px; fill: rgb(0, 0, 0); fill-opacity: 1; white-space: pre; opacity: 1;">CAPEX</text></g><g class="xtick"><text text-anchor="start" x="0" y="162" transform="translate(202.82,0) rotate(90,0,159)" style="font-family: 'CMU Serif'; font-size: 6px; fill: rgb(0, 0, 0); fill-opacity: 1; white-space: pre; opacity: 1;">FIXOM</text></g><g class="xtick"><text text-anchor="start" x="0" y="162" transform="translate(214.04,0) rotate(90,0,159)" style="font-family: 'CMU Serif'; font-size: 6px; fill: rgb(0, 0, 0); fill-opacity: 1; white-space: pre; opacity: 1;">VAROM</text></g><g class="xtick"><text text-anchor="start" x="0" y="162" transform="translate(225.25,0) rotate(90,0,159)" style="font-family: 'CMU Serif'; font-size: 6px; fill: rgb(0, 0, 0); fill-opacity: 1; white-space: pre; opacity: 1;">ENERGY</text></g><g class="xtick"><text text-anchor="start" x="0" y="162" transform="translate(236.46,0) rotate(90,0,159)" style="font-family: 'CMU Serif'; font-size: 6px; fill: rgb(0, 0, 0); fill-opacity: 1; white-space: pre; opacity: 1;">ETS</text></g><g class="xtick"><text text-anchor="start" x="0" y="162" transform="translate(247.68,0) rotate(90,0,159)" style="font-family: 'CMU Serif'; font-size: 6px; fill: rgb(0, 0, 0); fill-opacity: 1; white-space: pre; opacity: 1;">RE-INFR</text></g><g class="xtick"><text text-anchor="start" x="0" y="162" transform="translate(258.89,0) rotate(90,0,159)" style="font-family: 'CMU Serif'; font-size: 6px; fill: rgb(0, 0, 0); fill-opacity: 1; white-space: pre; opacity: 1;">TOTAL</text></g><g class="xtick"><text text-anchor="start" x="0" y="162" transform="translate(270.11,0) rotate(90,0,159)" style="font-family: 'CMU Serif'; font-size: 6px; fill: rgb(0, 0, 0); fill-opacity: 1; white-space: pre; opacity: 1;">CAPEX</text></g><g class="xtick"><text text-anchor="start" x="0" y="162" transform="translate(281.32,0) rotate(90,0,159)" style="font-family: 'CMU Serif'; font-size: 6px; fill: rgb(0, 0, 0); fill-opacity: 1; white-space: pre; opacity: 1;">FIXOM</text></g><g class="xtick"><text text-anchor="start" x="0" y="162" transform="translate(292.54,0) rotate(90,0,159)" style="font-family: 'CMU Serif'; font-size: 6px; fill: rgb(0, 0, 0); fill-opacity: 1; white-space: pre; opacity: 1;">VAROM</text></g><g class="xtick"><text text-anchor="start" x="0" y="162" transform="translate(303.75,0) rotate(90,0,159)" style="font-family: 'CMU Serif'; font-size: 6px; fill: rgb(0, 0, 0); fill-opacity: 1; white-space: pre; opacity: 1;">ENERGY</text></g><g class="xtick"><text text-anchor="start" x="0" y="162" transform="translate(314.96,0) rotate(90,0,159)" style="font-family: 'CMU Serif'; font-size: 6px; fill: rgb(0, 0, 0); fill-opacity: 1; white-space: pre; opacity: 1;">ETS</text></g><g class="xtick"><text text-anchor="start" x="0" y="162" transform="translate(326.18,0) rotate(90,0,159)" style="font-family: 'CMU Serif'; font-size: 6px; fill: rgb(0, 0, 0); fill-opacity: 1; white-space: pre; opacity: 1;">RE-INFR</text></g><g class="xtick"><text text-anchor="start" x="0" y="162" transform="translate(337.39,0) rotate(90,0,159)" style="font-family: 'CMU Serif'; font-size: 6px; fill: rgb(0, 0, 0); fill-opacity: 1; white-space: pre; opacity: 1;">TOTAL</text></g><g class="xtick"><text text-anchor="start" x="0" y="162" transform="translate(348.61,0) rotate(90,0,159)" style="font-family: 'CMU Serif'; font-size: 6px; fill: rgb(0, 0, 0); fill-opacity: 1; white-space: pre; opacity: 1;">CAPEX</text></g><g class="xtick"><text text-anchor="start" x="0" y="162" transform="translate(359.82,0) rotate(90,0,159)" style="font-family: 'CMU Serif'; font-size: 6px; fill: rgb(0, 0, 0); fill-opacity: 1; white-space: pre; opacity: 1;">FIXOM</text></g><g class="xtick"><text text-anchor="start" x="0" y="162" transform="translate(371.04,0) rotate(90,0,159)" style="font-family: 'CMU Serif'; font-size: 6px; fill: rgb(0, 0, 0); fill-opacity: 1; white-space: pre; opacity: 1;">VAROM</text></g><g class="xtick"><text text-anchor="start" x="0" y="162" transform="translate(382.25,0) rotate(90,0,159)" style="font-family: 'CMU Serif'; font-size: 6px; fill: rgb(0, 0, 0); fill-opacity: 1; white-space: pre; opacity: 1;">ENERGY</text></g><g class="xtick"><text text-anchor="start" x="0" y="162" transform="translate(393.46,0) rotate(90,0,159)" style="font-family: 'CMU Serif'; font-size: 6px; fill: rgb(0, 0, 0); fill-opacity: 1; white-space: pre; opacity: 1;">ETS</text></g><g class="xtick"><text text-anchor="start" x="0" y="162" transform="translate(404.68,0) rotate(90,0,159)" style="font-family: 'CMU Serif'; font-size: 6px; fill: rgb(0, 0, 0); fill-opacity: 1; white-space: pre; opacity: 1;">RE-INFR</text></g><g class="xtick"><text text-anchor="start" x="0" y="162" transform="translate(415.89,0) rotate(90,0,159)" style="font-family: 'CMU Serif'; font-size: 6px; fill: rgb(0, 0, 0); fill-opacity: 1; white-space: pre; opacity: 1;">TOTAL</text></g><g class="xtick"><text text-anchor="start" x="0" y="162" transform="translate(427.11,0) rotate(90,0,159)" style="font-family: 'CMU Serif'; font-size: 6px; fill: rgb(0, 0, 0); fill-opacity: 1; white-space: pre; opacity: 1;">CAPEX</text></g><g class="xtick"><text text-anchor="start" x="0" y="162" transform="translate(438.32,0) rotate(90,0,159)" style="font-family: 'CMU Serif'; font-size: 6px; fill: rgb(0, 0, 0); fill-opacity: 1; white-space: pre; opacity: 1;">FIXOM</text></g><g class="xtick"><text text-anchor="start" x="0" y="162" transform="translate(449.54,0) rotate(90,0,159)" style="font-family: 'CMU Serif'; font-size: 6px; fill: rgb(0, 0, 0); fill-opacity: 1; white-space: pre; opacity: 1;">VAROM</text></g><g class="xtick"><text text-anchor="start" x="0" y="162" transform="translate(460.75,0) rotate(90,0,159)" style="font-family: 'CMU Serif'; font-size: 6px; fill: rgb(0, 0, 0); fill-opacity: 1; white-space: pre; opacity: 1;">ENERGY</text></g><g class="xtick"><text text-anchor="start" x="0" y="162" transform="translate(471.96,0) rotate(90,0,159)" style="font-family: 'CMU Serif'; font-size: 6px; fill: rgb(0, 0, 0); fill-opacity: 1; white-space: pre; opacity: 1;">ETS</text></g><g class="xtick"><text text-anchor="start" x="0" y="162" transform="translate(483.18,0) rotate(90,0,159)" style="font-family: 'CMU Serif'; font-size: 6px; fill: rgb(0, 0, 0); fill-opacity: 1; white-space: pre; opacity: 1;">RE-INFR</text></g><g class="xtick"><text text-anchor="start" x="0" y="162" transform="translate(494.39,0) rotate(90,0,159)" style="font-family: 'CMU Serif'; font-size: 6px; fill: rgb(0, 0, 0); fill-opacity: 1; white-space: pre; opacity: 1;">TOTAL</text></g><g class="xtick2"><text text-anchor="middle" x="0" y="198.409375" transform="translate(68.25,0)" style="font-family: 'CMU Serif'; font-size: 6px; fill: rgb(0, 0, 0); fill-opacity: 1; white-space: pre; opacity: 1;">DIESEL</text></g><g class="xtick2"><text text-anchor="middle" x="0" y="198.409375" transform="translate(146.75,0)" style="font-family: 'CMU Serif'; font-size: 6px; fill: rgb(0, 0, 0); fill-opacity: 1; white-space: pre; opacity: 1;">HVO</text></g><g class="xtick2"><text text-anchor="middle" x="0" y="198.409375" transform="translate(225.25,0)" style="font-family: 'CMU Serif'; font-size: 6px; fill: rgb(0, 0, 0); fill-opacity: 1; white-space: pre; opacity: 1;">LNG</text></g><g class="xtick2"><text text-anchor="middle" x="0" y="198.409375" transform="translate(303.75,0)" style="font-family: 'CMU Serif'; font-size: 6px; fill: rgb(0, 0, 0); fill-opacity: 1; white-space: pre; opacity: 1;">BIO-LNG</text></g><g class="xtick2"><text text-anchor="middle" x="0" y="198.409375" transform="translate(382.25,0)" style="font-family: 'CMU Serif'; font-size: 6px; fill: rgb(0, 0, 0); fill-opacity: 1; white-space: pre; opacity: 1;">BEV</text></g><g class="xtick2"><text text-anchor="middle" x="0" y="198.409375" transform="translate(460.75,0)" style="font-family: 'CMU Serif'; font-size: 6px; fill: rgb(0, 0, 0); fill-opacity: 1; white-space: pre; opacity: 1;">FCEV</text></g></g><g class="yaxislayer-above"><g class="ytick"><text text-anchor="end" x="28" y="2.0999999999999996" transform="translate(0,155)" style="font-family: 'CMU Serif'; font-size: 6px; fill: rgb(0, 0, 0); fill-opacity: 1; white-space: pre; opacity: 1;">0.0</text></g><g class="ytick"><text text-anchor="end" x="28" y="2.0999999999999996" style="font-family: 'CMU Serif'; font-size: 6px; fill: rgb(0, 0, 0); fill-opacity: 1; white-space: pre; opacity: 1;" transform="translate(0,143.58)">0.1</text></g><g class="ytick"><text text-anchor="end" x="28" y="2.0999999999999996" style="font-family: 'CMU Serif'; font-size: 6px; fill: rgb(0, 0, 0); fill-opacity: 1; white-space: pre; opacity: 1;" transform="translate(0,132.16)">0.2</text></g><g class="ytick"><text text-anchor="end" x="28" y="2.0999999999999996" style="font-family: 'CMU Serif'; font-size: 6px; fill: rgb(0, 0, 0); fill-opacity: 1; white-space: pre; opacity: 1;" transform="translate(0,120.75)">0.3</text></g><g class="ytick"><text text-anchor="end" x="28" y="2.0999999999999996" style="font-family: 'CMU Serif'; font-size: 6px; fill: rgb(0, 0, 0); fill-opacity: 1; white-space: pre; opacity: 1;" transform="translate(0,109.33)">0.4</text></g><g class="ytick"><text text-anchor="end" x="28" y="2.0999999999999996" style="font-family: 'CMU Serif'; font-size: 6px; fill: rgb(0, 0, 0); fill-opacity: 1; white-space: pre; opacity: 1;" transform="translate(0,97.91)">0.5</text></g><g class="ytick"><text text-anchor="end" x="28" y="2.0999999999999996" style="font-family: 'CMU Serif'; font-size: 6px; fill: rgb(0, 0, 0); fill-opacity: 1; white-space: pre; opacity: 1;" transform="translate(0,86.49)">0.6</text></g><g class="ytick"><text text-anchor="end" x="28" y="2.0999999999999996" style="font-family: 'CMU Serif'; font-size: 6px; fill: rgb(0, 0, 0); fill-opacity: 1; white-space: pre; opacity: 1;" transform="translate(0,75.07)">0.7</text></g><g class="ytick"><text text-anchor="end" x="28" y="2.0999999999999996" style="font-family: 'CMU Serif'; font-size: 6px; fill: rgb(0, 0, 0); fill-opacity: 1; white-space: pre; opacity: 1;" transform="translate(0,63.66)">0.8</text></g><g class="ytick"><text text-anchor="end" x="28" y="2.0999999999999996" style="font-family: 'CMU Serif'; font-size: 6px; fill: rgb(0, 0, 0); fill-opacity: 1; white-space: pre; opacity: 1;" transform="translate(0,52.24)">0.9</text></g><g class="ytick"><text text-anchor="end" x="28" y="2.0999999999999996" style="font-family: 'CMU Serif'; font-size: 6px; fill: rgb(0, 0, 0); fill-opacity: 1; white-space: pre; opacity: 1;" transform="translate(0,40.82)">1.0</text></g><g class="ytick"><text text-anchor="end" x="28" y="2.0999999999999996" style="font-family: 'CMU Serif'; font-size: 6px; fill: rgb(0, 0, 0); fill-opacity: 1; white-space: pre; opacity: 1;" transform="translate(0,29.4)">1.1</text></g></g><g class="overaxes-above"/></g></g><g class="polarlayer"/><g class="smithlayer"/><g class="ternarylayer"/><g class="geolayer"/><g class="funnelarealayer"/><g class="pielayer"/><g class="iciclelayer"/><g class="treemaplayer"/><g class="sunburstlayer"/><g class="glimages"/><defs id="topdefs-0fb1a2"><g class="clips"/></defs><g class="layer-above"><g class="imagelayer"/><g class="shapelayer"><g class="shape-group" data-index="0" clip-path="url(#clip0fb1a2y)"><path data-index="0" fill-rule="evenodd" d="M29,53.48L500,53.48" style="opacity: 1; stroke: rgb(165, 42, 42); stroke-opacity: 1; fill: rgb(0, 0, 0); fill-opacity: 0; stroke-dasharray: 9px, 9px; stroke-width: 1px;"/></g></g></g><g class="infolayer"><g class="g-gtitle"/><g class="g-xtitle"/><g class="g-ytitle" transform="translate(3.6220703125,0)"><text class="ytitle" transform="rotate(-90,3.3781250000000007,77.5)" x="3.3781250000000007" y="77.5" text-anchor="middle" style="opacity: 1; font-family: 'CMU Serif'; font-size: 7px; fill: rgb(0, 0, 0); fill-opacity: 1; white-space: pre;">EUR/v.km</text></g></g></svg>