<svg class="main-svg" xmlns="http://www.w3.org/2000/svg" xmlns:xlink="http://www.w3.org/1999/xlink" width="500" height="200" style="" viewBox="0 0 500 200"><rect x="0" y="0" width="500" height="200" style="fill: rgb(0, 0, 0); fill-opacity: 0;"/><defs id="defs-71499b"><g class="clips"><clipPath id="clip71499bxyplot" class="plotclip"><rect width="471" height="155"/></clipPath><clipPath class="axesclip" id="clip71499bx"><rect x="29" y="0" width="471" height="200"/></clipPath><clipPath class="axesclip" id="clip71499by"><rect x="0" y="0" width="500" height="155"/></clipPath><clipPath class="axesclip" id="clip71499bxy"><rect x="29" y="0" width="471" height="155"/></clipPath></g><g class="gradients"/><g class="patterns"/></defs><g class="bglayer"><rect class="bg" x="29" y="0" width="471" height="155" style="fill: rgb(0, 0, 0); fill-opacity: 0; stroke-width: 0;"/></g><g class="layer-below"><g class="imagelayer"/><g class="shapelayer"/></g><g class="cartesianlayer"><g class="subplot xy"><g class="layer-subplot"><g class="shapelayer"/><g class="imagelayer"/></g><g class="minor-gridlayer"><g class="x"/><g class="y"/></g><g class="gridlayer"><g class="x"/><g class="y"><path class="ygrid crisp" transform="translate(0,143.17)" d="M29,0h471" style="stroke: rgb(255, 255, 255); stroke-opacity: 1; stroke-width: 1px;"/><path class="ygrid crisp" transform="translate(0,131.34)" d="M29,0h471" style="stroke: rgb(255, 255, 255); stroke-opacity: 1; stroke-width: 1px;"/><path class="ygrid crisp" transform="translate(0,119.51)" d="M29,0h471" style="stroke: rgb(255, 255, 255); stroke-opacity: 1; stroke-width: 1px;"/><path class="ygrid crisp" transform="translate(0,107.69)" d="M29,0h471" style="stroke: rgb(255, 255, 255); stroke-opacity: 1; stroke-width: 1px;"/><path class="ygrid crisp" transform="translate(0,95.86)" d="M29,0h471" style="stroke: rgb(255, 255, 255); stroke-opacity: 1; stroke-width: 1px;"/><path class="ygrid crisp" transform="translate(0,84.03)" d="M29,0h471" style="stroke: rgb(255, 255, 255); stroke-opacity: 1; stroke-width: 1px;"/><path class="ygrid crisp" transform="translate(0,72.2)" d="M29,0h471" style="stroke: rgb(255, 255, 255); stroke-opacity: 1; stroke-width: 1px;"/><path class="ygrid crisp" transform="translate(0,60.37)" d="M29,0h471" style="stroke: rgb(255, 255, 255); stroke-opacity: 1; stroke-width: 1px;"/><path class="ygrid crisp" transform="translate(0,48.54)" d="M29,0h471" style="stroke: rgb(255, 255, 255); stroke-opacity: 1; stroke-width: 1px;"/></g></g><g class="zerolinelayer"><path class="yzl zl crisp" transform="translate(0,155)" d="M29,0h471" style="stroke: rgb(255, 255, 255); stroke-opacity: 1; stroke-width: 2px;"/></g><g class="layer-between"><g class="shapelayer"/><g class="imagelayer"/></g><path class="xlines-below"/><path class="ylines-below"/><g class="overlines-below"/><g class="xaxislayer-below"/><g class="yaxislayer-below"/><g class="overaxes-below"/><g class="overplot"><g class="xy" transform="translate(29,0)" clip-path="url(#clip71499bxyplot)"><g class="barlayer mlayer"><g class="trace bars" shape-rendering="crispEdges" style="opacity: 1;"><g class="points"><g class="point"><path d="M1.12,155V155H10.09V155Z" style="vector-effect: none; opacity: 1; stroke-width: 0.5px; fill: rgb(0, 0, 0); fill-opacity: 0; stroke: rgb(0, 0, 0); stroke-opacity: 0;"/></g><g class="point"><path d="M12.34,155V142.39H21.31V155Z" style="vector-effect: none; opacity: 1; stroke-width: 0.5px; fill: rgb(0, 0, 0); fill-opacity: 0; stroke: rgb(0, 0, 0); stroke-opacity: 0;"/></g><g class="point"><path d="M23.55,155V138.19H32.52V155Z" style="vector-effect: none; opacity: 1; stroke-width: 0.5px; fill: rgb(0, 0, 0); fill-opacity: 0; stroke: rgb(0, 0, 0); stroke-opacity: 0;"/></g><g class="point"><path d="M34.76,155V101.93H43.74V155Z" style="vector-effect: none; opacity: 1; stroke-width: 0.5px; fill: rgb(0, 0, 0); fill-opacity: 0; stroke: rgb(0, 0, 0); stroke-opacity: 0;"/></g><g class="point"><path d="M45.98,155V68.84H54.95V155Z" style="vector-effect: none; opacity: 1; stroke-width: 0.5px; fill: rgb(0, 0, 0); fill-opacity: 0; stroke: rgb(0, 0, 0); stroke-opacity: 0;"/></g><g class="point"><path d="M57.19,155V64.78H66.16V155Z" style="vector-effect: none; opacity: 1; stroke-width: 0.5px; fill: rgb(0, 0, 0); fill-opacity: 0; stroke: rgb(0, 0, 0); stroke-opacity: 0;"/></g><g class="point"><path d="M68.41,155V155H77.38V155Z" style="vector-effect: none; opacity: 1; stroke-width: 0.5px; fill: rgb(0, 0, 0); fill-opacity: 0; stroke: rgb(0, 0, 0); stroke-opacity: 0;"/></g><g class="point"><path d="M79.62,155V155H88.59V155Z" style="vector-effect: none; opacity: 1; stroke-width: 0.5px; fill: rgb(0, 0, 0); fill-opacity: 0; stroke: rgb(0, 0, 0); stroke-opacity: 0;"/></g><g class="point"><path d="M90.84,155V142.39H99.81V155Z" style="vector-effect: none; opacity: 1; stroke-width: 0.5px; fill: rgb(0, 0, 0); fill-opacity: 0; stroke: rgb(0, 0, 0); stroke-opacity: 0;"/></g><g class="point"><path d="M102.05,155V138.19H111.02V155Z" style="vector-effect: none; opacity: 1; stroke-width: 0.5px; fill: rgb(0, 0, 0); fill-opacity: 0; stroke: rgb(0, 0, 0); stroke-opacity: 0;"/></g><g class="point"><path d="M113.26,155V101.93H122.24V155Z" style="vector-effect: none; opacity: 1; stroke-width: 0.5px; fill: rgb(0, 0, 0); fill-opacity: 0; stroke: rgb(0, 0, 0); stroke-opacity: 0;"/></g><g class="point"><path d="M124.48,155V70.14H133.45V155Z" style="vector-effect: none; opacity: 1; stroke-width: 0.5px; fill: rgb(0, 0, 0); fill-opacity: 0; stroke: rgb(0, 0, 0); stroke-opacity: 0;"/></g><g class="point"><path d="M135.69,155V70.14H144.66V155Z" style="vector-effect: none; opacity: 1; stroke-width: 0.5px; fill: rgb(0, 0, 0); fill-opacity: 0; stroke: rgb(0, 0, 0); stroke-opacity: 0;"/></g><g class="point"><path d="M146.91,155V155H155.88V155Z" style="vector-effect: none; opacity: 1; stroke-width: 0.5px; fill: rgb(0, 0, 0); fill-opacity: 0; stroke: rgb(0, 0, 0); stroke-opacity: 0;"/></g><g class="point"><path d="M158.12,155V155H167.09V155Z" style="vector-effect: none; opacity: 1; stroke-width: 0.5px; fill: rgb(0, 0, 0); fill-opacity: 0; stroke: rgb(0, 0, 0); stroke-opacity: 0;"/></g><g class="point"><path d="M169.34,155V141.13H178.31V155Z" style="vector-effect: none; opacity: 1; stroke-width: 0.5px; fill: rgb(0, 0, 0); fill-opacity: 0; stroke: rgb(0, 0, 0); stroke-opacity: 0;"/></g><g class="point"><path d="M180.55,155V136.5H189.52V155Z" style="vector-effect: none; opacity: 1; stroke-width: 0.5px; fill: rgb(0, 0, 0); fill-opacity: 0; stroke: rgb(0, 0, 0); stroke-opacity: 0;"/></g><g class="point"><path d="M191.76,155V99.22H200.74V155Z" style="vector-effect: none; opacity: 1; stroke-width: 0.5px; fill: rgb(0, 0, 0); fill-opacity: 0; stroke: rgb(0, 0, 0); stroke-opacity: 0;"/></g><g class="point"><path d="M202.98,155V61.91H211.95V155Z" style="vector-effect: none; opacity: 1; stroke-width: 0.5px; fill: rgb(0, 0, 0); fill-opacity: 0; stroke: rgb(0, 0, 0); stroke-opacity: 0;"/></g><g class="point"><path d="M214.19,155V59.01H223.16V155Z" style="vector-effect: none; opacity: 1; stroke-width: 0.5px; fill: rgb(0, 0, 0); fill-opacity: 0; stroke: rgb(0, 0, 0); stroke-opacity: 0;"/></g><g class="point"><path d="M225.41,155V155H234.38V155Z" style="vector-effect: none; opacity: 1; stroke-width: 0.5px; fill: rgb(0, 0, 0); fill-opacity: 0; stroke: rgb(0, 0, 0); stroke-opacity: 0;"/></g><g class="point"><path d="M236.62,155V155H245.59V155Z" style="vector-effect: none; opacity: 1; stroke-width: 0.5px; fill: rgb(0, 0, 0); fill-opacity: 0; stroke: rgb(0, 0, 0); stroke-opacity: 0;"/></g><g class="point"><path d="M247.84,155V141.13H256.81V155Z" style="vector-effect: none; opacity: 1; stroke-width: 0.5px; fill: rgb(0, 0, 0); fill-opacity: 0; stroke: rgb(0, 0, 0); stroke-opacity: 0;"/></g><g class="point"><path d="M259.05,155V136.5H268.02V155Z" style="vector-effect: none; opacity: 1; stroke-width: 0.5px; fill: rgb(0, 0, 0); fill-opacity: 0; stroke: rgb(0, 0, 0); stroke-opacity: 0;"/></g><g class="point"><path d="M270.26,155V99.22H279.24V155Z" style="vector-effect: none; opacity: 1; stroke-width: 0.5px; fill: rgb(0, 0, 0); fill-opacity: 0; stroke: rgb(0, 0, 0); stroke-opacity: 0;"/></g><g class="point"><path d="M281.48,155V50.11H290.45V155Z" style="vector-effect: none; opacity: 1; stroke-width: 0.5px; fill: rgb(0, 0, 0); fill-opacity: 0; stroke: rgb(0, 0, 0); stroke-opacity: 0;"/></g><g class="point"><path d="M292.69,155V50.11H301.66V155Z" style="vector-effect: none; opacity: 1; stroke-width: 0.5px; fill: rgb(0, 0, 0); fill-opacity: 0; stroke: rgb(0, 0, 0); stroke-opacity: 0;"/></g><g class="point"><path d="M303.91,155V155H312.88V155Z" style="vector-effect: none; opacity: 1; stroke-width: 0.5px; fill: rgb(0, 0, 0); fill-opacity: 0; stroke: rgb(0, 0, 0); stroke-opacity: 0;"/></g><g class="point"><path d="M315.12,155V155H324.09V155Z" style="vector-effect: none; opacity: 1; stroke-width: 0.5px; fill: rgb(0, 0, 0); fill-opacity: 0; stroke: rgb(0, 0, 0); stroke-opacity: 0;"/></g><g class="point"><path d="M326.34,155V131.86H335.31V155Z" style="vector-effect: none; opacity: 1; stroke-width: 0.5px; fill: rgb(0, 0, 0); fill-opacity: 0; stroke: rgb(0, 0, 0); stroke-opacity: 0;"/></g><g class="point"><path d="M337.55,155V127.27H346.52V155Z" style="vector-effect: none; opacity: 1; stroke-width: 0.5px; fill: rgb(0, 0, 0); fill-opacity: 0; stroke: rgb(0, 0, 0); stroke-opacity: 0;"/></g><g class="point"><path d="M348.76,155V96.84H357.74V155Z" style="vector-effect: none; opacity: 1; stroke-width: 0.5px; fill: rgb(0, 0, 0); fill-opacity: 0; stroke: rgb(0, 0, 0); stroke-opacity: 0;"/></g><g class="point"><path d="M359.98,155V86.96H368.95V155Z" style="vector-effect: none; opacity: 1; stroke-width: 0.5px; fill: rgb(0, 0, 0); fill-opacity: 0; stroke: rgb(0, 0, 0); stroke-opacity: 0;"/></g><g class="point"><path d="M371.19,155V86.96H380.16V155Z" style="vector-effect: none; opacity: 1; stroke-width: 0.5px; fill: rgb(0, 0, 0); fill-opacity: 0; stroke: rgb(0, 0, 0); stroke-opacity: 0;"/></g><g class="point"><path d="M382.41,155V155H391.38V155Z" style="vector-effect: none; opacity: 1; stroke-width: 0.5px; fill: rgb(0, 0, 0); fill-opacity: 0; stroke: rgb(0, 0, 0); stroke-opacity: 0;"/></g><g class="point"><path d="M393.62,155V155H402.59V155Z" style="vector-effect: none; opacity: 1; stroke-width: 0.5px; fill: rgb(0, 0, 0); fill-opacity: 0; stroke: rgb(0, 0, 0); stroke-opacity: 0;"/></g><g class="point"><path d="M404.84,155V137.19H413.81V155Z" style="vector-effect: none; opacity: 1; stroke-width: 0.5px; fill: rgb(0, 0, 0); fill-opacity: 0; stroke: rgb(0, 0, 0); stroke-opacity: 0;"/></g><g class="point"><path d="M416.05,155V131.84H425.02V155Z" style="vector-effect: none; opacity: 1; stroke-width: 0.5px; fill: rgb(0, 0, 0); fill-opacity: 0; stroke: rgb(0, 0, 0); stroke-opacity: 0;"/></g><g class="point"><path d="M427.26,155V100.81H436.24V155Z" style="vector-effect: none; opacity: 1; stroke-width: 0.5px; fill: rgb(0, 0, 0); fill-opacity: 0; stroke: rgb(0, 0, 0); stroke-opacity: 0;"/></g><g class="point"><path d="M438.48,155V69.85H447.45V155Z" style="vector-effect: none; opacity: 1; stroke-width: 0.5px; fill: rgb(0, 0, 0); fill-opacity: 0; stroke: rgb(0, 0, 0); stroke-opacity: 0;"/></g><g class="point"><path d="M449.69,155V69.85H458.66V155Z" style="vector-effect: none; opacity: 1; stroke-width: 0.5px; fill: rgb(0, 0, 0); fill-opacity: 0; stroke: rgb(0, 0, 0); stroke-opacity: 0;"/></g><g class="point"><path d="M460.91,155V155H469.88V155Z" style="vector-effect: none; opacity: 1; stroke-width: 0.5px; fill: rgb(0, 0, 0); fill-opacity: 0; stroke: rgb(0, 0, 0); stroke-opacity: 0;"/></g></g></g><g class="trace bars" shape-rendering="crispEdges" style="opacity: 1;"><g class="points"><g class="point"><path d="M1.12,155V142.39H10.09V155Z" style="vector-effect: none; opacity: 1; stroke-width: 0.5px; fill: rgb(76, 114, 176); fill-opacity: 0.6; stroke: rgb(0, 0, 0); stroke-opacity: 1;"/></g><g class="point"><path d="M12.34,142.39V138.19H21.31V142.39Z" style="vector-effect: none; opacity: 1; stroke-width: 0.5px; fill: rgb(72, 106, 161); fill-opacity: 0.6; stroke: rgb(0, 0, 0); stroke-opacity: 1;"/></g><g class="point"><path d="M23.55,138.19V101.93H32.52V138.19Z" style="vector-effect: none; opacity: 1; stroke-width: 0.5px; fill: rgb(67, 97, 147); fill-opacity: 0.6; stroke: rgb(0, 0, 0); stroke-opacity: 1;"/></g><g class="point"><path d="M34.76,101.93V68.84H43.74V101.93Z" style="vector-effect: none; opacity: 1; stroke-width: 0.5px; fill: rgb(63, 89, 131); fill-opacity: 0.6; stroke: rgb(0, 0, 0); stroke-opacity: 1;"/></g><g class="point"><path d="M45.98,68.84V64.78H54.95V68.84Z" style="vector-effect: none; opacity: 1; stroke-width: 0.5px; fill: rgb(58, 80, 117); fill-opacity: 0.6; stroke: rgb(0, 0, 0); stroke-opacity: 1;"/></g><g class="point"><path d="M57.19,64.78V64.78H66.16V64.78Z" style="vector-effect: none; opacity: 1; stroke-width: 0.5px; fill: rgb(54, 72, 101); fill-opacity: 0.6; stroke: rgb(0, 0, 0); stroke-opacity: 1;"/></g><g class="point"><path d="M68.41,155V64.78H77.38V155Z" style="vector-effect: none; opacity: 1; stroke-width: 0.5px; fill: rgb(49, 63, 86); fill-opacity: 0.6; stroke: rgb(0, 0, 0); stroke-opacity: 1;"/></g><g class="point"><path d="M79.62,155V142.39H88.59V155Z" style="vector-effect: none; opacity: 1; stroke-width: 0.5px; fill: rgb(100, 181, 205); fill-opacity: 0.6; stroke: rgb(0, 0, 0); stroke-opacity: 1;"/></g><g class="point"><path d="M90.84,142.39V138.19H99.81V142.39Z" style="vector-effect: none; opacity: 1; stroke-width: 0.5px; fill: rgb(93, 165, 187); fill-opacity: 0.6; stroke: rgb(0, 0, 0); stroke-opacity: 1;"/></g><g class="point"><path d="M102.05,138.19V101.93H111.02V138.19Z" style="vector-effect: none; opacity: 1; stroke-width: 0.5px; fill: rgb(86, 150, 169); fill-opacity: 0.6; stroke: rgb(0, 0, 0); stroke-opacity: 1;"/></g><g class="point"><path d="M113.26,101.93V70.14H122.24V101.93Z" style="vector-effect: none; opacity: 1; stroke-width: 0.5px; fill: rgb(79, 133, 150); fill-opacity: 0.6; stroke: rgb(0, 0, 0); stroke-opacity: 1;"/></g><g class="point"><path d="M124.48,70.14V70.14H133.45V70.14Z" style="vector-effect: none; opacity: 1; stroke-width: 0.5px; fill: rgb(71, 118, 132); fill-opacity: 0.6; stroke: rgb(0, 0, 0); stroke-opacity: 1;"/></g><g class="point"><path d="M135.69,70.14V70.14H144.66V70.14Z" style="vector-effect: none; opacity: 1; stroke-width: 0.5px; fill: rgb(64, 101, 113); fill-opacity: 0.6; stroke: rgb(0, 0, 0); stroke-opacity: 1;"/></g><g class="point"><path d="M146.91,155V70.14H155.88V155Z" style="vector-effect: none; opacity: 1; stroke-width: 0.5px; fill: rgb(57, 86, 94); fill-opacity: 0.6; stroke: rgb(0, 0, 0); stroke-opacity: 1;"/></g><g class="point"><path d="M158.12,155V141.13H167.09V155Z" style="vector-effect: none; opacity: 1; stroke-width: 0.5px; fill: rgb(196, 78, 82); fill-opacity: 0.6; stroke: rgb(0, 0, 0); stroke-opacity: 1;"/></g><g class="point"><path d="M169.34,141.13V136.5H178.31V141.13Z" style="vector-effect: none; opacity: 1; stroke-width: 0.5px; fill: rgb(179, 73, 77); fill-opacity: 0.6; stroke: rgb(0, 0, 0); stroke-opacity: 1;"/></g><g class="point"><path d="M180.55,136.5V99.22H189.52V136.5Z" style="vector-effect: none; opacity: 1; stroke-width: 0.5px; fill: rgb(163, 69, 72); fill-opacity: 0.6; stroke: rgb(0, 0, 0); stroke-opacity: 1;"/></g><g class="point"><path d="M191.76,99.22V61.91H200.74V99.22Z" style="vector-effect: none; opacity: 1; stroke-width: 0.5px; fill: rgb(145, 64, 67); fill-opacity: 0.6; stroke: rgb(0, 0, 0); stroke-opacity: 1;"/></g><g class="point"><path d="M202.98,61.91V59.01H211.95V61.91Z" style="vector-effect: none; opacity: 1; stroke-width: 0.5px; fill: rgb(129, 59, 62); fill-opacity: 0.6; stroke: rgb(0, 0, 0); stroke-opacity: 1;"/></g><g class="point"><path d="M214.19,59.01V59.01H223.16V59.01Z" style="vector-effect: none; opacity: 1; stroke-width: 0.5px; fill: rgb(111, 54, 56); fill-opacity: 0.6; stroke: rgb(0, 0, 0); stroke-opacity: 1;"/></g><g class="point"><path d="M225.41,155V59.01H234.38V155Z" style="vector-effect: none; opacity: 1; stroke-width: 0.5px; fill: rgb(95, 50, 51); fill-opacity: 0.6; stroke: rgb(0, 0, 0); stroke-opacity: 1;"/></g><g class="point"><path d="M236.62,155V141.13H245.59V155Z" style="vector-effect: none; opacity: 1; stroke-width: 0.5px; fill: rgb(221, 132, 82); fill-opacity: 0.6; stroke: rgb(0, 0, 0); stroke-opacity: 1;"/></g><g class="point"><path d="M247.84,141.13V136.5H256.81V141.13Z" style="vector-effect: none; opacity: 1; stroke-width: 0.5px; fill: rgb(201, 122, 77); fill-opacity: 0.6; stroke: rgb(0, 0, 0); stroke-opacity: 1;"/></g><g class="point"><path d="M259.05,136.5V99.22H268.02V136.5Z" style="vector-effect: none; opacity: 1; stroke-width: 0.5px; fill: rgb(182, 111, 72); fill-opacity: 0.6; stroke: rgb(0, 0, 0); stroke-opacity: 1;"/></g><g class="point"><path d="M270.26,99.22V50.11H279.24V99.22Z" style="vector-effect: none; opacity: 1; stroke-width: 0.5px; fill: rgb(161, 100, 66); fill-opacity: 0.6; stroke: rgb(0, 0, 0); stroke-opacity: 1;"/></g><g class="point"><path d="M281.48,50.11V50.11H290.45V50.11Z" style="vector-effect: none; opacity: 1; stroke-width: 0.5px; fill: rgb(142, 90, 61); fill-opacity: 0.6; stroke: rgb(0, 0, 0); stroke-opacity: 1;"/></g><g class="point"><path d="M292.69,50.11V50.11H301.66V50.11Z" style="vector-effect: none; opacity: 1; stroke-width: 0.5px; fill: rgb(121, 79, 56); fill-opacity: 0.6; stroke: rgb(0, 0, 0); stroke-opacity: 1;"/></g><g class="point"><path d="M303.91,155V50.11H312.88V155Z" style="vector-effect: none; opacity: 1; stroke-width: 0.5px; fill: rgb(102, 68, 51); fill-opacity: 0.6; stroke: rgb(0, 0, 0); stroke-opacity: 1;"/></g><g class="point"><path d="M315.12,155V131.86H324.09V155Z" style="vector-effect: none; opacity: 1; stroke-width: 0.5px; fill: rgb(85, 168, 104); fill-opacity: 0.6; stroke: rgb(0, 0, 0); stroke-opacity: 1;"/></g><g class="point"><path d="M326.34,131.86V127.27H335.31V131.86Z" style="vector-effect: none; opacity: 1; stroke-width: 0.5px; fill: rgb(80, 154, 96); fill-opacity: 0.6; stroke: rgb(0, 0, 0); stroke-opacity: 1;"/></g><g class="point"><path d="M337.55,127.27V96.84H346.52V127.27Z" style="vector-effect: none; opacity: 1; stroke-width: 0.5px; fill: rgb(74, 140, 89); fill-opacity: 0.6; stroke: rgb(0, 0, 0); stroke-opacity: 1;"/></g><g class="point"><path d="M348.76,96.84V86.96H357.74V96.84Z" style="vector-effect: none; opacity: 1; stroke-width: 0.5px; fill: rgb(68, 125, 81); fill-opacity: 0.6; stroke: rgb(0, 0, 0); stroke-opacity: 1;"/></g><g class="point"><path d="M359.98,86.96V86.96H368.95V86.96Z" style="vector-effect: none; opacity: 1; stroke-width: 0.5px; fill: rgb(63, 111, 74); fill-opacity: 0.6; stroke: rgb(0, 0, 0); stroke-opacity: 1;"/></g><g class="point"><path d="M371.19,86.96V78.94H380.16V86.96Z" style="vector-effect: none; opacity: 1; stroke-width: 0.5px; fill: rgb(57, 96, 66); fill-opacity: 0.6; stroke: rgb(0, 0, 0); stroke-opacity: 1;"/></g><g class="point"><path d="M382.41,155V78.94H391.38V155Z" style="vector-effect: none; opacity: 1; stroke-width: 0.5px; fill: rgb(52, 82, 58); fill-opacity: 0.6; stroke: rgb(0, 0, 0); stroke-opacity: 1;"/></g><g class="point"><path d="M393.62,155V137.19H402.59V155Z" style="vector-effect: none; opacity: 1; stroke-width: 0.5px; fill: rgb(204, 185, 116); fill-opacity: 0.6; stroke: rgb(0, 0, 0); stroke-opacity: 1;"/></g><g class="point"><path d="M404.84,137.19V131.84H413.81V137.19Z" style="vector-effect: none; opacity: 1; stroke-width: 0.5px; fill: rgb(186, 169, 107); fill-opacity: 0.6; stroke: rgb(0, 0, 0); stroke-opacity: 1;"/></g><g class="point"><path d="M416.05,131.84V100.81H425.02V131.84Z" style="vector-effect: none; opacity: 1; stroke-width: 0.5px; fill: rgb(168, 153, 98); fill-opacity: 0.6; stroke: rgb(0, 0, 0); stroke-opacity: 1;"/></g><g class="point"><path d="M427.26,100.81V69.85H436.24V100.81Z" style="vector-effect: none; opacity: 1; stroke-width: 0.5px; fill: rgb(149, 136, 89); fill-opacity: 0.6; stroke: rgb(0, 0, 0); stroke-opacity: 1;"/></g><g class="point"><path d="M438.48,69.85V69.85H447.45V69.85Z" style="vector-effect: none; opacity: 1; stroke-width: 0.5px; fill: rgb(131, 120, 80); fill-opacity: 0.6; stroke: rgb(0, 0, 0); stroke-opacity: 1;"/></g><g class="point"><path d="M449.69,69.85V52.67H458.66V69.85Z" style="vector-effect: none; opacity: 1; stroke-width: 0.5px; fill: rgb(112, 103, 71); fill-opacity: 0.6; stroke: rgb(0, 0, 0); stroke-opacity: 1;"/></g><g class="point"><path d="M460.91,155V52.67H469.88V155Z" style="vector-effect: none; opacity: 1; stroke-width: 0.5px; fill: rgb(94, 87, 62); fill-opacity: 0.6; stroke: rgb(0, 0, 0); stroke-opacity: 1;"/></g></g><g class="errorbar" style="opacity: 1;"><path class="yerror" d="M1.6100000000000003,142.39h8m-4,0V142.39m-4,0h8" style="vector-effect: none; stroke-width: 2px; stroke: rgb(42, 63, 95); stroke-opacity: 1;"/></g><g class="errorbar" style="opacity: 1;"><path class="yerror" d="M12.82,138.19h8m-4,0V138.19m-4,0h8" style="vector-effect: none; stroke-width: 2px; stroke: rgb(42, 63, 95); stroke-opacity: 1;"/></g><g class="errorbar" style="opacity: 1;"><path class="yerror" d="M24.04,101.93h8m-4,0V101.93m-4,0h8" style="vector-effect: none; stroke-width: 2px; stroke: rgb(42, 63, 95); stroke-opacity: 1;"/></g><g class="errorbar" style="opacity: 1;"><path class="yerror" d="M35.25,67.22h8m-4,0V75.16m-4,0h8" style="vector-effect: none; stroke-width: 2px; stroke: rgb(42, 63, 95); stroke-opacity: 1;"/></g><g class="errorbar" style="opacity: 1;"><path class="yerror" d="M46.46,60.72h8m-4,0V68.84m-4,0h8" style="vector-effect: none; stroke-width: 2px; stroke: rgb(42, 63, 95); stroke-opacity: 1;"/></g><g class="errorbar" style="opacity: 1;"><path class="yerror" d="M57.68,64.78h8m-4,0V64.78m-4,0h8" style="vector-effect: none; stroke-width: 2px; stroke: rgb(42, 63, 95); stroke-opacity: 1;"/></g><g class="errorbar" style="opacity: 1;"><path class="yerror" d="M68.89,59.1h8m-4,0V75.16m-4,0h8" style="vector-effect: none; stroke-width: 2px; stroke: rgb(42, 63, 95); stroke-opacity: 1;"/></g><g class="errorbar" style="opacity: 1;"><path class="yerror" d="M80.11,142.39h8m-4,0V142.39m-4,0h8" style="vector-effect: none; stroke-width: 2px; stroke: rgb(42, 63, 95); stroke-opacity: 1;"/></g><g class="errorbar" style="opacity: 1;"><path class="yerror" d="M91.32,138.19h8m-4,0V138.19m-4,0h8" style="vector-effect: none; stroke-width: 2px; stroke: rgb(42, 63, 95); stroke-opacity: 1;"/></g><g class="errorbar" style="opacity: 1;"><path class="yerror" d="M102.54,101.93h8m-4,0V101.93m-4,0h8" style="vector-effect: none; stroke-width: 2px; stroke: rgb(42, 63, 95); stroke-opacity: 1;"/></g><g class="errorbar" style="opacity: 1;"><path class="yerror" d="M113.75,65.72h8m-4,0V79.32m-4,0h8" style="vector-effect: none; stroke-width: 2px; stroke: rgb(42, 63, 95); stroke-opacity: 1;"/></g><g class="errorbar" style="opacity: 1;"><path class="yerror" d="M124.96000000000001,70.14h8m-4,0V70.14m-4,0h8" style="vector-effect: none; stroke-width: 2px; stroke: rgb(42, 63, 95); stroke-opacity: 1;"/></g><g class="errorbar" style="opacity: 1;"><path class="yerror" d="M136.18,70.14h8m-4,0V70.14m-4,0h8" style="vector-effect: none; stroke-width: 2px; stroke: rgb(42, 63, 95); stroke-opacity: 1;"/></g><g class="errorbar" style="opacity: 1;"><path class="yerror" d="M147.39,65.72h8m-4,0V79.32m-4,0h8" style="vector-effect: none; stroke-width: 2px; stroke: rgb(42, 63, 95); stroke-opacity: 1;"/></g><g class="errorbar" style="opacity: 1;"><path class="yerror" d="M158.61,141.13h8m-4,0V141.13m-4,0h8" style="vector-effect: none; stroke-width: 2px; stroke: rgb(42, 63, 95); stroke-opacity: 1;"/></g><g class="errorbar" style="opacity: 1;"><path class="yerror" d="M169.82,136.5h8m-4,0V136.5m-4,0h8" style="vector-effect: none; stroke-width: 2px; stroke: rgb(42, 63, 95); stroke-opacity: 1;"/></g><g class="errorbar" style="opacity: 1;"><path class="yerror" d="M181.04,99.22h8m-4,0V99.22m-4,0h8" style="vector-effect: none; stroke-width: 2px; stroke: rgb(42, 63, 95); stroke-opacity: 1;"/></g><g class="errorbar" style="opacity: 1;"><path class="yerror" d="M192.25,61.01h8m-4,0V63.86m-4,0h8" style="vector-effect: none; stroke-width: 2px; stroke: rgb(42, 63, 95); stroke-opacity: 1;"/></g><g class="errorbar" style="opacity: 1;"><path class="yerror" d="M203.46,56.11h8m-4,0V61.91m-4,0h8" style="vector-effect: none; stroke-width: 2px; stroke: rgb(42, 63, 95); stroke-opacity: 1;"/></g><g class="errorbar" style="opacity: 1;"><path class="yerror" d="M214.68,59.01h8m-4,0V59.01m-4,0h8" style="vector-effect: none; stroke-width: 2px; stroke: rgb(42, 63, 95); stroke-opacity: 1;"/></g><g class="errorbar" style="opacity: 1;"><path class="yerror" d="M225.89,55.2h8m-4,0V63.86m-4,0h8" style="vector-effect: none; stroke-width: 2px; stroke: rgb(42, 63, 95); stroke-opacity: 1;"/></g><g class="errorbar" style="opacity: 1;"><path class="yerror" d="M237.11,141.13h8m-4,0V141.13m-4,0h8" style="vector-effect: none; stroke-width: 2px; stroke: rgb(42, 63, 95); stroke-opacity: 1;"/></g><g class="errorbar" style="opacity: 1;"><path class="yerror" d="M248.32,136.5h8m-4,0V136.5m-4,0h8" style="vector-effect: none; stroke-width: 2px; stroke: rgb(42, 63, 95); stroke-opacity: 1;"/></g><g class="errorbar" style="opacity: 1;"><path class="yerror" d="M259.54,99.22h8m-4,0V99.22m-4,0h8" style="vector-effect: none; stroke-width: 2px; stroke: rgb(42, 63, 95); stroke-opacity: 1;"/></g><g class="errorbar" style="opacity: 1;"><path class="yerror" d="M270.75,38.94h8m-4,0V68.74m-4,0h8" style="vector-effect: none; stroke-width: 2px; stroke: rgb(42, 63, 95); stroke-opacity: 1;"/></g><g class="errorbar" style="opacity: 1;"><path class="yerror" d="M281.96,50.11h8m-4,0V50.11m-4,0h8" style="vector-effect: none; stroke-width: 2px; stroke: rgb(42, 63, 95); stroke-opacity: 1;"/></g><g class="errorbar" style="opacity: 1;"><path class="yerror" d="M293.18,50.11h8m-4,0V50.11m-4,0h8" style="vector-effect: none; stroke-width: 2px; stroke: rgb(42, 63, 95); stroke-opacity: 1;"/></g><g class="errorbar" style="opacity: 1;"><path class="yerror" d="M304.39,38.94h8m-4,0V68.74m-4,0h8" style="vector-effect: none; stroke-width: 2px; stroke: rgb(42, 63, 95); stroke-opacity: 1;"/></g><g class="errorbar" style="opacity: 1;"><path class="yerror" d="M315.61,131.42h8m-4,0V137.91m-4,0h8" style="vector-effect: none; stroke-width: 2px; stroke: rgb(42, 63, 95); stroke-opacity: 1;"/></g><g class="errorbar" style="opacity: 1;"><path class="yerror" d="M326.82,127.2h8m-4,0V128.28m-4,0h8" style="vector-effect: none; stroke-width: 2px; stroke: rgb(42, 63, 95); stroke-opacity: 1;"/></g><g class="errorbar" style="opacity: 1;"><path class="yerror" d="M338.04,96.84h8m-4,0V96.84m-4,0h8" style="vector-effect: none; stroke-width: 2px; stroke: rgb(42, 63, 95); stroke-opacity: 1;"/></g><g class="errorbar" style="opacity: 1;"><path class="yerror" d="M349.25,85.17h8m-4,0V87.86m-4,0h8" style="vector-effect: none; stroke-width: 2px; stroke: rgb(42, 63, 95); stroke-opacity: 1;"/></g><g class="errorbar" style="opacity: 1;"><path class="yerror" d="M360.46,86.96h8m-4,0V86.96m-4,0h8" style="vector-effect: none; stroke-width: 2px; stroke: rgb(42, 63, 95); stroke-opacity: 1;"/></g><g class="errorbar" style="opacity: 1;"><path class="yerror" d="M371.68,77.98h8m-4,0V82.74m-4,0h8" style="vector-effect: none; stroke-width: 2px; stroke: rgb(42, 63, 95); stroke-opacity: 1;"/></g><g class="errorbar" style="opacity: 1;"><path class="yerror" d="M382.89,75.68h8m-4,0V90.7m-4,0h8" style="vector-effect: none; stroke-width: 2px; stroke: rgb(42, 63, 95); stroke-opacity: 1;"/></g><g class="errorbar" style="opacity: 1;"><path class="yerror" d="M394.11,137.19h8m-4,0V138.82m-4,0h8" style="vector-effect: none; stroke-width: 2px; stroke: rgb(42, 63, 95); stroke-opacity: 1;"/></g><g class="errorbar" style="opacity: 1;"><path class="yerror" d="M405.32,131.84h8m-4,0V132.39m-4,0h8" style="vector-effect: none; stroke-width: 2px; stroke: rgb(42, 63, 95); stroke-opacity: 1;"/></g><g class="errorbar" style="opacity: 1;"><path class="yerror" d="M416.54,100.81h8m-4,0V100.81m-4,0h8" style="vector-effect: none; stroke-width: 2px; stroke: rgb(42, 63, 95); stroke-opacity: 1;"/></g><g class="errorbar" style="opacity: 1;"><path class="yerror" d="M427.75,54.15h8m-4,0V78.13m-4,0h8" style="vector-effect: none; stroke-width: 2px; stroke: rgb(42, 63, 95); stroke-opacity: 1;"/></g><g class="errorbar" style="opacity: 1;"><path class="yerror" d="M438.96,69.85h8m-4,0V69.85m-4,0h8" style="vector-effect: none; stroke-width: 2px; stroke: rgb(42, 63, 95); stroke-opacity: 1;"/></g><g class="errorbar" style="opacity: 1;"><path class="yerror" d="M450.18,23.46h8m-4,0V54.2m-4,0h8" style="vector-effect: none; stroke-width: 2px; stroke: rgb(42, 63, 95); stroke-opacity: 1;"/></g><g class="errorbar" style="opacity: 1;"><path class="yerror" d="M461.39,7.75h8m-4,0V64.67m-4,0h8" style="vector-effect: none; stroke-width: 2px; stroke: rgb(42, 63, 95); stroke-opacity: 1;"/></g></g></g></g></g><path class="xlines-above crisp" d="M0,0" style="fill: none;"/><path class="ylines-above crisp" d="M0,0" style="fill: none;"/><g class="overlines-above"/><g class="xaxislayer-above"><path class="xdivider crisp" transform="translate(500,0)" d="M0,156v44.921875" style="stroke: rgb(68, 68, 68); stroke-opacity: 1; stroke-width: 1px;"/><path class="xdivider crisp" transform="translate(421.5,0)" d="M0,156v44.921875" style="stroke: rgb(68, 68, 68); stroke-opacity: 1; stroke-width: 1px;"/><path class="xdivider crisp" transform="translate(343,0)" d="M0,156v44.921875" style="stroke: rgb(68, 68, 68); stroke-opacity: 1; stroke-width: 1px;"/><path class="xdivider crisp" transform="translate(264.5,0)" d="M0,156v44.921875" style="stroke: rgb(68, 68, 68); stroke-opacity: 1; stroke-width: 1px;"/><path class="xdivider crisp" transform="translate(186,0)" d="M0,156v44.921875" style="stroke: rgb(68, 68, 68); stroke-opacity: 1; stroke-width: 1px;"/><path class="xdivider crisp" transform="translate(107.5,0)" d="M0,156v44.921875" style="stroke: rgb(68, 68, 68); stroke-opacity: 1; stroke-width: 1px;"/><path class="xdivider crisp" transform="translate(29,0)" d="M0,156v44.921875" style="stroke: rgb(68, 68, 68); stroke-opacity: 1; stroke-width: 1px;"/><g class="xtick"><text text-anchor="start" x="0" y="162" transform="translate(34.61,0) rotate(90,0,159)" style="font-family: 'CMU Serif'; font-size: 6px; fill: rgb(0, 0, 0); fill-opacity: 1; white-space: pre; opacity: 1;">CAPEX</text></g><g class="xtick"><text text-anchor="start" x="0" y="162" transform="translate(45.82,0) rotate(90,0,159)" style="font-family: 'CMU Serif'; font-size: 6px; fill: rgb(0, 0, 0); fill-opacity: 1; white-space: pre; opacity: 1;">FIXOM</text></g><g class="xtick"><text text-anchor="start" x="0" y="162" transform="translate(57.04,0) rotate(90,0,159)" style="font-family: 'CMU Serif'; font-size: 6px; fill: rgb(0, 0, 0); fill-opacity: 1; white-space: pre; opacity: 1;">VAROM</text></g><g class="xtick"><text text-anchor="start" x="0" y="162" transform="translate(68.25,0) rotate(90,0,159)" style="font-family: 'CMU Serif'; font-size: 6px; fill: rgb(0, 0, 0); fill-opacity: 1; white-space: pre; opacity: 1;">ENERGY</text></g><g class="xtick"><text text-anchor="start" x="0" y="162" transform="translate(79.46000000000001,0) rotate(90,0,159)" style="font-family: 'CMU Serif'; font-size: 6px; fill: rgb(0, 0, 0); fill-opacity: 1; white-space: pre; opacity: 1;">ETS</text></g><g class="xtick"><text text-anchor="start" x="0" y="162" transform="translate(90.68,0) rotate(90,0,159)" style="font-family: 'CMU Serif'; font-size: 6px; fill: rgb(0, 0, 0); fill-opacity: 1; white-space: pre; opacity: 1;">RE-INFR</text></g><g class="xtick"><text text-anchor="start" x="0" y="162" transform="translate(101.89,0) rotate(90,0,159)" style="font-family: 'CMU Serif'; font-size: 6px; fill: rgb(0, 0, 0); fill-opacity: 1; white-space: pre; opacity: 1;">TOTAL</text></g><g class="xtick"><text text-anchor="start" x="0" y="162" transform="translate(113.11,0) rotate(90,0,159)" style="font-family: 'CMU Serif'; font-size: 6px; fill: rgb(0, 0, 0); fill-opacity: 1; white-space: pre; opacity: 1;">CAPEX</text></g><g class="xtick"><text text-anchor="start" x="0" y="162" transform="translate(124.32,0) rotate(90,0,159)" style="font-family: 'CMU Serif'; font-size: 6px; fill: rgb(0, 0, 0); fill-opacity: 1; white-space: pre; opacity: 1;">FIXOM</text></g><g class="xtick"><text text-anchor="start" x="0" y="162" transform="translate(135.54000000000002,0) rotate(90,0,159)" style="font-family: 'CMU Serif'; font-size: 6px; fill: rgb(0, 0, 0); fill-opacity: 1; white-space: pre; opacity: 1;">VAROM</text></g><g class="xtick"><text text-anchor="start" x="0" y="162" transform="translate(146.75,0) rotate(90,0,159)" style="font-family: 'CMU Serif'; font-size: 6px; fill: rgb(0, 0, 0); fill-opacity: 1; white-space: pre; opacity: 1;">ENERGY</text></g><g class="xtick"><text text-anchor="start" x="0" y="162" transform="translate(157.96,0) rotate(90,0,159)" style="font-family: 'CMU Serif'; font-size: 6px; fill: rgb(0, 0, 0); fill-opacity: 1; white-space: pre; opacity: 1;">ETS</text></g><g class="xtick"><text text-anchor="start" x="0" y="162" transform="translate(169.18,0) rotate(90,0,159)" style="font-family: 'CMU Serif'; font-size: 6px; fill: rgb(0, 0, 0); fill-opacity: 1; white-space: pre; opacity: 1;">RE-INFR</text></g><g class="xtick"><text text-anchor="start" x="0" y="162" transform="translate(180.39,0) rotate(90,0,159)" style="font-family: 'CMU Serif'; font-size: 6px; fill: rgb(0, 0, 0); fill-opacity: 1; white-space: pre; opacity: 1;">TOTAL</text></g><g class="xtick"><text text-anchor="start" x="0" y="162" transform="translate(191.61,0) rotate(90,0,159)" style="font-family: 'CMU Serif'; font-size: 6px; fill: rgb(0, 0, 0); fill-opacity: 1; white-space: pre; opacity: 1;">CAPEX</text></g><g class="xtick"><text text-anchor="start" x="0" y="162" transform="translate(202.82,0) rotate(90,0,159)" style="font-family: 'CMU Serif'; font-size: 6px; fill: rgb(0, 0, 0); fill-opacity: 1; white-space: pre; opacity: 1;">FIXOM</text></g><g class="xtick"><text text-anchor="start" x="0" y="162" transform="translate(214.04,0) rotate(90,0,159)" style="font-family: 'CMU Serif'; font-size: 6px; fill: rgb(0, 0, 0); fill-opacity: 1; white-space: pre; opacity: 1;">VAROM</text></g><g class="xtick"><text text-anchor="start" x="0" y="162" transform="translate(225.25,0) rotate(90,0,159)" style="font-family: 'CMU Serif'; font-size: 6px; fill: rgb(0, 0, 0); fill-opacity: 1; white-space: pre; opacity: 1;">ENERGY</text></g><g class="xtick"><text text-anchor="start" x="0" y="162" transform="translate(236.46,0) rotate(90,0,159)" style="font-family: 'CMU Serif'; font-size: 6px; fill: rgb(0, 0, 0); fill-opacity: 1; white-space: pre; opacity: 1;">ETS</text></g><g class="xtick"><text text-anchor="start" x="0" y="162" transform="translate(247.68,0) rotate(90,0,159)" style="font-family: 'CMU Serif'; font-size: 6px; fill: rgb(0, 0, 0); fill-opacity: 1; white-space: pre; opacity: 1;">RE-INFR</text></g><g class="xtick"><text text-anchor="start" x="0" y="162" transform="translate(258.89,0) rotate(90,0,159)" style="font-family: 'CMU Serif'; font-size: 6px; fill: rgb(0, 0, 0); fill-opacity: 1; white-space: pre; opacity: 1;">TOTAL</text></g><g class="xtick"><text text-anchor="start" x="0" y="162" transform="translate(270.11,0) rotate(90,0,159)" style="font-family: 'CMU Serif'; font-size: 6px; fill: rgb(0, 0, 0); fill-opacity: 1; white-space: pre; opacity: 1;">CAPEX</text></g><g class="xtick"><text text-anchor="start" x="0" y="162" transform="translate(281.32,0) rotate(90,0,159)" style="font-family: 'CMU Serif'; font-size: 6px; fill: rgb(0, 0, 0); fill-opacity: 1; white-space: pre; opacity: 1;">FIXOM</text></g><g class="xtick"><text text-anchor="start" x="0" y="162" transform="translate(292.54,0) rotate(90,0,159)" style="font-family: 'CMU Serif'; font-size: 6px; fill: rgb(0, 0, 0); fill-opacity: 1; white-space: pre; opacity: 1;">VAROM</text></g><g class="xtick"><text text-anchor="start" x="0" y="162" transform="translate(303.75,0) rotate(90,0,159)" style="font-family: 'CMU Serif'; font-size: 6px; fill: rgb(0, 0, 0); fill-opacity: 1; white-space: pre; opacity: 1;">ENERGY</text></g><g class="xtick"><text text-anchor="start" x="0" y="162" transform="translate(314.96,0) rotate(90,0,159)" style="font-family: 'CMU Serif'; font-size: 6px; fill: rgb(0, 0, 0); fill-opacity: 1; white-space: pre; opacity: 1;">ETS</text></g><g class="xtick"><text text-anchor="start" x="0" y="162" transform="translate(326.18,0) rotate(90,0,159)" style="font-family: 'CMU Serif'; font-size: 6px; fill: rgb(0, 0, 0); fill-opacity: 1; white-space: pre; opacity: 1;">RE-INFR</text></g><g class="xtick"><text text-anchor="start" x="0" y="162" transform="translate(337.39,0) rotate(90,0,159)" style="font-family: 'CMU Serif'; font-size: 6px; fill: rgb(0, 0, 0); fill-opacity: 1; white-space: pre; opacity: 1;">TOTAL</text></g><g class="xtick"><text text-anchor="start" x="0" y="162" transform="translate(348.61,0) rotate(90,0,159)" style="font-family: 'CMU Serif'; font-size: 6px; fill: rgb(0, 0, 0); fill-opacity: 1; white-space: pre; opacity: 1;">CAPEX</text></g><g class="xtick"><text text-anchor="start" x="0" y="162" transform="translate(359.82,0) rotate(90,0,159)" style="font-family: 'CMU Serif'; font-size: 6px; fill: rgb(0, 0, 0); fill-opacity: 1; white-space: pre; opacity: 1;">FIXOM</text></g><g class="xtick"><text text-anchor="start" x="0" y="162" transform="translate(371.04,0) rotate(90,0,159)" style="font-family: 'CMU Serif'; font-size: 6px; fill: rgb(0, 0, 0); fill-opacity: 1; white-space: pre; opacity: 1;">VAROM</text></g><g class="xtick"><text text-anchor="start" x="0" y="162" transform="translate(382.25,0) rotate(90,0,159)" style="font-family: 'CMU Serif'; font-size: 6px; fill: rgb(0, 0, 0); fill-opacity: 1; white-space: pre; opacity: 1;">ENERGY</text></g><g class="xtick"><text text-anchor="start" x="0" y="162" transform="translate(393.46,0) rotate(90,0,159)" style="font-family: 'CMU Serif'; font-size: 6px; fill: rgb(0, 0, 0); fill-opacity: 1; white-space: pre; opacity: 1;">ETS</text></g><g class="xtick"><text text-anchor="start" x="0" y="162" transform="translate(404.68,0) rotate(90,0,159)" style="font-family: 'CMU Serif'; font-size: 6px; fill: rgb(0, 0, 0); fill-opacity: 1; white-space: pre; opacity: 1;">RE-INFR</text></g><g class="xtick"><text text-anchor="start" x="0" y="162" transform="translate(415.89,0) rotate(90,0,159)" style="font-family: 'CMU Serif'; font-size: 6px; fill: rgb(0, 0, 0); fill-opacity: 1; white-space: pre; opacity: 1;">TOTAL</text></g><g class="xtick"><text text-anchor="start" x="0" y="162" transform="translate(427.11,0) rotate(90,0,159)" style="font-family: 'CMU Serif'; font-size: 6px; fill: rgb(0, 0, 0); fill-opacity: 1; white-space: pre; opacity: 1;">CAPEX</text></g><g class="xtick"><text text-anchor="start" x="0" y="162" transform="translate(438.32,0) rotate(90,0,159)" style="font-family: 'CMU Serif'; font-size: 6px; fill: rgb(0, 0, 0); fill-opacity: 1; white-space: pre; opacity: 1;">FIXOM</text></g><g class="xtick"><text text-anchor="start" x="0" y="162" transform="translate(449.54,0) rotate(90,0,159)" style="font-family: 'CMU Serif'; font-size: 6px; fill: rgb(0, 0, 0); fill-opacity: 1; white-space: pre; opacity: 1;">VAROM</text></g><g class="xtick"><text text-anchor="start" x="0" y="162" transform="translate(460.75,0) rotate(90,0,159)" style="font-family: 'CMU Serif'; font-size: 6px; fill: rgb(0, 0, 0); fill-opacity: 1; white-space: pre; opacity: 1;">ENERGY</text></g><g class="xtick"><text text-anchor="start" x="0" y="162" transform="translate(471.96,0) rotate(90,0,159)" style="font-family: 'CMU Serif'; font-size: 6px; fill: rgb(0, 0, 0); fill-opacity: 1; white-space: pre; opacity: 1;">ETS</text></g><g class="xtick"><text text-anchor="start" x="0" y="162" transform="translate(483.18,0) rotate(90,0,159)" style="font-family: 'CMU Serif'; font-size: 6px; fill: rgb(0, 0, 0); fill-opacity: 1; white-space: pre; opacity: 1;">RE-INFR</text></g><g class="xtick"><text text-anchor="start" x="0" y="162" transform="translate(494.39,0) rotate(90,0,159)" style="font-family: 'CMU Serif'; font-size: 6px; fill: rgb(0, 0, 0); fill-opacity: 1; white-space: pre; opacity: 1;">TOTAL</text></g><g class="xtick2"><text text-anchor="middle" x="0" y="198.409375" transform="translate(68.25,0)" style="font-family: 'CMU Serif'; font-size: 6px; fill: rgb(0, 0, 0); fill-opacity: 1; white-space: pre; opacity: 1;">DIESEL</text></g><g class="xtick2"><text text-anchor="middle" x="0" y="198.409375" transform="translate(146.75,0)" style="font-family: 'CMU Serif'; font-size: 6px; fill: rgb(0, 0, 0); fill-opacity: 1; white-space: pre; opacity: 1;">HVO</text></g><g class="xtick2"><text text-anchor="middle" x="0" y="198.409375" transform="translate(225.25,0)" style="font-family: 'CMU Serif'; font-size: 6px; fill: rgb(0, 0, 0); fill-opacity: 1; white-space: pre; opacity: 1;">LNG</text></g><g class="xtick2"><text text-anchor="middle" x="0" y="198.409375" transform="translate(303.75,0)" style="font-family: 'CMU Serif'; font-size: 6px; fill: rgb(0, 0, 0); fill-opacity: 1; white-space: pre; opacity: 1;">BIO-LNG</text></g><g class="xtick2"><text text-anchor="middle" x="0" y="198.409375" transform="translate(382.25,0)" style="font-family: 'CMU Serif'; font-size: 6px; fill: rgb(0, 0, 0); fill-opacity: 1; white-space: pre; opacity: 1;">BEV</text></g><g class="xtick2"><text text-anchor="middle" x="0" y="198.409375" transform="translate(460.75,0)" style="font-family: 'CMU Serif'; font-size: 6px; fill: rgb(0, 0, 0); fill-opacity: 1; white-space: pre; opacity: 1;">FCEV</text></g></g><g class="yaxislayer-above"><g class="ytick"><text text-anchor="end" x="28" y="2.0999999999999996" transform="translate(0,155)" style="font-family: 'CMU Serif'; font-size: 6px; fill: rgb(0, 0, 0); fill-opacity: 1; white-space: pre; opacity: 1;">0.0</text></g><g class="ytick"><text text-anchor="end" x="28" y="2.0999999999999996" style="font-family: 'CMU Serif'; font-size: 6px; fill: rgb(0, 0, 0); fill-opacity: 1; white-space: pre; opacity: 1;" transform="translate(0,143.17)">0.1</text></g><g class="ytick"><text text-anchor="end" x="28" y="2.0999999999999996" style="font-family: 'CMU Serif'; font-size: 6px; fill: rgb(0, 0, 0); fill-opacity: 1; white-space: pre; opacity: 1;" transform="translate(0,131.34)">0.2</text></g><g class="ytick"><text text-anchor="end" x="28" y="2.0999999999999996" style="font-family: 'CMU Serif'; font-size: 6px; fill: rgb(0, 0, 0); fill-opacity: 1; white-space: pre; opacity: 1;" transform="translate(0,119.51)">0.3</text></g><g class="ytick"><text text-anchor="end" x="28" y="2.0999999999999996" style="font-family: 'CMU Serif'; font-size: 6px; fill: rgb(0, 0, 0); fill-opacity: 1; white-space: pre; opacity: 1;" transform="translate(0,107.69)">0.4</text></g><g class="ytick"><text text-anchor="end" x="28" y="2.0999999999999996" style="font-family: 'CMU Serif'; font-size: 6px; fill: rgb(0, 0, 0); fill-opacity: 1; white-space: pre; opacity: 1;" transform="translate(0,95.86)">0.5</text></g><g class="ytick"><text text-anchor="end" x="28" y="2.0999999999999996" style="font-family: 'CMU Serif'; font-size: 6px; fill: rgb(0, 0, 0); fill-opacity: 1; white-space: pre; opacity: 1;" transform="translate(0,84.03)">0.6</text></g><g class="ytick"><text text-anchor="end" x="28" y="2.0999999999999996" style="font-family: 'CMU Serif'; font-size: 6px; fill: rgb(0, 0, 0); fill-opacity: 1; white-space: pre; opacity: 1;" transform="translate(0,72.2)">0.7</text></g><g class="ytick"><text text-anchor="end" x="28" y="2.0999999999999996" style="font-family: 'CMU Serif'; font-size: 6px; fill: rgb(0, 0, 0); fill-opacity: 1; white-space: pre; opacity: 1;" transform="translate(0,60.37)">0.8</text></g><g class="ytick"><text text-anchor="end" x="28" y="2.0999999999999996" style="font-family: 'CMU Serif'; font-size: 6px; fill: rgb(0, 0, 0); fill-opacity: 1; white-space: pre; opacity: 1;" transform="translate(0,48.54)">0.9</text></g></g><g class="overaxes-above"/></g></g><g class="polarlayer"/><g class="smithlayer"/><g class="ternarylayer"/><g class="geolayer"/><g class="funnelarealayer"/><g class="pielayer"/><g class="iciclelayer"/><g class="treemaplayer"/><g class="sunburstlayer"/><g class="glimages"/><defs id="topdefs-71499b"><g class="clips"/></defs><g class="layer-above"><g class="imagelayer"/><g class="shapelayer"><g class="shape-group" data-index="0" clip-path="url(#clip71499by)"><path data-index="0" fill-rule="evenodd" d="M29,64.78L500,64.78" style="opacity: 1; stroke: rgb(165, 42, 42); stroke-opacity: 1; fill: rgb(0, 0, 0); fill-opacity: 0; stroke-dasharray: 9px, 9px; stroke-width: 1px;"/></g></g></g><g class="infolayer"><g class="g-gtitle"/><g class="g-xtitle"/><g class="g-ytitle" transform="translate(3.6220703125,0)"><text class="ytitle" transform="rotate(-90,3.3781250000000007,77.5)" x="3.3781250000000007" y="77.5" text-anchor="middle" style="opacity: 1; font-family: 'CMU Serif'; font-size: 7px; fill: rgb(0, 0, 0); fill-opacity: 1; white-space: pre;">EUR/v.km</text></g></g></svg>